<?xml version="1.0" encoding="UTF-8"?>
<svg xmlns="http://www.w3.org/2000/svg" id="Flag_of_India" width="22.767" height="15.652" viewBox="0 0 22.767 15.652">
  <rect id="Rectangle_29983" data-name="Rectangle 29983" width="22.767" height="15.652" fill="#f93"></rect>
  <rect id="Rectangle_29984" data-name="Rectangle 29984" width="22.767" height="5.692" transform="translate(0 4.98)" fill="#fff"></rect>
  <rect id="Rectangle_29985" data-name="Rectangle 29985" width="22.767" height="4.98" transform="translate(0 10.672)" fill="#128807"></rect>
  <g id="Group_78524" data-name="Group 78524" transform="translate(7.948 3.338)">
    <ellipse id="Ellipse_10429" data-name="Ellipse 10429" cx="2.051" cy="2.051" rx="2.051" ry="2.051" transform="translate(1.539 2.303)" fill="#008"></ellipse>
    <ellipse id="Ellipse_10430" data-name="Ellipse 10430" cx="1.795" cy="1.795" rx="1.795" ry="1.795" transform="translate(1.795 2.559)" fill="#fff"></ellipse>
    <ellipse id="Ellipse_10431" data-name="Ellipse 10431" cx="0.359" cy="0.359" rx="0.359" ry="0.359" transform="translate(3.231 3.995)" fill="#008"></ellipse>
    <g id="d" transform="translate(0.329 2.918)">
      <g id="c" transform="translate(1.697 1.272)">
        <g id="b" transform="translate(1.04 0.277)">
          <g id="a" transform="translate(0.462 0.02)">
            <ellipse id="Ellipse_10432" data-name="Ellipse 10432" cx="0.09" cy="0.09" rx="0.09" ry="0.09" transform="translate(1.764 0) rotate(7.5)" fill="#008"></ellipse>
            <path id="Path_184147" data-name="Path 184147" d="M-.538,3.59l.062-1.077L-.538,2-.6,2.513Z" transform="translate(0.6 -1.928)" fill="#008"></path>
          </g>
          <g id="Group_78501" data-name="Group 78501" transform="matrix(0.966, 0.259, -0.259, 0.966, 0.43, 0)">
            <ellipse id="Ellipse_10433" data-name="Ellipse 10433" cx="0.09" cy="0.09" rx="0.09" ry="0.09" transform="translate(1.764 0) rotate(7.5)" fill="#008"></ellipse>
            <path id="Path_184148" data-name="Path 184148" d="M.062,1.59.123.513.062,0,0,.513Z" transform="translate(0 0.072)" fill="#008"></path>
          </g>
        </g>
        <g id="Group_78503" data-name="Group 78503" transform="translate(1.054 0) rotate(30)">
          <g id="a-2" data-name="a" transform="translate(0.462 0.02)">
            <ellipse id="Ellipse_10434" data-name="Ellipse 10434" cx="0.09" cy="0.09" rx="0.09" ry="0.09" transform="translate(1.764 0) rotate(7.5)" fill="#008"></ellipse>
            <path id="Path_184149" data-name="Path 184149" d="M.062,1.59.123.513.062,0,0,.513Z" transform="translate(0 0.072)" fill="#008"></path>
          </g>
          <g id="Group_78502" data-name="Group 78502" transform="matrix(0.966, 0.259, -0.259, 0.966, 0.43, 0)">
            <ellipse id="Ellipse_10435" data-name="Ellipse 10435" cx="0.09" cy="0.09" rx="0.09" ry="0.09" transform="translate(1.764 0) rotate(7.5)" fill="#008"></ellipse>
            <path id="Path_184150" data-name="Path 184150" d="M.062,1.59.123.513.062,0,0,.513Z" transform="translate(0 0.072)" fill="#008"></path>
          </g>
        </g>
      </g>
      <g id="Group_78507" data-name="Group 78507" transform="translate(2.621 0) rotate(60)">
        <g id="b-2" data-name="b" transform="translate(1.04 0.277)">
          <g id="a-3" data-name="a" transform="translate(0.462 0.02)">
            <ellipse id="Ellipse_10436" data-name="Ellipse 10436" cx="0.09" cy="0.09" rx="0.09" ry="0.09" transform="translate(1.764 0) rotate(7.5)" fill="#008"></ellipse>
            <path id="Path_184151" data-name="Path 184151" d="M.062,1.59.123.513.062,0,0,.513Z" transform="translate(0 0.072)" fill="#008"></path>
          </g>
          <g id="Group_78504" data-name="Group 78504" transform="matrix(0.966, 0.259, -0.259, 0.966, 0.43, 0)">
            <ellipse id="Ellipse_10437" data-name="Ellipse 10437" cx="0.09" cy="0.09" rx="0.09" ry="0.09" transform="translate(1.764 0) rotate(7.5)" fill="#008"></ellipse>
            <path id="Path_184152" data-name="Path 184152" d="M.062,1.59.123.513.062,0,0,.513Z" transform="translate(0 0.072)" fill="#008"></path>
          </g>
        </g>
        <g id="Group_78506" data-name="Group 78506" transform="translate(1.054 0) rotate(30)">
          <g id="a-4" data-name="a" transform="translate(0.462 0.02)">
            <ellipse id="Ellipse_10438" data-name="Ellipse 10438" cx="0.09" cy="0.09" rx="0.09" ry="0.09" transform="translate(1.764 0) rotate(7.5)" fill="#008"></ellipse>
            <path id="Path_184153" data-name="Path 184153" d="M.062,1.59.123.513.062,0,0,.513Z" transform="translate(0 0.072)" fill="#008"></path>
          </g>
          <g id="Group_78505" data-name="Group 78505" transform="matrix(0.966, 0.259, -0.259, 0.966, 0.43, 0)">
            <ellipse id="Ellipse_10439" data-name="Ellipse 10439" cx="0.09" cy="0.09" rx="0.09" ry="0.09" transform="translate(1.764 0) rotate(7.5)" fill="#008"></ellipse>
            <path id="Path_184154" data-name="Path 184154" d="M.062,1.59.123.513.062,0,0,.513Z" transform="translate(0 0.072)" fill="#008"></path>
          </g>
        </g>
      </g>
    </g>
    <g id="Group_78515" data-name="Group 78515" transform="translate(6.464 2.248) rotate(120)">
      <g id="c-2" data-name="c" transform="translate(1.697 1.272)">
        <g id="b-3" data-name="b" transform="translate(1.04 0.277)">
          <g id="a-5" data-name="a" transform="translate(0.462 0.02)">
            <ellipse id="Ellipse_10440" data-name="Ellipse 10440" cx="0.09" cy="0.09" rx="0.09" ry="0.09" transform="translate(1.764 0) rotate(7.5)" fill="#008"></ellipse>
            <path id="Path_184155" data-name="Path 184155" d="M.062,1.59.123.513.062,0,0,.513Z" transform="translate(0 0.072)" fill="#008"></path>
          </g>
          <g id="Group_78508" data-name="Group 78508" transform="matrix(0.966, 0.259, -0.259, 0.966, 0.43, 0)">
            <ellipse id="Ellipse_10441" data-name="Ellipse 10441" cx="0.09" cy="0.09" rx="0.09" ry="0.09" transform="translate(1.764 0) rotate(7.5)" fill="#008"></ellipse>
            <path id="Path_184156" data-name="Path 184156" d="M.062,1.59.123.513.062,0,0,.513Z" transform="translate(0 0.072)" fill="#008"></path>
          </g>
        </g>
        <g id="Group_78510" data-name="Group 78510" transform="translate(1.054 0) rotate(30)">
          <g id="a-6" data-name="a" transform="translate(0.462 0.02)">
            <ellipse id="Ellipse_10442" data-name="Ellipse 10442" cx="0.09" cy="0.09" rx="0.09" ry="0.09" transform="translate(1.764 0) rotate(7.5)" fill="#008"></ellipse>
            <path id="Path_184157" data-name="Path 184157" d="M.062,1.59.123.513.062,0,0,.513Z" transform="translate(0 0.072)" fill="#008"></path>
          </g>
          <g id="Group_78509" data-name="Group 78509" transform="matrix(0.966, 0.259, -0.259, 0.966, 0.43, 0)">
            <ellipse id="Ellipse_10443" data-name="Ellipse 10443" cx="0.09" cy="0.09" rx="0.09" ry="0.09" transform="translate(1.764 0) rotate(7.5)" fill="#008"></ellipse>
            <path id="Path_184158" data-name="Path 184158" d="M.062,1.59.123.513.062,0,0,.513Z" transform="translate(0 0.072)" fill="#008"></path>
          </g>
        </g>
      </g>
      <g id="Group_78514" data-name="Group 78514" transform="translate(2.621 0) rotate(60)">
        <g id="b-4" data-name="b" transform="translate(1.04 0.277)">
          <g id="a-7" data-name="a" transform="translate(0.462 0.02)">
            <ellipse id="Ellipse_10444" data-name="Ellipse 10444" cx="0.09" cy="0.09" rx="0.09" ry="0.09" transform="translate(1.764 0) rotate(7.5)" fill="#008"></ellipse>
            <path id="Path_184159" data-name="Path 184159" d="M.062,1.59.123.513.062,0,0,.513Z" transform="translate(0 0.072)" fill="#008"></path>
          </g>
          <g id="Group_78511" data-name="Group 78511" transform="matrix(0.966, 0.259, -0.259, 0.966, 0.43, 0)">
            <ellipse id="Ellipse_10445" data-name="Ellipse 10445" cx="0.09" cy="0.09" rx="0.09" ry="0.09" transform="translate(1.764 0) rotate(7.5)" fill="#008"></ellipse>
            <path id="Path_184160" data-name="Path 184160" d="M.062,1.59.123.513.062,0,0,.513Z" transform="translate(0 0.072)" fill="#008"></path>
          </g>
        </g>
        <g id="Group_78513" data-name="Group 78513" transform="translate(1.054 0) rotate(30)">
          <g id="a-8" data-name="a" transform="translate(0.462 0.02)">
            <ellipse id="Ellipse_10446" data-name="Ellipse 10446" cx="0.09" cy="0.09" rx="0.09" ry="0.09" transform="translate(1.764 0) rotate(7.5)" fill="#008"></ellipse>
            <path id="Path_184161" data-name="Path 184161" d="M.062,1.59.123.513.062,0,0,.513Z" transform="translate(0 0.072)" fill="#008"></path>
          </g>
          <g id="Group_78512" data-name="Group 78512" transform="matrix(0.966, 0.259, -0.259, 0.966, 0.43, 0)">
            <ellipse id="Ellipse_10447" data-name="Ellipse 10447" cx="0.09" cy="0.09" rx="0.09" ry="0.09" transform="translate(1.764 0) rotate(7.5)" fill="#008"></ellipse>
            <path id="Path_184162" data-name="Path 184162" d="M.062,1.59.123.513.062,0,0,.513Z" transform="translate(0 0.072)" fill="#008"></path>
          </g>
        </g>
      </g>
    </g>
    <g id="Group_78523" data-name="Group 78523" transform="translate(3.976 7.896) rotate(-120)">
      <g id="c-3" data-name="c" transform="translate(1.697 1.272)">
        <g id="b-5" data-name="b" transform="translate(1.04 0.277)">
          <g id="a-9" data-name="a" transform="translate(0.462 0.02)">
            <ellipse id="Ellipse_10448" data-name="Ellipse 10448" cx="0.09" cy="0.09" rx="0.09" ry="0.09" transform="translate(1.764 0) rotate(7.5)" fill="#008"></ellipse>
            <path id="Path_184163" data-name="Path 184163" d="M.062,1.59.123.513.062,0,0,.513Z" transform="translate(0 0.072)" fill="#008"></path>
          </g>
          <g id="Group_78516" data-name="Group 78516" transform="matrix(0.966, 0.259, -0.259, 0.966, 0.43, 0)">
            <ellipse id="Ellipse_10449" data-name="Ellipse 10449" cx="0.09" cy="0.09" rx="0.09" ry="0.09" transform="translate(1.764 0) rotate(7.5)" fill="#008"></ellipse>
            <path id="Path_184164" data-name="Path 184164" d="M.062,1.59.123.513.062,0,0,.513Z" transform="translate(0 0.072)" fill="#008"></path>
          </g>
        </g>
        <g id="Group_78518" data-name="Group 78518" transform="translate(1.054 0) rotate(30)">
          <g id="a-10" data-name="a" transform="translate(0.462 0.02)">
            <ellipse id="Ellipse_10450" data-name="Ellipse 10450" cx="0.09" cy="0.09" rx="0.09" ry="0.09" transform="translate(1.764 0) rotate(7.5)" fill="#008"></ellipse>
            <path id="Path_184165" data-name="Path 184165" d="M.062,1.59.123.513.062,0,0,.513Z" transform="translate(0 0.072)" fill="#008"></path>
          </g>
          <g id="Group_78517" data-name="Group 78517" transform="matrix(0.966, 0.259, -0.259, 0.966, 0.43, 0)">
            <ellipse id="Ellipse_10451" data-name="Ellipse 10451" cx="0.09" cy="0.09" rx="0.09" ry="0.09" transform="translate(1.764 0) rotate(7.5)" fill="#008"></ellipse>
            <path id="Path_184166" data-name="Path 184166" d="M.062,1.59.123.513.062,0,0,.513Z" transform="translate(0 0.072)" fill="#008"></path>
          </g>
        </g>
      </g>
      <g id="Group_78522" data-name="Group 78522" transform="translate(2.621 0) rotate(60)">
        <g id="b-6" data-name="b" transform="translate(1.04 0.277)">
          <g id="a-11" data-name="a" transform="translate(0.462 0.02)">
            <ellipse id="Ellipse_10452" data-name="Ellipse 10452" cx="0.09" cy="0.09" rx="0.09" ry="0.09" transform="translate(1.764 0) rotate(7.5)" fill="#008"></ellipse>
            <path id="Path_184167" data-name="Path 184167" d="M.062,1.59.123.513.062,0,0,.513Z" transform="translate(0 0.072)" fill="#008"></path>
          </g>
          <g id="Group_78519" data-name="Group 78519" transform="matrix(0.966, 0.259, -0.259, 0.966, 0.43, 0)">
            <ellipse id="Ellipse_10453" data-name="Ellipse 10453" cx="0.09" cy="0.09" rx="0.09" ry="0.09" transform="translate(1.764 0) rotate(7.5)" fill="#008"></ellipse>
            <path id="Path_184168" data-name="Path 184168" d="M.062,1.59.123.513.062,0,0,.513Z" transform="translate(0 0.072)" fill="#008"></path>
          </g>
        </g>
        <g id="Group_78521" data-name="Group 78521" transform="translate(1.054 0) rotate(30)">
          <g id="a-12" data-name="a" transform="translate(0.462 0.02)">
            <ellipse id="Ellipse_10454" data-name="Ellipse 10454" cx="0.09" cy="0.09" rx="0.09" ry="0.09" transform="translate(1.764 0) rotate(7.5)" fill="#008"></ellipse>
            <path id="Path_184169" data-name="Path 184169" d="M.062,1.59.123.513.062,0,0,.513Z" transform="translate(0 0.072)" fill="#008"></path>
          </g>
          <g id="Group_78520" data-name="Group 78520" transform="matrix(0.966, 0.259, -0.259, 0.966, 0.43, 0)">
            <ellipse id="Ellipse_10455" data-name="Ellipse 10455" cx="0.09" cy="0.09" rx="0.09" ry="0.09" transform="translate(1.764 0) rotate(7.5)" fill="#008"></ellipse>
            <path id="Path_184170" data-name="Path 184170" d="M.062,1.59.123.513.062,0,0,.513Z" transform="translate(0 0.072)" fill="#008"></path>
          </g>
        </g>
      </g>
    </g>
  </g>
</svg>
