<svg xmlns="http://www.w3.org/2000/svg" xmlns:xlink="http://www.w3.org/1999/xlink" id="Group_78255" data-name="Group 78255" width="152.877" height="99.641" viewBox="0 0 152.877 99.641"><defs><linearGradient id="linear-gradient" y1="0.222" x2="1.972" y2="0.867" gradientUnits="objectBoundingBox"><stop offset="0" stop-color="#ffa700"></stop><stop offset="0.236" stop-color="#ffeeb7"></stop><stop offset="0.478" stop-color="#ffb017"></stop><stop offset="0.754" stop-color="#fff4d1"></stop><stop offset="1" stop-color="#ffaf11"></stop></linearGradient><clipPath id="clip-path"><rect id="Rectangle_23101" data-name="Rectangle 23101" width="152.877" height="99.641" fill="url(#linear-gradient)"></rect></clipPath></defs><g id="Group_67577" data-name="Group 67577"><g id="Group_67576" data-name="Group 67576" clip-path="url(#clip-path)"><path id="Path_159473" data-name="Path 159473" d="M61.684,95.022a.9.9,0,0,0,.416-.335c.072-.143.143-.285.213-.428.033-.149.064-.3.1-.449l.006-.349-.028-.327a.61.61,0,0,0-.243-.419,64.535,64.535,0,0,1-28.519-11A62.091,62.091,0,0,1,17.018,64.537c-.473-.737-1-1.421-1.407-2.166s-.8-1.478-1.188-2.2a36.159,36.159,0,0,1-2.118-4.24q-.891-2.11-1.721-4.073-.637-2.036-1.228-3.926c-.2-.633-.392-1.25-.581-1.859q-.2-.935-.39-1.837-.375-1.8-.723-3.479c-.057-.28-.114-.555-.169-.829-.029-.28-.059-.555-.086-.827q-.088-.819-.171-1.609-.168-1.578-.322-3.04A62.439,62.439,0,0,1,7.106,24.3a51.559,51.559,0,0,1,1.118-7.607,63.188,63.188,0,0,1,3.753-11.7l-.132-.059-.132-.057c-.044-.02-.088-.04-.132-.059l-.132-.059-.189-.083-.191-.085a64.306,64.306,0,0,0-3.95,11.853,52.784,52.784,0,0,0-1.23,7.734,63.962,63.962,0,0,0-.314,10.36q.141,1.5.294,3.111c.05.537.1,1.087.154,1.646.028.28.053.561.081.846.053.281.108.565.164.851q.334,1.718.7,3.566.185.927.377,1.885.281.938.572,1.911.588,1.945,1.215,4.036.827,2.022,1.714,4.194a37.924,37.924,0,0,0,2.122,4.373q.588,1.117,1.2,2.271c.406.769.942,1.478,1.42,2.242A63.932,63.932,0,0,0,32.472,83.341q1.443,1,2.933,2.034c.995.686,2.109,1.214,3.185,1.843,1.1.587,2.174,1.271,3.343,1.8l3.591,1.559q.916.392,1.841.791l1.936.62,3.961,1.265c1.363.344,2.768.6,4.182.912s2.869.611,4.24.857" transform="translate(4.628 3.847)" fill="url(#linear-gradient)"></path><path id="Path_159474" data-name="Path 159474" d="M8.1,7.253a5.543,5.543,0,0,1-.048-4.465A4.2,4.2,0,0,1,9.082,1.545,6.742,6.742,0,0,1,11.763.3l.272-.063A10.651,10.651,0,0,1,13.28.044C13.775,0,14.089,0,14.089,0s.028.057.074.158.1.228.169.39c.085.206.186.462.289.75.048.147.1.3.154.463l.131.443a8.273,8.273,0,0,1,.333,2.768,3.437,3.437,0,0,1-.381,1.4,5.943,5.943,0,0,1-3.411,2.394c-.151.05-.3.1-.443.142l-.473.132c-.292.081-.881.951-1.261,1.41-.3.366-.476.478-.577.5l-.171.035S9,9.093,8.749,8.65A8.709,8.709,0,0,1,8.2,7.512l-.1-.259" transform="translate(6.37 0)" fill="url(#linear-gradient)"></path><path id="Path_159475" data-name="Path 159475" d="M7.032,12.39a10.454,10.454,0,0,1-1.4-.954,5.593,5.593,0,0,1-1.883-2.63,4.821,4.821,0,0,1-.178-1.738A7.744,7.744,0,0,1,4.56,4.133c.048-.083.1-.165.143-.25a7.275,7.275,0,0,1,.741-1.065C5.77,2.421,6,2.2,6,2.2s.057.028.162.083l.388.215c.2.118.451.268.726.449l.432.3.4.3a10.226,10.226,0,0,1,2.2,2.243,5.391,5.391,0,0,1,.759,1.523,5.18,5.18,0,0,1-.068,2.9,7.567,7.567,0,0,1-.515,1.355c-.07.134-.136.265-.2.392l-.23.4c-.169.245.081,1.353.158,1.966.063.485.026.68-.029.758s-.1.129-.1.129S9.018,13.35,8.527,13.129c-.344-.145-.77-.342-1.232-.592-.086-.05-.175-.1-.263-.147" transform="translate(2.983 1.843)" fill="url(#linear-gradient)"></path><path id="Path_159476" data-name="Path 159476" d="M6.108,18.388a11.237,11.237,0,0,1-1.57-.793,6.242,6.242,0,0,1-2.422-2.571,5.66,5.66,0,0,1-.5-1.843,9.111,9.111,0,0,1,.495-3.314c.033-.1.066-.195.1-.292a9.815,9.815,0,0,1,.581-1.26c.261-.48.452-.759.452-.759l.177.066.425.175c.228.1.5.222.809.377l.487.256.458.261a10.9,10.9,0,0,1,2.6,2.087A6.4,6.4,0,0,1,9.244,12.3a6.121,6.121,0,0,1,.456,3.17,8.74,8.74,0,0,1-.265,1.5c-.046.154-.092.305-.131.451-.057.162-.108.316-.158.463-.136.287.375,1.445.576,2.087.167.511.173.726.134.816l-.066.154s-1.482-1.824-2.023-1.988A13.963,13.963,0,0,1,6.4,18.506l-.294-.118" transform="translate(1.348 6.339)" fill="url(#linear-gradient)"></path><path id="Path_159477" data-name="Path 159477" d="M6.272,25.013a11.1,11.1,0,0,1-1.7-.6A7.166,7.166,0,0,1,1.525,22a6.768,6.768,0,0,1-.9-1.92,5.577,5.577,0,0,1-.261-1.9A12.024,12.024,0,0,1,.5,16.426c.018-.112.037-.223.053-.331.1-.568.224-1.067.335-1.455.16-.559.294-.89.294-.89l.193.044c.112.029.272.074.467.127.246.07.552.165.894.287.173.064.355.134.544.206l.519.213A12.321,12.321,0,0,1,6.878,16.5,6.89,6.89,0,0,1,8.2,17.981a5.993,5.993,0,0,1,.734,1.664,7.785,7.785,0,0,1,.4,1.7,9.827,9.827,0,0,1,.059,1.624c-.011.173-.022.342-.033.5-.02.182-.039.357-.057.522a8.972,8.972,0,0,0,.923,2.14c.3.519.359.745.342.848s-.029.175-.029.175-.5-.4-1.056-.857a4.843,4.843,0,0,0-1.416-.941,14.843,14.843,0,0,1-1.467-.268l-.322-.081" transform="translate(0.304 11.534)" fill="url(#linear-gradient)"></path><path id="Path_159478" data-name="Path 159478" d="M8,32.111a11.806,11.806,0,0,1-1.979-.368A8.231,8.231,0,0,1,2.371,29.7,7.427,7.427,0,0,1,.988,27.792a12.27,12.27,0,0,1-.936-3.924c-.009-.125-.017-.246-.026-.366A15.63,15.63,0,0,1,.015,21.88C.043,21.251.1,20.872.1,20.872s.074.006.206.018l.508.063c.268.039.6.094.982.171.189.044.392.088.6.136l.581.149a14.119,14.119,0,0,1,3.6,1.517A8.378,8.378,0,0,1,8.29,24.3,10.112,10.112,0,0,1,10.2,27.643a11.338,11.338,0,0,1,.495,1.78c.033.186.064.366.094.539.026.2.05.384.072.561a10.56,10.56,0,0,0,1.491,2.1c.439.491.559.719.568.829s.013.188.013.188-.618-.338-1.307-.713a5.509,5.509,0,0,0-1.694-.752,14.521,14.521,0,0,1-1.576-.035L8,32.111" transform="translate(-0.001 17.509)" fill="url(#linear-gradient)"></path><path id="Path_159479" data-name="Path 159479" d="M11.679,39.093a12.617,12.617,0,0,1-1.933-.013,9.327,9.327,0,0,1-4.511-1.53,9.538,9.538,0,0,1-1.92-1.762A14.106,14.106,0,0,1,1.381,31.8c-.039-.131-.077-.257-.116-.382-.191-.66-.322-1.25-.408-1.717-.063-.335-.1-.6-.127-.793-.006-.191-.009-.3-.009-.3l.215-.015.53-.013c.281,0,.629,0,1.043.022l.656.042.636.063a15.779,15.779,0,0,1,4.088.995A9.938,9.938,0,0,1,10,30.859a8.64,8.64,0,0,1,1.653,1.594,14.792,14.792,0,0,1,1.3,1.74,13.245,13.245,0,0,1,.85,1.6c.079.189.154.371.23.548.075.2.147.394.213.574a8.586,8.586,0,0,0,2.163,1.877c.579.432.759.645.8.759s.061.193.061.193l-1.535-.5a6.79,6.79,0,0,0-2.036-.432,15.382,15.382,0,0,1-1.644.25c-.121.009-.246.018-.373.029" transform="translate(0.605 23.975)" fill="url(#linear-gradient)"></path><path id="Path_159480" data-name="Path 159480" d="M17.034,45.43a13.325,13.325,0,0,1-1.868.353,10.446,10.446,0,0,1-5.32-.774A11.162,11.162,0,0,1,7.4,43.5a14.165,14.165,0,0,1-3.042-3.821c-.072-.131-.143-.257-.213-.381C3.783,38.64,3.5,38.045,3.3,37.57a6.276,6.276,0,0,1-.4-1.122s.077-.018.221-.05l.55-.1c.292-.046.658-.1,1.1-.147.219-.02.452-.04.7-.064l.682-.04a17.743,17.743,0,0,1,4.518.351,11.453,11.453,0,0,1,2.494.842,15.568,15.568,0,0,1,4.114,3.054,15.129,15.129,0,0,1,1.14,1.363c.131.182.256.357.375.526q.193.292.364.557a13.417,13.417,0,0,0,2.83,1.462c.713.337.954.524,1.021.634l.11.188L21.374,44.8a7.49,7.49,0,0,0-2.243-.064,15.987,15.987,0,0,1-1.7.59l-.394.107" transform="translate(2.429 30.222)" fill="url(#linear-gradient)"></path><path id="Path_159481" data-name="Path 159481" d="M24.348,51.112a15.1,15.1,0,0,1-1.905.767,13.084,13.084,0,0,1-2.753.583,11.575,11.575,0,0,1-1.526.055,10.593,10.593,0,0,1-1.53-.232A12.594,12.594,0,0,1,13.729,51.2a17.251,17.251,0,0,1-2.392-1.5,13.858,13.858,0,0,1-1.83-1.756l-.314-.357c-.533-.618-.967-1.186-1.293-1.64-.471-.656-.715-1.076-.715-1.076s.079-.031.221-.094l.557-.215c.3-.109.673-.235,1.111-.368.223-.061.46-.129.708-.2.224-.055.456-.11.7-.171a18.875,18.875,0,0,1,4.765-.5,16.218,16.218,0,0,1,2.808.364A13.653,13.653,0,0,1,23.125,45.9c.555.414,1.114.782,1.616,1.135l.557.421c.195.16.382.313.557.454a16.855,16.855,0,0,0,3.293.919,4.539,4.539,0,0,1,1.241.4l.173.154-.581.064c-.36.05-.826.088-1.306.121a7.818,7.818,0,0,0-2.332.394,16.8,16.8,0,0,1-1.615.956l-.382.191" transform="translate(6.026 36.336)" fill="url(#linear-gradient)"></path><path id="Path_159482" data-name="Path 159482" d="M32.979,55.4a14.49,14.49,0,0,1-1.942,1.272A12.946,12.946,0,0,1,25.17,58.3a13.63,13.63,0,0,1-1.734-.061,11.18,11.18,0,0,1-1.638-.353,21.745,21.745,0,0,1-5.324-2.391c-.147-.1-.3-.177-.434-.281-.708-.535-1.3-1.039-1.749-1.445-.651-.588-1.008-.975-1.008-.975l.208-.14.528-.329c.285-.169.645-.371,1.072-.592l.69-.342.686-.311a23.229,23.229,0,0,1,4.875-1.493,15.525,15.525,0,0,1,3.106-.309,21.713,21.713,0,0,1,5.746,1.043,19.788,19.788,0,0,1,2.17.815c.237.109.465.215.684.316l.69.351c.406.285,2.585.081,3.749.031a3.5,3.5,0,0,1,1.414.088l.219.121-1.933.645A9.414,9.414,0,0,0,34.8,53.729a17.65,17.65,0,0,1-1.464,1.381l-.357.292" transform="translate(11.143 41.337)" fill="url(#linear-gradient)"></path><path id="Path_159483" data-name="Path 159483" d="M10.771,13.462a8.775,8.775,0,0,0,4.641-.756,3.515,3.515,0,0,0,1.046-.94,4.653,4.653,0,0,0,.936-2.148c.013-.072.024-.143.037-.217.046-.379.107-.71.118-.986a5.53,5.53,0,0,0,.009-.649L17.387,7.7c-.1-.035-.243-.085-.419-.143-.223-.072-.5-.156-.816-.241-.162-.04-.331-.083-.508-.129l-.491-.1a9.439,9.439,0,0,0-3.119-.145,4.339,4.339,0,0,0-1.543.519,4.745,4.745,0,0,0-2.157,3.531c-.02.147-.04.289-.059.425-.015.156-.028.305-.04.445A9.371,9.371,0,0,1,7.086,13.42c-.294.39-.359.579-.348.673s.018.158.018.158a7.523,7.523,0,0,1,2.368-.964c.368.057.831.116,1.348.154l.3.02" transform="translate(5.652 5.761)" fill="url(#linear-gradient)"></path><path id="Path_159484" data-name="Path 159484" d="M10.062,19.012a9.356,9.356,0,0,0,4.671-1.681,4.823,4.823,0,0,0,.958-1.173,5.174,5.174,0,0,0,.712-2.4l.017-.23a7.482,7.482,0,0,0,.018-1.037,6.2,6.2,0,0,0-.068-.673s-.066-.011-.186-.035-.265-.04-.456-.072c-.239-.033-.539-.07-.879-.1-.173-.013-.355-.024-.544-.039l-.524-.018a10.02,10.02,0,0,0-3.268.425,4.72,4.72,0,0,0-1.556.827,5.156,5.156,0,0,0-1.763,4.1c0,.156,0,.309,0,.456.009.165.017.325.026.474a8.28,8.28,0,0,1-1.008,1.861c-.268.465-.316.677-.3.772l.037.164s1.817-1.475,2.376-1.478c.388-.011.877-.04,1.42-.1l.313-.037" transform="translate(4.961 9.687)" fill="url(#linear-gradient)"></path><path id="Path_159485" data-name="Path 159485" d="M10.06,25.3a14.757,14.757,0,0,0,2.433-1.079,9.245,9.245,0,0,0,2.14-1.662,5.1,5.1,0,0,0,.914-1.427,5.72,5.72,0,0,0,.388-2.65l-.022-.243c-.068-.421-.05-.791-.1-1.085a5.57,5.57,0,0,0-.127-.684h-.2L15,16.484c-.254.011-.57.031-.93.066l-.572.066c-.177.026-.36.053-.548.083a10.716,10.716,0,0,0-3.361,1.094,5.642,5.642,0,0,0-1.456,1.184,6.736,6.736,0,0,0-1.359,4.7,3.612,3.612,0,0,0,.074.482c.037.175.074.34.107.5a9.467,9.467,0,0,1-.706,2.188c-.193.552-.206.789-.169.886s.064.165.064.165.4-.5.87-1a4.294,4.294,0,0,1,1.3-1.078c.394-.1.888-.23,1.432-.408l.313-.1" transform="translate(5.085 13.817)" fill="url(#linear-gradient)"></path><path id="Path_159486" data-name="Path 159486" d="M11.2,32.22a13.151,13.151,0,0,0,4.2-3.948,5.828,5.828,0,0,0,.684-1.708,7.865,7.865,0,0,0,0-2.88c-.011-.085-.022-.169-.035-.254a7.761,7.761,0,0,0-.25-1.118,6.31,6.31,0,0,0-.246-.688l-.2.042-.491.114c-.257.066-.577.153-.938.267-.182.061-.373.125-.576.191l-.546.2a11.726,11.726,0,0,0-3.264,1.881A5.65,5.65,0,0,0,8.173,25.91a7.741,7.741,0,0,0-.561,5.3,3.013,3.013,0,0,0,.134.508l.2.508a11.555,11.555,0,0,1-.322,2.512,1.954,1.954,0,0,0-.011.993c.061.1.1.162.1.162s.311-.629.7-1.278a4.848,4.848,0,0,1,1.122-1.453c.381-.191.857-.447,1.375-.759l.3-.184" transform="translate(6.202 18.14)" fill="url(#linear-gradient)"></path><path id="Path_159487" data-name="Path 159487" d="M14.142,39.087a18.342,18.342,0,0,0,1.951-2.332,12.862,12.862,0,0,0,1.469-2.813,6.864,6.864,0,0,0,.382-1.977,9.178,9.178,0,0,0-.506-3.065l-.077-.263a8.927,8.927,0,0,0-.447-1.127,6.064,6.064,0,0,0-.37-.671s-.07.029-.2.086l-.476.228c-.25.125-.557.287-.9.484l-.546.327c-.165.109-.338.219-.517.335a12.569,12.569,0,0,0-2.962,2.716,6.147,6.147,0,0,0-1.07,1.992,8.58,8.58,0,0,0,.456,5.805l.265.5c.1.177.2.346.3.5a13.987,13.987,0,0,1,.167,2.793,2.277,2.277,0,0,0,.184,1.079c.083.1.127.158.127.158s.188-.754.445-1.545a5.56,5.56,0,0,1,.837-1.824c.346-.292.77-.675,1.228-1.127.088-.086.177-.175.263-.263" transform="translate(8.016 22.513)" fill="url(#linear-gradient)"></path><path id="Path_159488" data-name="Path 159488" d="M18.472,45.249a15.654,15.654,0,0,0,2.3-6.215,8.2,8.2,0,0,0,.006-2.2,9.461,9.461,0,0,0-1.1-3.168l-.127-.263a9.241,9.241,0,0,0-.653-1.111,6.694,6.694,0,0,0-.493-.64l-.182.134-.436.34c-.228.186-.509.421-.818.7-.154.145-.316.3-.489.463-.145.149-.3.3-.456.463a13.571,13.571,0,0,0-2.464,3.527,7.1,7.1,0,0,0-.647,2.339,8.768,8.768,0,0,0,.353,3.4,10.626,10.626,0,0,0,.565,1.5,13.4,13.4,0,0,0,.787,1.217c.129.169.25.333.37.489l.4.487a16.848,16.848,0,0,1,.761,3,2.031,2.031,0,0,0,.465,1.1l.175.131s0-.2-.006-.52a9.822,9.822,0,0,1,.053-1.2,6.38,6.38,0,0,1,.443-2.157c.281-.39.625-.892.987-1.477l.206-.34" transform="translate(10.797 26.548)" fill="url(#linear-gradient)"></path><path id="Path_159489" data-name="Path 159489" d="M24.547,50.618a18.236,18.236,0,0,0,.826-7.1,11.611,11.611,0,0,0-.59-2.232,9.187,9.187,0,0,0-1.776-3.139c-.066-.077-.136-.154-.2-.23-.178-.2-.357-.371-.52-.531-.147-.175-.285-.329-.412-.462a6.438,6.438,0,0,0-.612-.579s-.055.063-.154.178l-.362.454c-.189.245-.419.554-.669.919-.121.186-.254.384-.39.592-.114.191-.234.388-.359.592a15.707,15.707,0,0,0-.967,1.953,11.878,11.878,0,0,0-.636,2.234,9.418,9.418,0,0,0-.1,2.613A8.267,8.267,0,0,0,18.771,49.4a14.071,14.071,0,0,0,2.071,2.528l.48.451.513.443c.283.311,1.094,1.957,1.615,2.894a3.023,3.023,0,0,0,.761,1.05l.208.1s-.23-.877-.4-1.824a6.538,6.538,0,0,1-.171-2.295c.178-.465.386-1.059.59-1.74.037-.129.075-.261.114-.4" transform="translate(14.737 30.485)" fill="url(#linear-gradient)"></path><path id="Path_159490" data-name="Path 159490" d="M32.074,54.129a24.747,24.747,0,0,0-.195-3.637c-.083-.638-.206-1.258-.353-1.9a13.545,13.545,0,0,0-.539-1.927,10.127,10.127,0,0,0-1.14-2.225,17.656,17.656,0,0,0-2.563-2.85c-.083-.068-.169-.136-.254-.206a10.5,10.5,0,0,0-1.186-.809,7.43,7.43,0,0,0-.793-.414s-.039.077-.112.221-.145.313-.252.541c-.129.289-.281.653-.439,1.079-.075.215-.154.445-.239.688-.066.217-.136.441-.208.675a14.45,14.45,0,0,0-.577,4.7,10.814,10.814,0,0,0,.517,2.8,9.833,9.833,0,0,0,2.14,3.317,11.153,11.153,0,0,0,2.745,2.227l.627.324c.234.108.452.211.66.307a22.755,22.755,0,0,1,2.427,2.7c.609.719.93.877,1.07.912l.246.05-.305-.52a11.692,11.692,0,0,1-.629-1.258,7.648,7.648,0,0,1-.787-2.4c.051-.526.1-1.2.127-1.957l.011-.441" transform="translate(19.466 33.693)" fill="url(#linear-gradient)"></path><path id="Path_159491" data-name="Path 159491" d="M47.408,95.022a.9.9,0,0,1-.416-.335c-.072-.143-.143-.285-.213-.428-.033-.149-.064-.3-.1-.449l-.006-.349.028-.327a.61.61,0,0,1,.243-.419,64.544,64.544,0,0,0,28.519-11A62.091,62.091,0,0,0,92.074,64.537c.473-.737,1-1.421,1.407-2.166s.8-1.478,1.188-2.2a36.156,36.156,0,0,0,2.118-4.24q.891-2.11,1.721-4.073.637-2.036,1.228-3.926c.2-.633.392-1.25.581-1.859q.2-.935.39-1.837.375-1.8.723-3.479c.057-.28.114-.555.169-.829.029-.28.059-.555.086-.827q.088-.819.171-1.609.168-1.578.322-3.04a62.439,62.439,0,0,0-.193-10.158,51.56,51.56,0,0,0-1.118-7.607,63.19,63.19,0,0,0-3.753-11.7l.132-.059.132-.057c.044-.02.088-.04.132-.059l.132-.059.189-.083.191-.085a64.307,64.307,0,0,1,3.95,11.853,52.784,52.784,0,0,1,1.23,7.734,63.959,63.959,0,0,1,.314,10.36q-.141,1.5-.294,3.111c-.05.537-.1,1.087-.154,1.646-.028.28-.053.561-.081.846-.053.281-.109.565-.164.851q-.334,1.718-.7,3.566-.185.927-.377,1.885-.281.938-.572,1.911-.588,1.945-1.215,4.036-.828,2.022-1.714,4.194a37.924,37.924,0,0,1-2.122,4.373q-.588,1.117-1.2,2.271c-.406.769-.942,1.478-1.42,2.242A63.931,63.931,0,0,1,76.62,83.341q-1.443,1-2.933,2.034c-.995.686-2.109,1.214-3.185,1.843-1.1.587-2.174,1.271-3.343,1.8l-3.591,1.559q-.916.392-1.841.791l-1.936.62L55.83,93.253c-1.363.344-2.768.6-4.182.912s-2.869.611-4.24.857" transform="translate(39.157 3.847)" fill="url(#linear-gradient)"></path><path id="Path_159492" data-name="Path 159492" d="M78.531,7.253a5.543,5.543,0,0,0,.048-4.465,4.2,4.2,0,0,0-1.032-1.243A6.742,6.742,0,0,0,74.867.3L74.594.239A10.65,10.65,0,0,0,73.349.044C72.855,0,72.54,0,72.54,0s-.028.057-.074.158-.1.228-.169.39c-.085.206-.186.462-.289.75-.048.147-.1.3-.154.463-.042.143-.086.292-.131.443a8.272,8.272,0,0,0-.333,2.768,3.437,3.437,0,0,0,.381,1.4,5.943,5.943,0,0,0,3.411,2.394c.151.05.3.1.443.142l.473.132c.292.081.881.951,1.261,1.41.3.366.476.478.577.5l.171.035S77.63,9.093,77.88,8.65a8.708,8.708,0,0,0,.552-1.138l.1-.259" transform="translate(59.877 0)" fill="url(#linear-gradient)"></path><path id="Path_159493" data-name="Path 159493" d="M79.617,12.39a10.453,10.453,0,0,0,1.4-.954A5.593,5.593,0,0,0,82.9,8.806a4.82,4.82,0,0,0,.178-1.738,7.744,7.744,0,0,0-.991-2.935c-.048-.083-.1-.165-.143-.25A7.277,7.277,0,0,0,81.2,2.819c-.325-.4-.554-.622-.554-.622s-.057.028-.162.083l-.388.215c-.2.118-.451.268-.726.449l-.432.3-.4.3a10.226,10.226,0,0,0-2.2,2.243,5.391,5.391,0,0,0-.759,1.523,5.18,5.18,0,0,0,.068,2.9,7.567,7.567,0,0,0,.515,1.355c.07.134.136.265.2.392l.23.4c.167.245-.081,1.353-.158,1.966-.063.485-.026.68.029.758s.1.129.1.129,1.076-1.854,1.567-2.074c.344-.145.77-.342,1.232-.592.086-.05.175-.1.263-.147" transform="translate(63.246 1.843)" fill="url(#linear-gradient)"></path><path id="Path_159494" data-name="Path 159494" d="M80.8,18.388a11.237,11.237,0,0,0,1.57-.793,6.231,6.231,0,0,0,2.422-2.571,5.659,5.659,0,0,0,.5-1.843,9.072,9.072,0,0,0-.495-3.314c-.033-.1-.066-.195-.1-.292a9.32,9.32,0,0,0-.583-1.26,8.724,8.724,0,0,0-.451-.759s-.061.024-.177.066l-.427.175c-.224.1-.5.222-.809.377l-.485.256-.458.261A10.948,10.948,0,0,0,78.7,10.779,6.448,6.448,0,0,0,77.664,12.3a6.14,6.14,0,0,0-.456,3.17,8.739,8.739,0,0,0,.265,1.5c.048.154.09.305.131.451.055.162.108.316.158.463.136.287-.375,1.445-.574,2.087-.171.511-.175.726-.136.816l.066.154s1.482-1.824,2.023-1.988a13.789,13.789,0,0,0,1.363-.449l.3-.118" transform="translate(64.621 6.339)" fill="url(#linear-gradient)"></path><path id="Path_159495" data-name="Path 159495" d="M81.518,25.013a11.1,11.1,0,0,0,1.7-.6A7.166,7.166,0,0,0,86.264,22a6.768,6.768,0,0,0,.9-1.92,5.578,5.578,0,0,0,.261-1.9,12.027,12.027,0,0,0-.14-1.762c-.018-.112-.037-.223-.053-.331-.1-.568-.224-1.067-.335-1.455-.16-.559-.294-.89-.294-.89l-.193.044c-.112.029-.272.074-.467.127-.246.07-.552.165-.894.287-.173.064-.355.134-.544.206l-.519.213A12.32,12.32,0,0,0,80.911,16.5a6.89,6.89,0,0,0-1.317,1.486,5.993,5.993,0,0,0-.734,1.664,7.785,7.785,0,0,0-.4,1.7,9.827,9.827,0,0,0-.059,1.624c.011.173.022.342.033.5.02.182.039.357.057.522a8.972,8.972,0,0,1-.923,2.14c-.3.519-.359.745-.342.848s.029.175.029.175.5-.4,1.056-.857a4.842,4.842,0,0,1,1.416-.941,14.844,14.844,0,0,0,1.467-.268l.322-.081" transform="translate(64.783 11.534)" fill="url(#linear-gradient)"></path><path id="Path_159496" data-name="Path 159496" d="M81.032,32.111a11.806,11.806,0,0,0,1.979-.368A8.231,8.231,0,0,0,86.665,29.7a7.427,7.427,0,0,0,1.383-1.905,12.271,12.271,0,0,0,.936-3.924c.009-.125.017-.246.026-.366a15.625,15.625,0,0,0,.011-1.622c-.028-.629-.085-1.008-.085-1.008s-.074.006-.206.018l-.508.063c-.268.039-.6.094-.982.171-.189.044-.392.088-.6.136l-.581.149a14.119,14.119,0,0,0-3.6,1.517A8.378,8.378,0,0,0,80.745,24.3a10.112,10.112,0,0,0-1.909,3.341,11.341,11.341,0,0,0-.495,1.78c-.033.186-.064.366-.094.539-.026.2-.05.384-.072.561a10.561,10.561,0,0,1-1.491,2.1c-.439.491-.559.719-.568.829s-.013.188-.013.188.618-.338,1.307-.713a5.509,5.509,0,0,1,1.694-.752,14.521,14.521,0,0,0,1.576-.035l.351-.031" transform="translate(63.842 17.509)" fill="url(#linear-gradient)"></path><path id="Path_159497" data-name="Path 159497" d="M79.005,39.093a12.617,12.617,0,0,0,1.933-.013,9.326,9.326,0,0,0,4.511-1.53,9.537,9.537,0,0,0,1.92-1.762A14.105,14.105,0,0,0,89.3,31.8c.039-.131.077-.257.116-.382.191-.66.322-1.25.408-1.717.063-.335.1-.6.127-.793.005-.191.009-.3.009-.3l-.215-.015-.53-.013c-.281,0-.629,0-1.043.022l-.656.042-.636.063A15.779,15.779,0,0,0,82.8,29.7a9.938,9.938,0,0,0-2.113,1.157,8.64,8.64,0,0,0-1.653,1.594,14.794,14.794,0,0,0-1.3,1.74,13.245,13.245,0,0,0-.85,1.6c-.079.189-.154.371-.23.548-.075.2-.147.394-.213.574a8.586,8.586,0,0,1-2.163,1.877c-.579.432-.759.645-.8.759s-.061.193-.061.193l1.535-.5a6.79,6.79,0,0,1,2.036-.432,15.381,15.381,0,0,0,1.644.25c.121.009.246.018.373.029" transform="translate(61.588 23.975)" fill="url(#linear-gradient)"></path><path id="Path_159498" data-name="Path 159498" d="M75.322,45.43a13.325,13.325,0,0,0,1.868.353,10.446,10.446,0,0,0,5.32-.774,11.162,11.162,0,0,0,2.446-1.5A14.165,14.165,0,0,0,88,39.683c.072-.131.143-.257.213-.381.362-.662.642-1.258.846-1.732a6.276,6.276,0,0,0,.4-1.122s-.077-.018-.221-.05l-.55-.1c-.292-.046-.658-.1-1.1-.147-.219-.02-.452-.04-.7-.064l-.682-.04A17.743,17.743,0,0,0,81.7,36.4a11.452,11.452,0,0,0-2.494.842,15.568,15.568,0,0,0-4.114,3.054,15.129,15.129,0,0,0-1.14,1.363c-.131.182-.256.357-.375.526q-.193.292-.364.557a13.417,13.417,0,0,1-2.83,1.462c-.713.337-.954.524-1.021.634l-.11.188,1.732-.226a7.49,7.49,0,0,1,2.243-.064,15.988,15.988,0,0,0,1.7.59l.394.107" transform="translate(58.092 30.222)" fill="url(#linear-gradient)"></path><path id="Path_159499" data-name="Path 159499" d="M69.453,51.112a15.1,15.1,0,0,0,1.905.767,13.084,13.084,0,0,0,2.753.583,11.575,11.575,0,0,0,1.526.055,10.594,10.594,0,0,0,1.53-.232A12.594,12.594,0,0,0,80.073,51.2a17.251,17.251,0,0,0,2.392-1.5,13.857,13.857,0,0,0,1.83-1.756l.314-.357c.533-.618.967-1.186,1.293-1.64.471-.656.715-1.076.715-1.076s-.079-.031-.221-.094l-.557-.215c-.3-.109-.673-.235-1.111-.368-.223-.061-.46-.129-.708-.2-.224-.055-.456-.11-.7-.171a18.875,18.875,0,0,0-4.765-.5,16.218,16.218,0,0,0-2.808.364A13.653,13.653,0,0,0,70.676,45.9c-.555.414-1.114.782-1.616,1.135l-.557.421c-.195.16-.382.313-.557.454a16.854,16.854,0,0,1-3.293.919,4.539,4.539,0,0,0-1.241.4l-.173.154.581.064c.36.05.826.088,1.306.121a7.818,7.818,0,0,1,2.332.394,16.8,16.8,0,0,0,1.615.956l.382.191" transform="translate(53.049 36.336)" fill="url(#linear-gradient)"></path><path id="Path_159500" data-name="Path 159500" d="M61.943,55.4a14.489,14.489,0,0,0,1.942,1.272A12.946,12.946,0,0,0,69.753,58.3a13.63,13.63,0,0,0,1.734-.061,11.18,11.18,0,0,0,1.638-.353,21.745,21.745,0,0,0,5.324-2.391c.147-.1.3-.177.434-.281.708-.535,1.3-1.039,1.749-1.445.651-.588,1.008-.975,1.008-.975l-.208-.14-.528-.329c-.285-.169-.645-.371-1.072-.592l-.69-.342-.686-.311a23.229,23.229,0,0,0-4.875-1.493,15.525,15.525,0,0,0-3.106-.309,21.713,21.713,0,0,0-5.747,1.043,19.788,19.788,0,0,0-2.17.815c-.237.109-.465.215-.684.316l-.691.351c-.4.285-2.584.081-3.748.031a3.5,3.5,0,0,0-1.414.088l-.219.121,1.933.645a9.414,9.414,0,0,1,2.387,1.041,17.652,17.652,0,0,0,1.464,1.381l.357.292" transform="translate(46.812 41.337)" fill="url(#linear-gradient)"></path><path id="Path_159501" data-name="Path 159501" d="M77.3,13.462a8.775,8.775,0,0,1-4.641-.756,3.516,3.516,0,0,1-1.046-.94,4.653,4.653,0,0,1-.936-2.148c-.013-.072-.024-.143-.037-.217-.046-.379-.107-.71-.118-.986a5.529,5.529,0,0,1-.009-.649l.171-.063c.1-.035.243-.085.419-.143.223-.072.5-.156.816-.241.162-.04.331-.083.508-.129l.491-.1a9.439,9.439,0,0,1,3.119-.145,4.339,4.339,0,0,1,1.543.519,4.745,4.745,0,0,1,2.157,3.531c.02.147.04.289.059.425.015.156.028.305.04.445a9.371,9.371,0,0,0,1.149,1.559c.294.39.359.579.348.673s-.018.158-.018.158a7.523,7.523,0,0,0-2.368-.964c-.368.057-.831.116-1.348.154l-.3.02" transform="translate(59.15 5.761)" fill="url(#linear-gradient)"></path><path id="Path_159502" data-name="Path 159502" d="M77.879,19.012a9.355,9.355,0,0,1-4.671-1.681,4.823,4.823,0,0,1-.958-1.173,5.174,5.174,0,0,1-.712-2.4l-.017-.23a7.478,7.478,0,0,1-.018-1.037,6.2,6.2,0,0,1,.068-.673s.066-.011.186-.035.265-.04.456-.072c.239-.033.539-.07.879-.1.173-.013.355-.024.544-.039l.524-.018a10.02,10.02,0,0,1,3.268.425,4.72,4.72,0,0,1,1.556.827,5.156,5.156,0,0,1,1.763,4.1c0,.156,0,.309,0,.456-.009.165-.017.325-.026.474a8.281,8.281,0,0,0,1.008,1.861c.268.465.316.677.3.772l-.037.164s-1.817-1.475-2.376-1.478c-.388-.011-.877-.04-1.42-.1l-.313-.037" transform="translate(59.974 9.687)" fill="url(#linear-gradient)"></path><path id="Path_159503" data-name="Path 159503" d="M77.589,25.3a14.757,14.757,0,0,1-2.433-1.079,9.245,9.245,0,0,1-2.14-1.662,5.1,5.1,0,0,1-.914-1.427,5.7,5.7,0,0,1-.388-2.65l.022-.243c.068-.421.05-.791.1-1.085a5.567,5.567,0,0,1,.127-.684h.2l.482.013c.254.011.57.031.93.066l.572.066c.177.026.36.053.548.083a10.716,10.716,0,0,1,3.361,1.094,5.643,5.643,0,0,1,1.456,1.184,6.736,6.736,0,0,1,1.359,4.7,3.611,3.611,0,0,1-.074.482c-.037.175-.074.34-.107.5a9.468,9.468,0,0,0,.706,2.188c.193.552.206.789.169.886s-.064.165-.064.165-.4-.5-.87-1a4.293,4.293,0,0,0-1.3-1.078c-.393-.1-.888-.23-1.432-.408l-.313-.1" transform="translate(60.143 13.817)" fill="url(#linear-gradient)"></path><path id="Path_159504" data-name="Path 159504" d="M75.964,32.22a13.151,13.151,0,0,1-4.2-3.948,5.828,5.828,0,0,1-.684-1.708,7.865,7.865,0,0,1,0-2.88c.011-.085.022-.169.035-.254a7.759,7.759,0,0,1,.25-1.118,6.307,6.307,0,0,1,.246-.688l.2.042.491.114c.257.066.577.153.938.267.182.061.373.125.576.191l.546.2a11.726,11.726,0,0,1,3.264,1.881,5.651,5.651,0,0,1,1.359,1.587,7.741,7.741,0,0,1,.561,5.3,3.012,3.012,0,0,1-.134.508l-.2.508a11.553,11.553,0,0,0,.322,2.512,1.954,1.954,0,0,1,.011.993c-.061.1-.1.162-.1.162s-.311-.629-.7-1.278a4.848,4.848,0,0,0-1.122-1.453c-.381-.191-.857-.447-1.375-.759l-.3-.184" transform="translate(59.512 18.14)" fill="url(#linear-gradient)"></path><path id="Path_159505" data-name="Path 159505" d="M72.826,39.087a18.342,18.342,0,0,1-1.951-2.332,12.864,12.864,0,0,1-1.469-2.813,6.865,6.865,0,0,1-.382-1.977,9.178,9.178,0,0,1,.506-3.065l.077-.263a8.929,8.929,0,0,1,.447-1.127,6.064,6.064,0,0,1,.37-.671s.07.029.2.086l.476.228c.25.125.557.287.9.484l.546.327c.166.109.338.219.517.335a12.6,12.6,0,0,1,2.962,2.716,6.147,6.147,0,0,1,1.07,1.992,8.58,8.58,0,0,1-.456,5.805l-.265.5c-.1.177-.2.346-.3.5a13.988,13.988,0,0,0-.167,2.793,2.277,2.277,0,0,1-.184,1.079c-.083.1-.127.158-.127.158s-.188-.754-.445-1.545a5.56,5.56,0,0,0-.837-1.824c-.346-.292-.77-.675-1.228-1.127-.088-.086-.176-.175-.263-.263" transform="translate(57.893 22.513)" fill="url(#linear-gradient)"></path><path id="Path_159506" data-name="Path 159506" d="M68.3,45.249A15.653,15.653,0,0,1,66,39.034a8.193,8.193,0,0,1-.006-2.2,9.461,9.461,0,0,1,1.1-3.168l.127-.263a9.237,9.237,0,0,1,.653-1.111,6.692,6.692,0,0,1,.493-.64l.182.134.436.34c.228.186.509.421.818.7.154.145.316.3.489.463.145.149.3.3.456.463a13.571,13.571,0,0,1,2.464,3.527,7.1,7.1,0,0,1,.647,2.339,8.768,8.768,0,0,1-.353,3.4,10.626,10.626,0,0,1-.565,1.5,13.394,13.394,0,0,1-.787,1.217c-.129.169-.25.333-.37.489l-.4.487a16.847,16.847,0,0,0-.761,3,2.031,2.031,0,0,1-.465,1.1l-.175.131s0-.2.006-.52a9.825,9.825,0,0,0-.053-1.2,6.381,6.381,0,0,0-.443-2.157c-.281-.39-.625-.892-.987-1.477l-.206-.34" transform="translate(55.303 26.548)" fill="url(#linear-gradient)"></path><path id="Path_159507" data-name="Path 159507" d="M62.194,50.618a18.271,18.271,0,0,1-.826-7.1,11.61,11.61,0,0,1,.59-2.232,9.187,9.187,0,0,1,1.776-3.139c.066-.077.136-.154.2-.23.178-.2.357-.371.52-.531.147-.175.285-.329.412-.462a6.44,6.44,0,0,1,.612-.579s.055.063.154.178l.362.454c.189.245.419.554.669.919.123.186.254.384.39.592.114.191.234.388.359.592a15.455,15.455,0,0,1,.967,1.953,11.876,11.876,0,0,1,.636,2.234,9.417,9.417,0,0,1,.1,2.613A8.267,8.267,0,0,1,67.969,49.4,14.072,14.072,0,0,1,65.9,51.929c-.166.156-.325.307-.48.451l-.513.443c-.283.311-1.092,1.957-1.615,2.894a3.023,3.023,0,0,1-.761,1.05l-.208.1s.23-.877.4-1.824a6.539,6.539,0,0,0,.171-2.295c-.178-.465-.386-1.059-.59-1.74-.037-.129-.075-.261-.114-.4" transform="translate(51.399 30.485)" fill="url(#linear-gradient)"></path><path id="Path_159508" data-name="Path 159508" d="M55.83,54.129a24.748,24.748,0,0,1,.195-3.637c.083-.638.206-1.258.353-1.9a13.546,13.546,0,0,1,.539-1.927,10.126,10.126,0,0,1,1.14-2.225,17.656,17.656,0,0,1,2.563-2.85c.083-.068.169-.136.254-.206a10.5,10.5,0,0,1,1.186-.809,7.43,7.43,0,0,1,.793-.414s.039.077.112.221.145.313.252.541c.129.289.281.653.438,1.079.077.215.156.445.241.688.066.217.136.441.208.675a14.45,14.45,0,0,1,.577,4.7,10.892,10.892,0,0,1-.517,2.8,9.81,9.81,0,0,1-2.142,3.317,11.113,11.113,0,0,1-2.744,2.227l-.627.324c-.234.108-.452.211-.66.307a22.754,22.754,0,0,0-2.427,2.7c-.609.719-.93.877-1.072.912l-.245.05.305-.52a11.689,11.689,0,0,0,.629-1.258,7.648,7.648,0,0,0,.787-2.4c-.053-.526-.1-1.2-.127-1.957l-.011-.441" transform="translate(45.507 33.693)" fill="url(#linear-gradient)"></path></g></g><path id="Path_184196" data-name="Path 184196" d="M1.377,0h3.7V-6.156H8.154c4.158,0,6.858-2.592,6.858-6.507s-2.7-6.507-6.858-6.507H1.377Zm3.7-9.558v-6.21H7.83c2,0,3.429.891,3.429,3.1,0,2.241-1.431,3.105-3.429,3.105ZM26.676.27a9.661,9.661,0,0,0,9.882-9.855,9.661,9.661,0,0,0-9.882-9.855,9.639,9.639,0,0,0-9.855,9.855A9.639,9.639,0,0,0,26.676.27ZM20.6-9.585a6.05,6.05,0,0,1,6.075-6.345,6.034,6.034,0,0,1,6.075,6.345A6.034,6.034,0,0,1,26.676-3.24,6.05,6.05,0,0,1,20.6-9.585ZM44.28.27C47.493.27,50.9-1.62,50.9-5.508c0-2.727-1.674-4.239-5.022-5.589l-1.3-.513C42.471-12.42,41.9-13.2,41.9-14.2c0-1.269,1.026-1.944,2.4-1.944a3.6,3.6,0,0,1,3.267,2.3l2.754-1.539a6.5,6.5,0,0,0-6.156-4.05c-3.24,0-5.913,2-5.913,5.211,0,2.916,2.16,4.374,4.779,5.427l1.215.459c1.944.783,2.781,1.4,2.781,2.808,0,1.674-1.3,2.457-2.808,2.457a3.916,3.916,0,0,1-3.7-2.808l-3,1.377C38.2-1.7,40.932.27,44.28.27ZM64.53,0h3.7V-19.17h-3.7v7.911H56.646V-19.17h-3.7V0h3.7V-7.857H64.53Z" transform="translate(40.894 40.414)" fill="#fff"></path><path id="Path_184197" data-name="Path 184197" d="M3.945-4.425.525,0H7.47V-1.485h-4l2.22-2.8c.84-1.065,1.785-2.1,1.785-3.555,0-1.68-1.29-2.955-3.36-2.955A3.161,3.161,0,0,0,.66-7.56v.42H2.34v-.27A1.673,1.673,0,0,1,4.08-9.24,1.509,1.509,0,0,1,5.715-7.62C5.715-6.63,5.13-5.97,3.945-4.425ZM14.22.15a5.329,5.329,0,0,0,5.4-5.475,5.329,5.329,0,0,0-5.4-5.475,5.329,5.329,0,0,0-5.4,5.475A5.329,5.329,0,0,0,14.22.15Zm-3.7-5.475a3.727,3.727,0,0,1,3.7-3.915,3.736,3.736,0,0,1,3.7,3.915,3.736,3.736,0,0,1-3.7,3.915A3.727,3.727,0,0,1,10.515-5.325Zm13.725.9L20.82,0h6.945V-1.485h-4l2.22-2.8c.84-1.065,1.785-2.1,1.785-3.555,0-1.68-1.29-2.955-3.36-2.955a3.161,3.161,0,0,0-3.45,3.24v.42h1.68v-.27a1.673,1.673,0,0,1,1.74-1.83A1.509,1.509,0,0,1,26.01-7.62C26.01-6.63,25.425-5.97,24.24-4.425ZM33.6,0H35.3V-2.55H36.42V-4H35.3V-10.65H33.6L29.04-4V-2.55H33.6ZM30.72-4,33.6-8.34V-4Z" transform="translate(59.768 66.82)" fill="#fff"></path></svg>