<svg xmlns="http://www.w3.org/2000/svg" xmlns:xlink="http://www.w3.org/1999/xlink" width="176.537" height="60.297" viewBox="0 0 176.537 60.297"><defs><clipPath id="clip-path"><rect id="Rectangle_22973" data-name="Rectangle 22973" width="176.537" height="60.297" transform="translate(2 4)" fill="#00375f"></rect></clipPath><clipPath id="clip-path-2"><rect id="Rectangle_22972" data-name="Rectangle 22972" width="199.421" height="75.297" fill="#00375f"></rect></clipPath><clipPath id="clip-path-3"><rect id="Rectangle_22971" data-name="Rectangle 22971" width="51.765" height="56.868" fill="#00375f"></rect></clipPath></defs><g id="Group_78610" data-name="Group 78610" transform="translate(-2 -4)"><g id="Group_67255" data-name="Group 67255" transform="translate(0)" clip-path="url(#clip-path)"><g id="Group_67254" data-name="Group 67254" transform="translate(-20.884 0)"><g id="Group_67253" data-name="Group 67253" clip-path="url(#clip-path-2)"><g id="Group_67252" data-name="Group 67252" transform="translate(24.415 5.665)" opacity="0.82"><g id="Group_67251" data-name="Group 67251" transform="translate(0)"><g id="Group_67250" data-name="Group 67250" clip-path="url(#clip-path-3)"><path id="Path_154256" data-name="Path 154256" d="M0,56.49s42.809,7.266,50.989-41.919S0,56.49,0,56.49" transform="translate(0 0)" fill="#00375f"></path></g></g></g><path id="Path_154257" data-name="Path 154257" d="M0,58.944s29.648-4.146,25.453-38.4S0,58.944,0,58.944" transform="translate(24.416 3.222)" fill="#00375f"></path><path id="Path_154258" data-name="Path 154258" d="M83.582,46.588V29.764a.874.874,0,0,1,.873-.874h1.9a.874.874,0,0,1,.873.874V46.588a.873.873,0,0,1-.873.873h-1.9a.873.873,0,0,1-.873-.873" transform="translate(3.28 -9.964)" fill="#00375f"></path><path id="Path_154259" data-name="Path 154259" d="M94.862,29.544a1.8,1.8,0,0,1-.151.655l-1.271,3.337a.873.873,0,0,1-.816.563h-.551a.873.873,0,0,1-.817-1.182l.307-.813a.884.884,0,0,0-.248-.97,2.361,2.361,0,0,1-.831-1.591,2.209,2.209,0,0,1,4.378,0" transform="translate(3.551 -10.013)" fill="#00375f"></path><path id="Path_154260" data-name="Path 154260" d="M118.2,29.788V46.613a.873.873,0,0,1-.873.873h-1.9a.873.873,0,0,1-.874-.873V38.338a.873.873,0,0,0-1.609-.47c-1.007,1.588-2.274,3.586-3.619,5.713a.875.875,0,0,1-.739.407h-.849a.872.872,0,0,1-.738-.407l-3.644-5.771a.873.873,0,0,0-1.611.466v8.338a.873.873,0,0,1-.875.873h-1.9a.873.873,0,0,1-.872-.873V29.788a.873.873,0,0,1,.872-.873h2.346a.875.875,0,0,1,.739.407l5.37,8.512a.873.873,0,0,0,1.477,0l5.372-8.512a.875.875,0,0,1,.739-.407h2.32a.873.873,0,0,1,.873.873" transform="translate(3.849 -9.963)" fill="#00375f"></path><path id="Path_154261" data-name="Path 154261" d="M131.983,33.953c.2,2.19,7.952,2.089,10.443,4.831a5.108,5.108,0,0,1,1.333,3.422,4.481,4.481,0,0,1-.2,1.409c-.63,2.24-2.945,3.422-5.008,3.8a9.97,9.97,0,0,1-2.089.2,14.124,14.124,0,0,1-5.108-1.031,23.605,23.605,0,0,1-3.276-1.833.876.876,0,0,1-.217-1.2L128.908,42a.879.879,0,0,1,1.284-.18,11.667,11.667,0,0,0,6.85,2.473c1.786,0,2.919-.478,3.095-2.038v-.025c0-3.172-6.29-2.215-9.838-4.707a4.658,4.658,0,0,1-2.039-3.775,3.855,3.855,0,0,1,.177-1.183c.579-2.063,2.768-3.27,4.681-3.624a14.928,14.928,0,0,1,7.783,1.039c.029.012.056.026.084.041a16.191,16.191,0,0,1,1.747,1.024.87.87,0,0,1,.211,1.189l-.861,1.291a.873.873,0,0,1-1.187.255A11.854,11.854,0,0,0,134.9,32.09c-1.837,0-2.919.4-2.919,1.636Z" transform="translate(5.011 -9.969)" fill="#00375f"></path><path id="Path_154262" data-name="Path 154262" d="M154.171,29.473l6.5,16.825a.873.873,0,0,1-.815,1.188h-2a.873.873,0,0,1-.815-.56l-1.407-3.661a.872.872,0,0,0-.815-.56h-5.192a.874.874,0,0,0-.816.56L147.4,46.926a.875.875,0,0,1-.816.56h-2a.874.874,0,0,1-.815-1.188l6.5-16.825a.873.873,0,0,1,.815-.558h2.275a.872.872,0,0,1,.815.558m-.448,8.848-.689-1.785a.873.873,0,0,0-1.63,0l-.69,1.785a.874.874,0,0,0,.815,1.188h1.379a.873.873,0,0,0,.815-1.188" transform="translate(5.639 -9.963)" fill="#00375f"></path><path id="Path_154263" data-name="Path 154263" d="M165.5,36.44h6.759a.873.873,0,0,1,.873.873v1.425a.873.873,0,0,1-.873.873H165.5a.873.873,0,0,0-.873.873v6.106a.873.873,0,0,1-.874.873h-1.9a.873.873,0,0,1-.873-.873V29.764a.873.873,0,0,1,.873-.873h11.716a.873.873,0,0,1,.873.873v1.45a.873.873,0,0,1-.873.873H165.5a.873.873,0,0,0-.873.873v2.607a.873.873,0,0,0,.873.873" transform="translate(6.317 -9.964)" fill="#00375f"></path><path id="Path_154264" data-name="Path 154264" d="M179.4,32.96v2.606a.873.873,0,0,0,.873.874h6.784a.874.874,0,0,1,.874.873v1.425a.874.874,0,0,1-.874.873h-6.784a.873.873,0,0,0-.873.873v2.934a.874.874,0,0,0,.873.874h8.092a.874.874,0,0,1,.874.873v1.45a.874.874,0,0,1-.874.873h-11.1v-.025h-.637a.874.874,0,0,1-.873-.874V29.764a.873.873,0,0,1,.873-.873h11.741a.874.874,0,0,1,.874.873v1.449a.874.874,0,0,1-.874.874h-8.092a.873.873,0,0,0-.873.873" transform="translate(6.897 -9.964)" fill="#00375f"></path></g></g></g><text id="Organisation" transform="translate(65.603 58.467)" fill="#1d1d1d" font-size="11" font-family="VisbyCF-Bold, Visby CF" font-weight="700"><tspan x="0" y="0">ORGANISATION</tspan></text></g></svg>