<svg xmlns="http://www.w3.org/2000/svg" xmlns:xlink="http://www.w3.org/1999/xlink" id="Group_73147" data-name="Group 73147" width="110.799" height="73.781" viewBox="0 0 110.799 73.781"><defs><linearGradient id="linear-gradient" x1="0.5" x2="0.5" y2="1" gradientUnits="objectBoundingBox"><stop offset="0" stop-color="#3291e2"></stop><stop offset="1" stop-color="#71b5f5"></stop></linearGradient><linearGradient id="linear-gradient-2" x1="0.5" y1="1" x2="0.5" gradientUnits="objectBoundingBox"><stop offset="0" stop-color="#e23288"></stop><stop offset="1" stop-color="#ff60ae"></stop></linearGradient></defs><g id="Group_45112" data-name="Group 45112" transform="translate(36.799 0)"><text id="enFor" transform="translate(0 32)" fill="#fff" font-size="28" font-family="VisbyCF-Bold, Visby CF" font-weight="700"><tspan x="0" y="0">enFor</tspan></text><text id="omen" transform="translate(1.548 62.781)" fill="#fff" font-size="27" font-family="VisbyCF-Bold, Visby CF" font-weight="700"><tspan x="0" y="0">omen</tspan></text></g><path id="Path_138227" data-name="Path 138227" d="M9.143-22h4.228L19.578-5.674,25.823-22h4.189L38.585,2.249H33L27.568-13.906,21.711,2.249H17.483l-5.9-16.155L6.195,2.249H.609Z" transform="translate(-0.609 38.488)" fill="url(#linear-gradient)"></path><path id="Path_138228" data-name="Path 138228" d="M9.143,2.249h4.228l6.206-16.325L25.823,2.249h4.189L38.584-22H33L27.568-5.845,21.711-22H17.483l-5.9,16.155L6.195-22H.609Z" transform="translate(-0.609 67.035)" fill="url(#linear-gradient-2)"></path></svg>