<svg xmlns="http://www.w3.org/2000/svg" xmlns:xlink="http://www.w3.org/1999/xlink" width="1085" height="588" viewBox="0 0 1085 588"><defs><clipPath id="clip-path"><rect id="abstract-13-light-background-wallpaper-colorful-gradient-blurry-soft-smooth-motion-bright-shine" width="1085" height="587" fill="#fff"></rect></clipPath></defs><g id="Group_78267" data-name="Group 78267" transform="translate(-294 -7434)"><rect id="Rectangle_26281" data-name="Rectangle 26281" width="1085" height="588" rx="35" transform="translate(294 7434)" fill="#6e5cfc"></rect><g id="Mask_Group_36994" data-name="Mask Group 36994" transform="translate(294 7434)" opacity="0.212" clip-path="url(#clip-path)" style="mix-blend-mode: overlay;isolation: isolate"><g id="Group_73178" data-name="Group 73178" transform="translate(-92.587 0)"><ellipse id="Ellipse_6312" data-name="Ellipse 6312" cx="33.756" cy="35" rx="33.756" ry="35" fill="#fff"></ellipse><ellipse id="Ellipse_6313" data-name="Ellipse 6313" cx="33.756" cy="34.5" rx="33.756" ry="34.5" transform="translate(0 70)" fill="#fff"></ellipse><ellipse id="Ellipse_6314" data-name="Ellipse 6314" cx="33.756" cy="35.5" rx="33.756" ry="35.5" transform="translate(0 139)" fill="#fff"></ellipse><ellipse id="Ellipse_6315" data-name="Ellipse 6315" cx="33.756" cy="35" rx="33.756" ry="35" transform="translate(0 210)" fill="#fff"></ellipse><ellipse id="Ellipse_6316" data-name="Ellipse 6316" cx="33.756" cy="35" rx="33.756" ry="35" transform="translate(0 280)" fill="#fff"></ellipse><ellipse id="Ellipse_6317" data-name="Ellipse 6317" cx="33.756" cy="34.5" rx="33.756" ry="34.5" transform="translate(0 350)" fill="#fff"></ellipse><ellipse id="Ellipse_6318" data-name="Ellipse 6318" cx="33.756" cy="35.5" rx="33.756" ry="35.5" transform="translate(0 419)" fill="#fff"></ellipse><ellipse id="Ellipse_6319" data-name="Ellipse 6319" cx="33.756" cy="34.5" rx="33.756" ry="34.5" transform="translate(0 490)" fill="#fff"></ellipse><ellipse id="Ellipse_6320" data-name="Ellipse 6320" cx="33.756" cy="35" rx="33.756" ry="35" transform="translate(0 559)" fill="#fff"></ellipse><ellipse id="Ellipse_6321" data-name="Ellipse 6321" cx="33.273" cy="35" rx="33.273" ry="35" transform="translate(67.511)" fill="#fff"></ellipse><ellipse id="Ellipse_6322" data-name="Ellipse 6322" cx="33.273" cy="34.5" rx="33.273" ry="34.5" transform="translate(67.511 70)" fill="#fff"></ellipse><ellipse id="Ellipse_6323" data-name="Ellipse 6323" cx="33.273" cy="35.5" rx="33.273" ry="35.5" transform="translate(67.511 139)" fill="#fff"></ellipse><ellipse id="Ellipse_6324" data-name="Ellipse 6324" cx="33.273" cy="35" rx="33.273" ry="35" transform="translate(67.511 210)" fill="#fff"></ellipse><ellipse id="Ellipse_6325" data-name="Ellipse 6325" cx="33.273" cy="35" rx="33.273" ry="35" transform="translate(67.511 280)" fill="#fff"></ellipse><ellipse id="Ellipse_6326" data-name="Ellipse 6326" cx="33.273" cy="34.5" rx="33.273" ry="34.5" transform="translate(67.511 350)" fill="#fff"></ellipse><ellipse id="Ellipse_6327" data-name="Ellipse 6327" cx="33.273" cy="35.5" rx="33.273" ry="35.5" transform="translate(67.511 419)" fill="#fff"></ellipse><ellipse id="Ellipse_6328" data-name="Ellipse 6328" cx="33.273" cy="34.5" rx="33.273" ry="34.5" transform="translate(67.511 490)" fill="#fff"></ellipse><ellipse id="Ellipse_6329" data-name="Ellipse 6329" cx="33.273" cy="35" rx="33.273" ry="35" transform="translate(67.511 559)" fill="#fff"></ellipse><ellipse id="Ellipse_6330" data-name="Ellipse 6330" cx="34.238" cy="35" rx="34.238" ry="35" transform="translate(134.058)" fill="#fff"></ellipse><ellipse id="Ellipse_6331" data-name="Ellipse 6331" cx="34.238" cy="34.5" rx="34.238" ry="34.5" transform="translate(134.058 70)" fill="#fff"></ellipse><ellipse id="Ellipse_6332" data-name="Ellipse 6332" cx="34.238" cy="35.5" rx="34.238" ry="35.5" transform="translate(134.058 139)" fill="#fff"></ellipse><ellipse id="Ellipse_6333" data-name="Ellipse 6333" cx="34.238" cy="35" rx="34.238" ry="35" transform="translate(134.058 210)" fill="#fff"></ellipse><ellipse id="Ellipse_6334" data-name="Ellipse 6334" cx="34.238" cy="35" rx="34.238" ry="35" transform="translate(134.058 280)" fill="#fff"></ellipse><ellipse id="Ellipse_6335" data-name="Ellipse 6335" cx="34.238" cy="34.5" rx="34.238" ry="34.5" transform="translate(134.058 350)" fill="#fff"></ellipse><ellipse id="Ellipse_6336" data-name="Ellipse 6336" cx="34.238" cy="35.5" rx="34.238" ry="35.5" transform="translate(134.058 419)" fill="#fff"></ellipse><ellipse id="Ellipse_6337" data-name="Ellipse 6337" cx="34.238" cy="34.5" rx="34.238" ry="34.5" transform="translate(134.058 490)" fill="#fff"></ellipse><ellipse id="Ellipse_6338" data-name="Ellipse 6338" cx="34.238" cy="35" rx="34.238" ry="35" transform="translate(134.058 559)" fill="#fff"></ellipse><ellipse id="Ellipse_6339" data-name="Ellipse 6339" cx="33.756" cy="35" rx="33.756" ry="35" transform="translate(202.533)" fill="#fff"></ellipse><ellipse id="Ellipse_6340" data-name="Ellipse 6340" cx="33.756" cy="34.5" rx="33.756" ry="34.5" transform="translate(202.533 70)" fill="#fff"></ellipse><ellipse id="Ellipse_6341" data-name="Ellipse 6341" cx="33.756" cy="35.5" rx="33.756" ry="35.5" transform="translate(202.533 139)" fill="#fff"></ellipse><ellipse id="Ellipse_6342" data-name="Ellipse 6342" cx="33.756" cy="35" rx="33.756" ry="35" transform="translate(202.533 210)" fill="#fff"></ellipse><ellipse id="Ellipse_6343" data-name="Ellipse 6343" cx="33.756" cy="35" rx="33.756" ry="35" transform="translate(202.533 280)" fill="#fff"></ellipse><ellipse id="Ellipse_6344" data-name="Ellipse 6344" cx="33.756" cy="34.5" rx="33.756" ry="34.5" transform="translate(202.533 350)" fill="#fff"></ellipse><ellipse id="Ellipse_6345" data-name="Ellipse 6345" cx="33.756" cy="35.5" rx="33.756" ry="35.5" transform="translate(202.533 419)" fill="#fff"></ellipse><ellipse id="Ellipse_6346" data-name="Ellipse 6346" cx="33.756" cy="34.5" rx="33.756" ry="34.5" transform="translate(202.533 490)" fill="#fff"></ellipse><ellipse id="Ellipse_6347" data-name="Ellipse 6347" cx="33.756" cy="35" rx="33.756" ry="35" transform="translate(202.533 559)" fill="#fff"></ellipse><ellipse id="Ellipse_6348" data-name="Ellipse 6348" cx="33.756" cy="35" rx="33.756" ry="35" transform="translate(270.044)" fill="#fff"></ellipse><ellipse id="Ellipse_6349" data-name="Ellipse 6349" cx="33.756" cy="34.5" rx="33.756" ry="34.5" transform="translate(270.044 70)" fill="#fff"></ellipse><ellipse id="Ellipse_6350" data-name="Ellipse 6350" cx="33.756" cy="35.5" rx="33.756" ry="35.5" transform="translate(270.044 139)" fill="#fff"></ellipse><ellipse id="Ellipse_6351" data-name="Ellipse 6351" cx="33.756" cy="35" rx="33.756" ry="35" transform="translate(270.044 210)" fill="#fff"></ellipse><ellipse id="Ellipse_6352" data-name="Ellipse 6352" cx="33.756" cy="35" rx="33.756" ry="35" transform="translate(270.044 280)" fill="#fff"></ellipse><ellipse id="Ellipse_6353" data-name="Ellipse 6353" cx="33.756" cy="34.5" rx="33.756" ry="34.5" transform="translate(270.044 350)" fill="#fff"></ellipse><ellipse id="Ellipse_6354" data-name="Ellipse 6354" cx="33.756" cy="35.5" rx="33.756" ry="35.5" transform="translate(270.044 419)" fill="#fff"></ellipse><ellipse id="Ellipse_6355" data-name="Ellipse 6355" cx="33.756" cy="34.5" rx="33.756" ry="34.5" transform="translate(270.044 490)" fill="#fff"></ellipse><ellipse id="Ellipse_6356" data-name="Ellipse 6356" cx="33.756" cy="35" rx="33.756" ry="35" transform="translate(270.044 559)" fill="#fff"></ellipse><ellipse id="Ellipse_6357" data-name="Ellipse 6357" cx="33.273" cy="35" rx="33.273" ry="35" transform="translate(337.556)" fill="#fff"></ellipse><ellipse id="Ellipse_6358" data-name="Ellipse 6358" cx="33.273" cy="34.5" rx="33.273" ry="34.5" transform="translate(337.556 70)" fill="#fff"></ellipse><ellipse id="Ellipse_6359" data-name="Ellipse 6359" cx="33.273" cy="35.5" rx="33.273" ry="35.5" transform="translate(337.556 139)" fill="#fff"></ellipse><ellipse id="Ellipse_6360" data-name="Ellipse 6360" cx="33.273" cy="35" rx="33.273" ry="35" transform="translate(337.556 210)" fill="#fff"></ellipse><ellipse id="Ellipse_6361" data-name="Ellipse 6361" cx="33.273" cy="35" rx="33.273" ry="35" transform="translate(337.556 280)" fill="#fff"></ellipse><ellipse id="Ellipse_6362" data-name="Ellipse 6362" cx="33.273" cy="34.5" rx="33.273" ry="34.5" transform="translate(337.556 350)" fill="#fff"></ellipse><ellipse id="Ellipse_6363" data-name="Ellipse 6363" cx="33.273" cy="35.5" rx="33.273" ry="35.5" transform="translate(337.556 419)" fill="#fff"></ellipse><ellipse id="Ellipse_6364" data-name="Ellipse 6364" cx="33.273" cy="34.5" rx="33.273" ry="34.5" transform="translate(337.556 490)" fill="#fff"></ellipse><ellipse id="Ellipse_6365" data-name="Ellipse 6365" cx="33.273" cy="35" rx="33.273" ry="35" transform="translate(337.556 559)" fill="#fff"></ellipse><ellipse id="Ellipse_6366" data-name="Ellipse 6366" cx="34.238" cy="35" rx="34.238" ry="35" transform="translate(404.102)" fill="#fff"></ellipse><ellipse id="Ellipse_6367" data-name="Ellipse 6367" cx="34.238" cy="34.5" rx="34.238" ry="34.5" transform="translate(404.102 70)" fill="#fff"></ellipse><ellipse id="Ellipse_6368" data-name="Ellipse 6368" cx="34.238" cy="35.5" rx="34.238" ry="35.5" transform="translate(404.102 139)" fill="#fff"></ellipse><ellipse id="Ellipse_6369" data-name="Ellipse 6369" cx="34.238" cy="35" rx="34.238" ry="35" transform="translate(404.102 210)" fill="#fff"></ellipse><ellipse id="Ellipse_6370" data-name="Ellipse 6370" cx="34.238" cy="35" rx="34.238" ry="35" transform="translate(404.102 280)" fill="#fff"></ellipse><ellipse id="Ellipse_6371" data-name="Ellipse 6371" cx="34.238" cy="34.5" rx="34.238" ry="34.5" transform="translate(404.102 350)" fill="#fff"></ellipse><ellipse id="Ellipse_6372" data-name="Ellipse 6372" cx="34.238" cy="35.5" rx="34.238" ry="35.5" transform="translate(404.102 419)" fill="#fff"></ellipse><ellipse id="Ellipse_6373" data-name="Ellipse 6373" cx="34.238" cy="34.5" rx="34.238" ry="34.5" transform="translate(404.102 490)" fill="#fff"></ellipse><ellipse id="Ellipse_6374" data-name="Ellipse 6374" cx="34.238" cy="35" rx="34.238" ry="35" transform="translate(404.102 559)" fill="#fff"></ellipse><ellipse id="Ellipse_6375" data-name="Ellipse 6375" cx="33.273" cy="35" rx="33.273" ry="35" transform="translate(472.578)" fill="#fff"></ellipse><ellipse id="Ellipse_6376" data-name="Ellipse 6376" cx="33.756" cy="35" rx="33.756" ry="35" transform="translate(539.124)" fill="#fff"></ellipse><ellipse id="Ellipse_6377" data-name="Ellipse 6377" cx="33.273" cy="35" rx="33.273" ry="35" transform="translate(606.636)" fill="#fff"></ellipse><ellipse id="Ellipse_6378" data-name="Ellipse 6378" cx="33.273" cy="35" rx="33.273" ry="35" transform="translate(673.182)" fill="#fff"></ellipse><ellipse id="Ellipse_6379" data-name="Ellipse 6379" cx="33.756" cy="35" rx="33.756" ry="35" transform="translate(739.729)" fill="#fff"></ellipse><ellipse id="Ellipse_6380" data-name="Ellipse 6380" cx="33.756" cy="35" rx="33.756" ry="35" transform="translate(807.24)" fill="#fff"></ellipse><ellipse id="Ellipse_6381" data-name="Ellipse 6381" cx="33.273" cy="35" rx="33.273" ry="35" transform="translate(874.751)" fill="#fff"></ellipse><ellipse id="Ellipse_6382" data-name="Ellipse 6382" cx="33.273" cy="35" rx="33.273" ry="35" transform="translate(941.298)" fill="#fff"></ellipse><ellipse id="Ellipse_6383" data-name="Ellipse 6383" cx="33.756" cy="35" rx="33.756" ry="35" transform="translate(1007.844)" fill="#fff"></ellipse><ellipse id="Ellipse_6384" data-name="Ellipse 6384" cx="33.756" cy="35" rx="33.756" ry="35" transform="translate(1075.356)" fill="#fff"></ellipse><ellipse id="Ellipse_6385" data-name="Ellipse 6385" cx="33.273" cy="35" rx="33.273" ry="35" transform="translate(1137.08)" fill="#fff"></ellipse><ellipse id="Ellipse_6386" data-name="Ellipse 6386" cx="33.756" cy="35" rx="33.756" ry="35" transform="translate(1203.627)" fill="#fff"></ellipse><ellipse id="Ellipse_6387" data-name="Ellipse 6387" cx="33.273" cy="34.5" rx="33.273" ry="34.5" transform="translate(472.578 70)" fill="#fff"></ellipse><ellipse id="Ellipse_6388" data-name="Ellipse 6388" cx="33.756" cy="34.5" rx="33.756" ry="34.5" transform="translate(539.124 70)" fill="#fff"></ellipse><ellipse id="Ellipse_6389" data-name="Ellipse 6389" cx="33.273" cy="34.5" rx="33.273" ry="34.5" transform="translate(606.636 70)" fill="#fff"></ellipse><ellipse id="Ellipse_6390" data-name="Ellipse 6390" cx="33.273" cy="34.5" rx="33.273" ry="34.5" transform="translate(673.182 70)" fill="#fff"></ellipse><ellipse id="Ellipse_6391" data-name="Ellipse 6391" cx="33.756" cy="34.5" rx="33.756" ry="34.5" transform="translate(739.729 70)" fill="#fff"></ellipse><ellipse id="Ellipse_6392" data-name="Ellipse 6392" cx="33.756" cy="34.5" rx="33.756" ry="34.5" transform="translate(807.24 70)" fill="#fff"></ellipse><ellipse id="Ellipse_6393" data-name="Ellipse 6393" cx="33.273" cy="34.5" rx="33.273" ry="34.5" transform="translate(874.751 70)" fill="#fff"></ellipse><ellipse id="Ellipse_6394" data-name="Ellipse 6394" cx="33.273" cy="34.5" rx="33.273" ry="34.5" transform="translate(941.298 70)" fill="#fff"></ellipse><ellipse id="Ellipse_6395" data-name="Ellipse 6395" cx="33.756" cy="34.5" rx="33.756" ry="34.5" transform="translate(1007.844 70)" fill="#fff"></ellipse><ellipse id="Ellipse_6396" data-name="Ellipse 6396" cx="33.756" cy="34.5" rx="33.756" ry="34.5" transform="translate(1075.356 70)" fill="#fff"></ellipse><ellipse id="Ellipse_6397" data-name="Ellipse 6397" cx="33.273" cy="34.5" rx="33.273" ry="34.5" transform="translate(1137.08 70)" fill="#fff"></ellipse><ellipse id="Ellipse_6398" data-name="Ellipse 6398" cx="33.756" cy="34.5" rx="33.756" ry="34.5" transform="translate(1203.627 70)" fill="#fff"></ellipse><ellipse id="Ellipse_6399" data-name="Ellipse 6399" cx="33.273" cy="35.5" rx="33.273" ry="35.5" transform="translate(472.578 139)" fill="#fff"></ellipse><ellipse id="Ellipse_6400" data-name="Ellipse 6400" cx="33.756" cy="35.5" rx="33.756" ry="35.5" transform="translate(539.124 139)" fill="#fff"></ellipse><ellipse id="Ellipse_6401" data-name="Ellipse 6401" cx="33.273" cy="35.5" rx="33.273" ry="35.5" transform="translate(606.636 139)" fill="#fff"></ellipse><ellipse id="Ellipse_6402" data-name="Ellipse 6402" cx="33.273" cy="35.5" rx="33.273" ry="35.5" transform="translate(673.182 139)" fill="#fff"></ellipse><ellipse id="Ellipse_6403" data-name="Ellipse 6403" cx="33.756" cy="35.5" rx="33.756" ry="35.5" transform="translate(739.729 139)" fill="#fff"></ellipse><ellipse id="Ellipse_6404" data-name="Ellipse 6404" cx="33.756" cy="35.5" rx="33.756" ry="35.5" transform="translate(807.24 139)" fill="#fff"></ellipse><ellipse id="Ellipse_6405" data-name="Ellipse 6405" cx="33.273" cy="35.5" rx="33.273" ry="35.5" transform="translate(874.751 139)" fill="#fff"></ellipse><ellipse id="Ellipse_6406" data-name="Ellipse 6406" cx="33.273" cy="35.5" rx="33.273" ry="35.5" transform="translate(941.298 139)" fill="#fff"></ellipse><ellipse id="Ellipse_6407" data-name="Ellipse 6407" cx="33.756" cy="35.5" rx="33.756" ry="35.5" transform="translate(1007.844 139)" fill="#fff"></ellipse><ellipse id="Ellipse_6408" data-name="Ellipse 6408" cx="33.756" cy="35.5" rx="33.756" ry="35.5" transform="translate(1075.356 139)" fill="#fff"></ellipse><ellipse id="Ellipse_6409" data-name="Ellipse 6409" cx="33.273" cy="35.5" rx="33.273" ry="35.5" transform="translate(1137.08 139)" fill="#fff"></ellipse><ellipse id="Ellipse_6410" data-name="Ellipse 6410" cx="33.756" cy="35.5" rx="33.756" ry="35.5" transform="translate(1203.627 139)" fill="#fff"></ellipse><ellipse id="Ellipse_6411" data-name="Ellipse 6411" cx="33.273" cy="35" rx="33.273" ry="35" transform="translate(472.578 210)" fill="#fff"></ellipse><ellipse id="Ellipse_6412" data-name="Ellipse 6412" cx="33.756" cy="35" rx="33.756" ry="35" transform="translate(539.124 210)" fill="#fff"></ellipse><ellipse id="Ellipse_6413" data-name="Ellipse 6413" cx="33.273" cy="35" rx="33.273" ry="35" transform="translate(606.636 210)" fill="#fff"></ellipse><ellipse id="Ellipse_6414" data-name="Ellipse 6414" cx="33.273" cy="35" rx="33.273" ry="35" transform="translate(673.182 210)" fill="#fff"></ellipse><ellipse id="Ellipse_6415" data-name="Ellipse 6415" cx="33.756" cy="35" rx="33.756" ry="35" transform="translate(739.729 210)" fill="#fff"></ellipse><ellipse id="Ellipse_6416" data-name="Ellipse 6416" cx="33.756" cy="35" rx="33.756" ry="35" transform="translate(807.24 210)" fill="#fff"></ellipse><ellipse id="Ellipse_6417" data-name="Ellipse 6417" cx="33.273" cy="35" rx="33.273" ry="35" transform="translate(874.751 210)" fill="#fff"></ellipse><ellipse id="Ellipse_6418" data-name="Ellipse 6418" cx="33.273" cy="35" rx="33.273" ry="35" transform="translate(941.298 210)" fill="#fff"></ellipse><ellipse id="Ellipse_6419" data-name="Ellipse 6419" cx="33.756" cy="35" rx="33.756" ry="35" transform="translate(1007.844 210)" fill="#fff"></ellipse><ellipse id="Ellipse_6420" data-name="Ellipse 6420" cx="33.756" cy="35" rx="33.756" ry="35" transform="translate(1075.356 210)" fill="#fff"></ellipse><ellipse id="Ellipse_6421" data-name="Ellipse 6421" cx="33.273" cy="35" rx="33.273" ry="35" transform="translate(1137.08 210)" fill="#fff"></ellipse><ellipse id="Ellipse_6422" data-name="Ellipse 6422" cx="33.756" cy="35" rx="33.756" ry="35" transform="translate(1203.627 210)" fill="#fff"></ellipse><ellipse id="Ellipse_6423" data-name="Ellipse 6423" cx="33.273" cy="35" rx="33.273" ry="35" transform="translate(472.578 280)" fill="#fff"></ellipse><ellipse id="Ellipse_6424" data-name="Ellipse 6424" cx="33.756" cy="35" rx="33.756" ry="35" transform="translate(539.124 280)" fill="#fff"></ellipse><ellipse id="Ellipse_6425" data-name="Ellipse 6425" cx="33.273" cy="35" rx="33.273" ry="35" transform="translate(606.636 280)" fill="#fff"></ellipse><ellipse id="Ellipse_6426" data-name="Ellipse 6426" cx="33.273" cy="35" rx="33.273" ry="35" transform="translate(673.182 280)" fill="#fff"></ellipse><ellipse id="Ellipse_6427" data-name="Ellipse 6427" cx="33.756" cy="35" rx="33.756" ry="35" transform="translate(739.729 280)" fill="#fff"></ellipse><ellipse id="Ellipse_6428" data-name="Ellipse 6428" cx="33.756" cy="35" rx="33.756" ry="35" transform="translate(807.24 280)" fill="#fff"></ellipse><ellipse id="Ellipse_6429" data-name="Ellipse 6429" cx="33.273" cy="35" rx="33.273" ry="35" transform="translate(874.751 280)" fill="#fff"></ellipse><ellipse id="Ellipse_6430" data-name="Ellipse 6430" cx="33.273" cy="35" rx="33.273" ry="35" transform="translate(941.298 280)" fill="#fff"></ellipse><ellipse id="Ellipse_6431" data-name="Ellipse 6431" cx="33.756" cy="35" rx="33.756" ry="35" transform="translate(1007.844 280)" fill="#fff"></ellipse><ellipse id="Ellipse_6432" data-name="Ellipse 6432" cx="33.756" cy="35" rx="33.756" ry="35" transform="translate(1075.356 280)" fill="#fff"></ellipse><ellipse id="Ellipse_6433" data-name="Ellipse 6433" cx="33.273" cy="35" rx="33.273" ry="35" transform="translate(1137.08 280)" fill="#fff"></ellipse><ellipse id="Ellipse_6434" data-name="Ellipse 6434" cx="33.756" cy="35" rx="33.756" ry="35" transform="translate(1203.627 280)" fill="#fff"></ellipse><ellipse id="Ellipse_6435" data-name="Ellipse 6435" cx="33.273" cy="34.5" rx="33.273" ry="34.5" transform="translate(472.578 350)" fill="#fff"></ellipse><ellipse id="Ellipse_6436" data-name="Ellipse 6436" cx="33.756" cy="34.5" rx="33.756" ry="34.5" transform="translate(539.124 350)" fill="#fff"></ellipse><ellipse id="Ellipse_6437" data-name="Ellipse 6437" cx="33.273" cy="34.5" rx="33.273" ry="34.5" transform="translate(606.636 350)" fill="#fff"></ellipse><ellipse id="Ellipse_6438" data-name="Ellipse 6438" cx="33.273" cy="34.5" rx="33.273" ry="34.5" transform="translate(673.182 350)" fill="#fff"></ellipse><ellipse id="Ellipse_6439" data-name="Ellipse 6439" cx="33.756" cy="34.5" rx="33.756" ry="34.5" transform="translate(739.729 350)" fill="#fff"></ellipse><ellipse id="Ellipse_6440" data-name="Ellipse 6440" cx="33.756" cy="34.5" rx="33.756" ry="34.5" transform="translate(807.24 350)" fill="#fff"></ellipse><ellipse id="Ellipse_6441" data-name="Ellipse 6441" cx="33.273" cy="34.5" rx="33.273" ry="34.5" transform="translate(874.751 350)" fill="#fff"></ellipse><ellipse id="Ellipse_6442" data-name="Ellipse 6442" cx="33.273" cy="34.5" rx="33.273" ry="34.5" transform="translate(941.298 350)" fill="#fff"></ellipse><ellipse id="Ellipse_6443" data-name="Ellipse 6443" cx="33.756" cy="34.5" rx="33.756" ry="34.5" transform="translate(1007.844 350)" fill="#fff"></ellipse><ellipse id="Ellipse_6444" data-name="Ellipse 6444" cx="33.756" cy="34.5" rx="33.756" ry="34.5" transform="translate(1075.356 350)" fill="#fff"></ellipse><ellipse id="Ellipse_6445" data-name="Ellipse 6445" cx="33.273" cy="34.5" rx="33.273" ry="34.5" transform="translate(1137.08 350)" fill="#fff"></ellipse><ellipse id="Ellipse_6446" data-name="Ellipse 6446" cx="33.756" cy="34.5" rx="33.756" ry="34.5" transform="translate(1203.627 350)" fill="#fff"></ellipse><ellipse id="Ellipse_6447" data-name="Ellipse 6447" cx="33.273" cy="35.5" rx="33.273" ry="35.5" transform="translate(472.578 419)" fill="#fff"></ellipse><ellipse id="Ellipse_6448" data-name="Ellipse 6448" cx="33.756" cy="35.5" rx="33.756" ry="35.5" transform="translate(539.124 419)" fill="#fff"></ellipse><ellipse id="Ellipse_6449" data-name="Ellipse 6449" cx="33.756" cy="35" rx="33.756" ry="35" transform="translate(539.124 490)" fill="#fff"></ellipse><ellipse id="Ellipse_6450" data-name="Ellipse 6450" cx="33.756" cy="35" rx="33.756" ry="35" transform="translate(539.124 559)" fill="#fff"></ellipse><ellipse id="Ellipse_6451" data-name="Ellipse 6451" cx="33.273" cy="35.5" rx="33.273" ry="35.5" transform="translate(606.636 419)" fill="#fff"></ellipse><ellipse id="Ellipse_6452" data-name="Ellipse 6452" cx="33.273" cy="35" rx="33.273" ry="35" transform="translate(606.636 490)" fill="#fff"></ellipse><ellipse id="Ellipse_6453" data-name="Ellipse 6453" cx="33.273" cy="35" rx="33.273" ry="35" transform="translate(606.636 559)" fill="#fff"></ellipse><ellipse id="Ellipse_6454" data-name="Ellipse 6454" cx="33.273" cy="35.5" rx="33.273" ry="35.5" transform="translate(673.182 419)" fill="#fff"></ellipse><ellipse id="Ellipse_6455" data-name="Ellipse 6455" cx="33.273" cy="35" rx="33.273" ry="35" transform="translate(673.182 490)" fill="#fff"></ellipse><ellipse id="Ellipse_6456" data-name="Ellipse 6456" cx="33.273" cy="35" rx="33.273" ry="35" transform="translate(673.182 559)" fill="#fff"></ellipse><ellipse id="Ellipse_6457" data-name="Ellipse 6457" cx="33.756" cy="35.5" rx="33.756" ry="35.5" transform="translate(739.729 419)" fill="#fff"></ellipse><ellipse id="Ellipse_6458" data-name="Ellipse 6458" cx="33.756" cy="35" rx="33.756" ry="35" transform="translate(739.729 490)" fill="#fff"></ellipse><ellipse id="Ellipse_6459" data-name="Ellipse 6459" cx="33.756" cy="35" rx="33.756" ry="35" transform="translate(739.729 559)" fill="#fff"></ellipse><ellipse id="Ellipse_6460" data-name="Ellipse 6460" cx="33.756" cy="35.5" rx="33.756" ry="35.5" transform="translate(807.24 419)" fill="#fff"></ellipse><ellipse id="Ellipse_6461" data-name="Ellipse 6461" cx="33.756" cy="35" rx="33.756" ry="35" transform="translate(807.24 490)" fill="#fff"></ellipse><ellipse id="Ellipse_6462" data-name="Ellipse 6462" cx="33.756" cy="35" rx="33.756" ry="35" transform="translate(807.24 559)" fill="#fff"></ellipse><ellipse id="Ellipse_6463" data-name="Ellipse 6463" cx="33.273" cy="35.5" rx="33.273" ry="35.5" transform="translate(874.751 419)" fill="#fff"></ellipse><ellipse id="Ellipse_6464" data-name="Ellipse 6464" cx="33.273" cy="35" rx="33.273" ry="35" transform="translate(874.751 490)" fill="#fff"></ellipse><ellipse id="Ellipse_6465" data-name="Ellipse 6465" cx="33.273" cy="35" rx="33.273" ry="35" transform="translate(874.751 559)" fill="#fff"></ellipse><ellipse id="Ellipse_6466" data-name="Ellipse 6466" cx="33.273" cy="35.5" rx="33.273" ry="35.5" transform="translate(941.298 419)" fill="#fff"></ellipse><ellipse id="Ellipse_6467" data-name="Ellipse 6467" cx="33.273" cy="35" rx="33.273" ry="35" transform="translate(941.298 490)" fill="#fff"></ellipse><ellipse id="Ellipse_6468" data-name="Ellipse 6468" cx="33.273" cy="35" rx="33.273" ry="35" transform="translate(941.298 559)" fill="#fff"></ellipse><ellipse id="Ellipse_6469" data-name="Ellipse 6469" cx="33.756" cy="35.5" rx="33.756" ry="35.5" transform="translate(1007.844 419)" fill="#fff"></ellipse><ellipse id="Ellipse_6470" data-name="Ellipse 6470" cx="33.756" cy="35" rx="33.756" ry="35" transform="translate(1007.844 490)" fill="#fff"></ellipse><ellipse id="Ellipse_6471" data-name="Ellipse 6471" cx="33.756" cy="35" rx="33.756" ry="35" transform="translate(1007.844 559)" fill="#fff"></ellipse><ellipse id="Ellipse_6472" data-name="Ellipse 6472" cx="33.756" cy="35.5" rx="33.756" ry="35.5" transform="translate(1075.356 419)" fill="#fff"></ellipse><ellipse id="Ellipse_6473" data-name="Ellipse 6473" cx="33.756" cy="35" rx="33.756" ry="35" transform="translate(1075.356 490)" fill="#fff"></ellipse><ellipse id="Ellipse_6474" data-name="Ellipse 6474" cx="33.756" cy="35" rx="33.756" ry="35" transform="translate(1075.356 559)" fill="#fff"></ellipse><ellipse id="Ellipse_6475" data-name="Ellipse 6475" cx="33.273" cy="35.5" rx="33.273" ry="35.5" transform="translate(1137.08 419)" fill="#fff"></ellipse><ellipse id="Ellipse_6476" data-name="Ellipse 6476" cx="33.273" cy="35" rx="33.273" ry="35" transform="translate(1137.08 490)" fill="#fff"></ellipse><ellipse id="Ellipse_6477" data-name="Ellipse 6477" cx="33.273" cy="35" rx="33.273" ry="35" transform="translate(1137.08 559)" fill="#fff"></ellipse><ellipse id="Ellipse_6478" data-name="Ellipse 6478" cx="33.756" cy="35.5" rx="33.756" ry="35.5" transform="translate(1203.627 419)" fill="#fff"></ellipse><ellipse id="Ellipse_6479" data-name="Ellipse 6479" cx="33.756" cy="35" rx="33.756" ry="35" transform="translate(1203.627 490)" fill="#fff"></ellipse><ellipse id="Ellipse_6480" data-name="Ellipse 6480" cx="33.756" cy="35" rx="33.756" ry="35" transform="translate(1203.627 559)" fill="#fff"></ellipse><ellipse id="Ellipse_6481" data-name="Ellipse 6481" cx="33.273" cy="34.5" rx="33.273" ry="34.5" transform="translate(472.578 490)" fill="#fff"></ellipse><ellipse id="Ellipse_6482" data-name="Ellipse 6482" cx="33.273" cy="35" rx="33.273" ry="35" transform="translate(472.578 559)" fill="#fff"></ellipse></g></g></g></svg>