<svg xmlns="http://www.w3.org/2000/svg" xmlns:xlink="http://www.w3.org/1999/xlink" id="Group_73162" data-name="Group 73162" width="142.438" height="50" viewBox="0 0 142.438 50"><defs><clipPath id="clip-path"><rect id="Rectangle_3" data-name="Rectangle 3" width="142.438" height="50" fill="#e23288"></rect></clipPath><clipPath id="clip-path-2"><rect id="Rectangle_2" data-name="Rectangle 2" width="159.099" height="60.072" fill="#e23288"></rect></clipPath><clipPath id="clip-path-3"><rect id="Rectangle_1" data-name="Rectangle 1" width="41.298" height="45.369" fill="#e23288"></rect></clipPath></defs><g id="Group_6" data-name="Group 6" transform="translate(0 0)" clip-path="url(#clip-path)"><g id="Group_5" data-name="Group 5" transform="translate(-16.661 -1.906)"><g id="Group_4" data-name="Group 4" clip-path="url(#clip-path-2)"><g id="Group_3" data-name="Group 3" transform="translate(19.478 4.52)" opacity="0.82"><g id="Group_2" data-name="Group 2" transform="translate(0)"><g id="Group_1" data-name="Group 1" clip-path="url(#clip-path-3)"><path id="Path_1" data-name="Path 1" d="M0,45.068s34.153,5.8,40.679-33.443S0,45.068,0,45.068" transform="translate(0 0)" fill="#e23288"></path></g></g></g><path id="Path_2" data-name="Path 2" d="M0,49.325s23.653-3.307,20.307-30.632S0,49.325,0,49.325" transform="translate(19.479 0.271)" fill="#e23288"></path><path id="Path_3" data-name="Path 3" d="M83.582,43.01V29.587a.7.7,0,0,1,.7-.7H85.8a.7.7,0,0,1,.7.7V43.01a.7.7,0,0,1-.7.7H84.278a.7.7,0,0,1-.7-.7" transform="translate(-14.283 -13.791)" fill="#e23288"></path><path id="Path_4" data-name="Path 4" d="M93.977,29.158a1.439,1.439,0,0,1-.12.522l-1.014,2.662a.7.7,0,0,1-.651.449h-.439a.7.7,0,0,1-.652-.943l.245-.648a.705.705,0,0,0-.2-.774,1.884,1.884,0,0,1-.663-1.269,1.763,1.763,0,0,1,3.493,0" transform="translate(-15.463 -13.576)" fill="#e23288"></path><path id="Path_5" data-name="Path 5" d="M114.13,29.611V43.035a.7.7,0,0,1-.7.7h-1.518a.7.7,0,0,1-.7-.7v-6.6a.7.7,0,0,0-1.283-.375c-.8,1.267-1.814,2.861-2.887,4.558a.7.7,0,0,1-.59.325h-.677a.7.7,0,0,1-.589-.325l-2.907-4.6a.7.7,0,0,0-1.285.371v6.652a.7.7,0,0,1-.7.7H98.785a.7.7,0,0,1-.7-.7V29.611a.7.7,0,0,1,.7-.7h1.871a.7.7,0,0,1,.589.325l4.284,6.791a.7.7,0,0,0,1.178,0l4.286-6.791a.7.7,0,0,1,.59-.325h1.851a.7.7,0,0,1,.7.7" transform="translate(-16.762 -13.795)" fill="#e23288"></path><path id="Path_6" data-name="Path 6" d="M131.12,32.9c.16,1.747,6.344,1.667,8.332,3.855a4.075,4.075,0,0,1,1.064,2.73,3.574,3.574,0,0,1-.16,1.124c-.5,1.787-2.35,2.73-4,3.032a7.953,7.953,0,0,1-1.666.16,11.269,11.269,0,0,1-4.075-.822A18.837,18.837,0,0,1,128,41.521a.7.7,0,0,1-.173-.958l.835-1.237a.7.7,0,0,1,1.024-.143,9.308,9.308,0,0,0,5.465,1.973c1.425,0,2.329-.381,2.469-1.626v-.02c0-2.53-5.019-1.767-7.849-3.755a3.716,3.716,0,0,1-1.627-3.011,3.076,3.076,0,0,1,.141-.944,4.621,4.621,0,0,1,3.734-2.891,11.909,11.909,0,0,1,6.209.829c.023.01.045.021.067.032a12.919,12.919,0,0,1,1.394.817.694.694,0,0,1,.168.948l-.687,1.03a.7.7,0,0,1-.947.2,9.457,9.457,0,0,0-4.78-1.35c-1.466,0-2.329.322-2.329,1.305Z" transform="translate(-21.825 -13.77)" fill="#e23288"></path><path id="Path_7" data-name="Path 7" d="M152.056,29.36l5.184,13.423a.7.7,0,0,1-.65.948h-1.6a.7.7,0,0,1-.65-.447l-1.123-2.921a.7.7,0,0,0-.65-.447h-4.142a.7.7,0,0,0-.651.447l-1.122,2.921a.7.7,0,0,1-.651.447h-1.6a.7.7,0,0,1-.65-.948l5.184-13.423a.7.7,0,0,1,.65-.445h1.815a.7.7,0,0,1,.65.445m-.357,7.059-.55-1.424a.7.7,0,0,0-1.3,0l-.551,1.424a.7.7,0,0,0,.65.948h1.1a.7.7,0,0,0,.65-.948" transform="translate(-24.559 -13.795)" fill="#e23288"></path><path id="Path_8" data-name="Path 8" d="M164.587,34.914h5.393a.7.7,0,0,1,.7.7v1.137a.7.7,0,0,1-.7.7h-5.393a.7.7,0,0,0-.7.7v4.871a.7.7,0,0,1-.7.7h-1.517a.7.7,0,0,1-.7-.7V29.587a.7.7,0,0,1,.7-.7h9.347a.7.7,0,0,1,.7.7v1.157a.7.7,0,0,1-.7.7h-6.436a.7.7,0,0,0-.7.7v2.08a.7.7,0,0,0,.7.7" transform="translate(-27.51 -13.791)" fill="#e23288"></path><path id="Path_9" data-name="Path 9" d="M178.663,32.137v2.079a.7.7,0,0,0,.7.7h5.412a.7.7,0,0,1,.7.7v1.137a.7.7,0,0,1-.7.7h-5.412a.7.7,0,0,0-.7.7V40.48a.7.7,0,0,0,.7.7h6.456a.7.7,0,0,1,.7.7v1.157a.7.7,0,0,1-.7.7h-8.859v-.02h-.508a.7.7,0,0,1-.7-.7V29.587a.7.7,0,0,1,.7-.7h9.367a.7.7,0,0,1,.7.7v1.156a.7.7,0,0,1-.7.7h-6.456a.7.7,0,0,0-.7.7" transform="translate(-30.034 -13.791)" fill="#e23288"></path></g></g></g><text id="Academy" transform="translate(50.579 44.426)" font-size="13" font-family="VisbyCF-Bold, Visby CF" font-weight="700"><tspan x="0" y="0">Academy</tspan></text></svg>