<svg xmlns="http://www.w3.org/2000/svg" xmlns:xlink="http://www.w3.org/1999/xlink" width="1090" height="531.001" viewBox="0 0 1090 531.001"><defs><clipPath id="clip-path"><rect id="Rectangle_30357" data-name="Rectangle 30357" width="1090" height="531" rx="47" fill="#fcb85c"></rect></clipPath><clipPath id="clip-path-2"><rect id="abstract-13-light-background-wallpaper-colorful-gradient-blurry-soft-smooth-motion-bright-shine" width="1277" height="606" transform="translate(0.105 0.262)" fill="#fff"></rect></clipPath></defs><g id="Group_79027" data-name="Group 79027" transform="translate(-138 -5418.983)"><rect id="Rectangle_29796" data-name="Rectangle 29796" width="1090" height="531" rx="48" transform="translate(138 5418.983)"></rect><g id="Mask_Group_39479" data-name="Mask Group 39479" transform="translate(138 5418.984)" opacity="0.298" clip-path="url(#clip-path)" style="mix-blend-mode: normal;isolation: isolate"><g id="Mask_Group_39478" data-name="Mask Group 39478" transform="translate(-93.106 -14.262)" opacity="0.212" clip-path="url(#clip-path-2)" style="mix-blend-mode: overlay;isolation: isolate"><g id="Group_79026" data-name="Group 79026" transform="translate(0 0)"><circle id="Ellipse_13641" data-name="Ellipse 13641" cx="34" cy="34" r="34" transform="translate(0.105 0.262)" fill="#fff"></circle><ellipse id="Ellipse_13642" data-name="Ellipse 13642" cx="34" cy="33.5" rx="34" ry="33.5" transform="translate(0.105 68.262)" fill="#fff"></ellipse><circle id="Ellipse_13643" data-name="Ellipse 13643" cx="34" cy="34" r="34" transform="translate(0.105 135.262)" fill="#fff"></circle><circle id="Ellipse_13644" data-name="Ellipse 13644" cx="34" cy="34" r="34" transform="translate(0.105 203.262)" fill="#fff"></circle><circle id="Ellipse_13645" data-name="Ellipse 13645" cx="34" cy="34" r="34" transform="translate(0.105 271.262)" fill="#fff"></circle><ellipse id="Ellipse_13646" data-name="Ellipse 13646" cx="34" cy="33.5" rx="34" ry="33.5" transform="translate(0.105 339.262)" fill="#fff"></ellipse><ellipse id="Ellipse_13647" data-name="Ellipse 13647" cx="34" cy="34.5" rx="34" ry="34.5" transform="translate(0.105 406.262)" fill="#fff"></ellipse><ellipse id="Ellipse_13648" data-name="Ellipse 13648" cx="34" cy="33.5" rx="34" ry="33.5" transform="translate(0.105 475.262)" fill="#fff"></ellipse><ellipse id="Ellipse_13649" data-name="Ellipse 13649" cx="34" cy="33.5" rx="34" ry="33.5" transform="translate(0.105 542.262)" fill="#fff"></ellipse><ellipse id="Ellipse_13650" data-name="Ellipse 13650" cx="33.5" cy="34" rx="33.5" ry="34" transform="translate(68.105 0.262)" fill="#fff"></ellipse><circle id="Ellipse_13651" data-name="Ellipse 13651" cx="33.5" cy="33.5" r="33.5" transform="translate(68.105 68.262)" fill="#fff"></circle><ellipse id="Ellipse_13652" data-name="Ellipse 13652" cx="33.5" cy="34" rx="33.5" ry="34" transform="translate(68.105 135.262)" fill="#fff"></ellipse><ellipse id="Ellipse_13653" data-name="Ellipse 13653" cx="33.5" cy="34" rx="33.5" ry="34" transform="translate(68.105 203.262)" fill="#fff"></ellipse><ellipse id="Ellipse_13654" data-name="Ellipse 13654" cx="33.5" cy="34" rx="33.5" ry="34" transform="translate(68.105 271.262)" fill="#fff"></ellipse><circle id="Ellipse_13655" data-name="Ellipse 13655" cx="33.5" cy="33.5" r="33.5" transform="translate(68.105 339.262)" fill="#fff"></circle><ellipse id="Ellipse_13656" data-name="Ellipse 13656" cx="33.5" cy="34.5" rx="33.5" ry="34.5" transform="translate(68.105 406.262)" fill="#fff"></ellipse><circle id="Ellipse_13657" data-name="Ellipse 13657" cx="33.5" cy="33.5" r="33.5" transform="translate(68.105 475.262)" fill="#fff"></circle><circle id="Ellipse_13658" data-name="Ellipse 13658" cx="33.5" cy="33.5" r="33.5" transform="translate(68.105 542.262)" fill="#fff"></circle><circle id="Ellipse_13659" data-name="Ellipse 13659" cx="34" cy="34" r="34" transform="translate(135.105 0.262)" fill="#fff"></circle><ellipse id="Ellipse_13660" data-name="Ellipse 13660" cx="34" cy="33.5" rx="34" ry="33.5" transform="translate(135.105 68.262)" fill="#fff"></ellipse><circle id="Ellipse_13661" data-name="Ellipse 13661" cx="34" cy="34" r="34" transform="translate(135.105 135.262)" fill="#fff"></circle><circle id="Ellipse_13662" data-name="Ellipse 13662" cx="34" cy="34" r="34" transform="translate(135.105 203.262)" fill="#fff"></circle><circle id="Ellipse_13663" data-name="Ellipse 13663" cx="34" cy="34" r="34" transform="translate(135.105 271.262)" fill="#fff"></circle><ellipse id="Ellipse_13664" data-name="Ellipse 13664" cx="34" cy="33.5" rx="34" ry="33.5" transform="translate(135.105 339.262)" fill="#fff"></ellipse><ellipse id="Ellipse_13665" data-name="Ellipse 13665" cx="34" cy="34.5" rx="34" ry="34.5" transform="translate(135.105 406.262)" fill="#fff"></ellipse><ellipse id="Ellipse_13666" data-name="Ellipse 13666" cx="34" cy="33.5" rx="34" ry="33.5" transform="translate(135.105 475.262)" fill="#fff"></ellipse><ellipse id="Ellipse_13667" data-name="Ellipse 13667" cx="34" cy="33.5" rx="34" ry="33.5" transform="translate(135.105 542.262)" fill="#fff"></ellipse><circle id="Ellipse_13668" data-name="Ellipse 13668" cx="34" cy="34" r="34" transform="translate(203.105 0.262)" fill="#fff"></circle><ellipse id="Ellipse_13669" data-name="Ellipse 13669" cx="34" cy="33.5" rx="34" ry="33.5" transform="translate(203.105 68.262)" fill="#fff"></ellipse><circle id="Ellipse_13670" data-name="Ellipse 13670" cx="34" cy="34" r="34" transform="translate(203.105 135.262)" fill="#fff"></circle><circle id="Ellipse_13671" data-name="Ellipse 13671" cx="34" cy="34" r="34" transform="translate(203.105 203.262)" fill="#fff"></circle><circle id="Ellipse_13672" data-name="Ellipse 13672" cx="34" cy="34" r="34" transform="translate(203.105 271.262)" fill="#fff"></circle><ellipse id="Ellipse_13673" data-name="Ellipse 13673" cx="34" cy="33.5" rx="34" ry="33.5" transform="translate(203.105 339.262)" fill="#fff"></ellipse><ellipse id="Ellipse_13674" data-name="Ellipse 13674" cx="34" cy="34.5" rx="34" ry="34.5" transform="translate(203.105 406.262)" fill="#fff"></ellipse><ellipse id="Ellipse_13675" data-name="Ellipse 13675" cx="34" cy="33.5" rx="34" ry="33.5" transform="translate(203.105 475.262)" fill="#fff"></ellipse><ellipse id="Ellipse_13676" data-name="Ellipse 13676" cx="34" cy="33.5" rx="34" ry="33.5" transform="translate(203.105 542.262)" fill="#fff"></ellipse><circle id="Ellipse_13677" data-name="Ellipse 13677" cx="34" cy="34" r="34" transform="translate(271.105 0.262)" fill="#fff"></circle><ellipse id="Ellipse_13678" data-name="Ellipse 13678" cx="34" cy="33.5" rx="34" ry="33.5" transform="translate(271.105 68.262)" fill="#fff"></ellipse><circle id="Ellipse_13679" data-name="Ellipse 13679" cx="34" cy="34" r="34" transform="translate(271.105 135.262)" fill="#fff"></circle><circle id="Ellipse_13680" data-name="Ellipse 13680" cx="34" cy="34" r="34" transform="translate(271.105 203.262)" fill="#fff"></circle><circle id="Ellipse_13681" data-name="Ellipse 13681" cx="34" cy="34" r="34" transform="translate(271.105 271.262)" fill="#fff"></circle><ellipse id="Ellipse_13682" data-name="Ellipse 13682" cx="34" cy="33.5" rx="34" ry="33.5" transform="translate(271.105 339.262)" fill="#fff"></ellipse><ellipse id="Ellipse_13683" data-name="Ellipse 13683" cx="34" cy="34.5" rx="34" ry="34.5" transform="translate(271.105 406.262)" fill="#fff"></ellipse><ellipse id="Ellipse_13684" data-name="Ellipse 13684" cx="34" cy="33.5" rx="34" ry="33.5" transform="translate(271.105 475.262)" fill="#fff"></ellipse><ellipse id="Ellipse_13685" data-name="Ellipse 13685" cx="34" cy="33.5" rx="34" ry="33.5" transform="translate(271.105 542.262)" fill="#fff"></ellipse><ellipse id="Ellipse_13686" data-name="Ellipse 13686" cx="33.5" cy="34" rx="33.5" ry="34" transform="translate(339.105 0.262)" fill="#fff"></ellipse><circle id="Ellipse_13687" data-name="Ellipse 13687" cx="33.5" cy="33.5" r="33.5" transform="translate(339.105 68.262)" fill="#fff"></circle><ellipse id="Ellipse_13688" data-name="Ellipse 13688" cx="33.5" cy="34" rx="33.5" ry="34" transform="translate(339.105 135.262)" fill="#fff"></ellipse><ellipse id="Ellipse_13689" data-name="Ellipse 13689" cx="33.5" cy="34" rx="33.5" ry="34" transform="translate(339.105 203.262)" fill="#fff"></ellipse><ellipse id="Ellipse_13690" data-name="Ellipse 13690" cx="33.5" cy="34" rx="33.5" ry="34" transform="translate(339.105 271.262)" fill="#fff"></ellipse><circle id="Ellipse_13691" data-name="Ellipse 13691" cx="33.5" cy="33.5" r="33.5" transform="translate(339.105 339.262)" fill="#fff"></circle><ellipse id="Ellipse_13692" data-name="Ellipse 13692" cx="33.5" cy="34.5" rx="33.5" ry="34.5" transform="translate(339.105 406.262)" fill="#fff"></ellipse><circle id="Ellipse_13693" data-name="Ellipse 13693" cx="33.5" cy="33.5" r="33.5" transform="translate(339.105 475.262)" fill="#fff"></circle><circle id="Ellipse_13694" data-name="Ellipse 13694" cx="33.5" cy="33.5" r="33.5" transform="translate(339.105 542.262)" fill="#fff"></circle><ellipse id="Ellipse_13695" data-name="Ellipse 13695" cx="34.5" cy="34" rx="34.5" ry="34" transform="translate(406.105 0.262)" fill="#fff"></ellipse><ellipse id="Ellipse_13696" data-name="Ellipse 13696" cx="34.5" cy="33.5" rx="34.5" ry="33.5" transform="translate(406.105 68.262)" fill="#fff"></ellipse><ellipse id="Ellipse_13697" data-name="Ellipse 13697" cx="34.5" cy="34" rx="34.5" ry="34" transform="translate(406.105 135.262)" fill="#fff"></ellipse><ellipse id="Ellipse_13698" data-name="Ellipse 13698" cx="34.5" cy="34" rx="34.5" ry="34" transform="translate(406.105 203.262)" fill="#fff"></ellipse><ellipse id="Ellipse_13699" data-name="Ellipse 13699" cx="34.5" cy="34" rx="34.5" ry="34" transform="translate(406.105 271.262)" fill="#fff"></ellipse><ellipse id="Ellipse_13700" data-name="Ellipse 13700" cx="34.5" cy="33.5" rx="34.5" ry="33.5" transform="translate(406.105 339.262)" fill="#fff"></ellipse><circle id="Ellipse_13701" data-name="Ellipse 13701" cx="34.5" cy="34.5" r="34.5" transform="translate(406.105 406.262)" fill="#fff"></circle><ellipse id="Ellipse_13702" data-name="Ellipse 13702" cx="34.5" cy="33.5" rx="34.5" ry="33.5" transform="translate(406.105 475.262)" fill="#fff"></ellipse><ellipse id="Ellipse_13703" data-name="Ellipse 13703" cx="34.5" cy="33.5" rx="34.5" ry="33.5" transform="translate(406.105 542.262)" fill="#fff"></ellipse><ellipse id="Ellipse_13704" data-name="Ellipse 13704" cx="33.5" cy="34" rx="33.5" ry="34" transform="translate(475.105 0.262)" fill="#fff"></ellipse><ellipse id="Ellipse_13705" data-name="Ellipse 13705" cx="33.5" cy="34" rx="33.5" ry="34" transform="translate(542.105 0.262)" fill="#fff"></ellipse><ellipse id="Ellipse_13706" data-name="Ellipse 13706" cx="33.5" cy="34" rx="33.5" ry="34" transform="translate(609.105 0.262)" fill="#fff"></ellipse><ellipse id="Ellipse_13707" data-name="Ellipse 13707" cx="33.5" cy="34" rx="33.5" ry="34" transform="translate(676.105 0.262)" fill="#fff"></ellipse><circle id="Ellipse_13708" data-name="Ellipse 13708" cx="34" cy="34" r="34" transform="translate(743.105 0.262)" fill="#fff"></circle><ellipse id="Ellipse_13709" data-name="Ellipse 13709" cx="33.5" cy="34" rx="33.5" ry="34" transform="translate(811.105 0.262)" fill="#fff"></ellipse><circle id="Ellipse_13710" data-name="Ellipse 13710" cx="34" cy="34" r="34" transform="translate(878.105 0.262)" fill="#fff"></circle><ellipse id="Ellipse_13711" data-name="Ellipse 13711" cx="33.5" cy="34" rx="33.5" ry="34" transform="translate(946.105 0.262)" fill="#fff"></ellipse><circle id="Ellipse_13712" data-name="Ellipse 13712" cx="34" cy="34" r="34" transform="translate(1013.105 0.262)" fill="#fff"></circle><ellipse id="Ellipse_13713" data-name="Ellipse 13713" cx="33.5" cy="34" rx="33.5" ry="34" transform="translate(1081.105 0.262)" fill="#fff"></ellipse><circle id="Ellipse_13714" data-name="Ellipse 13714" cx="34" cy="34" r="34" transform="translate(1142.105 0.262)" fill="#fff"></circle><ellipse id="Ellipse_13715" data-name="Ellipse 13715" cx="33.5" cy="34" rx="33.5" ry="34" transform="translate(1210.105 0.262)" fill="#fff"></ellipse><circle id="Ellipse_13716" data-name="Ellipse 13716" cx="33.5" cy="33.5" r="33.5" transform="translate(475.105 68.262)" fill="#fff"></circle><circle id="Ellipse_13717" data-name="Ellipse 13717" cx="33.5" cy="33.5" r="33.5" transform="translate(542.105 68.262)" fill="#fff"></circle><circle id="Ellipse_13718" data-name="Ellipse 13718" cx="33.5" cy="33.5" r="33.5" transform="translate(609.105 68.262)" fill="#fff"></circle><circle id="Ellipse_13719" data-name="Ellipse 13719" cx="33.5" cy="33.5" r="33.5" transform="translate(676.105 68.262)" fill="#fff"></circle><ellipse id="Ellipse_13720" data-name="Ellipse 13720" cx="34" cy="33.5" rx="34" ry="33.5" transform="translate(743.105 68.262)" fill="#fff"></ellipse><circle id="Ellipse_13721" data-name="Ellipse 13721" cx="33.5" cy="33.5" r="33.5" transform="translate(811.105 68.262)" fill="#fff"></circle><ellipse id="Ellipse_13722" data-name="Ellipse 13722" cx="34" cy="33.5" rx="34" ry="33.5" transform="translate(878.105 68.262)" fill="#fff"></ellipse><circle id="Ellipse_13723" data-name="Ellipse 13723" cx="33.5" cy="33.5" r="33.5" transform="translate(946.105 68.262)" fill="#fff"></circle><ellipse id="Ellipse_13724" data-name="Ellipse 13724" cx="34" cy="33.5" rx="34" ry="33.5" transform="translate(1013.105 68.262)" fill="#fff"></ellipse><circle id="Ellipse_13725" data-name="Ellipse 13725" cx="33.5" cy="33.5" r="33.5" transform="translate(1081.105 68.262)" fill="#fff"></circle><ellipse id="Ellipse_13726" data-name="Ellipse 13726" cx="34" cy="33.5" rx="34" ry="33.5" transform="translate(1142.105 68.262)" fill="#fff"></ellipse><circle id="Ellipse_13727" data-name="Ellipse 13727" cx="33.5" cy="33.5" r="33.5" transform="translate(1210.105 68.262)" fill="#fff"></circle><ellipse id="Ellipse_13728" data-name="Ellipse 13728" cx="33.5" cy="34" rx="33.5" ry="34" transform="translate(475.105 135.262)" fill="#fff"></ellipse><ellipse id="Ellipse_13729" data-name="Ellipse 13729" cx="33.5" cy="34" rx="33.5" ry="34" transform="translate(542.105 135.262)" fill="#fff"></ellipse><ellipse id="Ellipse_13730" data-name="Ellipse 13730" cx="33.5" cy="34" rx="33.5" ry="34" transform="translate(609.105 135.262)" fill="#fff"></ellipse><ellipse id="Ellipse_13731" data-name="Ellipse 13731" cx="33.5" cy="34" rx="33.5" ry="34" transform="translate(676.105 135.262)" fill="#fff"></ellipse><circle id="Ellipse_13732" data-name="Ellipse 13732" cx="34" cy="34" r="34" transform="translate(743.105 135.262)" fill="#fff"></circle><ellipse id="Ellipse_13733" data-name="Ellipse 13733" cx="33.5" cy="34" rx="33.5" ry="34" transform="translate(811.105 135.262)" fill="#fff"></ellipse><circle id="Ellipse_13734" data-name="Ellipse 13734" cx="34" cy="34" r="34" transform="translate(878.105 135.262)" fill="#fff"></circle><ellipse id="Ellipse_13735" data-name="Ellipse 13735" cx="33.5" cy="34" rx="33.5" ry="34" transform="translate(946.105 135.262)" fill="#fff"></ellipse><circle id="Ellipse_13736" data-name="Ellipse 13736" cx="34" cy="34" r="34" transform="translate(1013.105 135.262)" fill="#fff"></circle><ellipse id="Ellipse_13737" data-name="Ellipse 13737" cx="33.5" cy="34" rx="33.5" ry="34" transform="translate(1081.105 135.262)" fill="#fff"></ellipse><circle id="Ellipse_13738" data-name="Ellipse 13738" cx="34" cy="34" r="34" transform="translate(1142.105 135.262)" fill="#fff"></circle><ellipse id="Ellipse_13739" data-name="Ellipse 13739" cx="33.5" cy="34" rx="33.5" ry="34" transform="translate(1210.105 135.262)" fill="#fff"></ellipse><ellipse id="Ellipse_13740" data-name="Ellipse 13740" cx="33.5" cy="34" rx="33.5" ry="34" transform="translate(475.105 203.262)" fill="#fff"></ellipse><ellipse id="Ellipse_13741" data-name="Ellipse 13741" cx="33.5" cy="34" rx="33.5" ry="34" transform="translate(542.105 203.262)" fill="#fff"></ellipse><ellipse id="Ellipse_13742" data-name="Ellipse 13742" cx="33.5" cy="34" rx="33.5" ry="34" transform="translate(609.105 203.262)" fill="#fff"></ellipse><ellipse id="Ellipse_13743" data-name="Ellipse 13743" cx="33.5" cy="34" rx="33.5" ry="34" transform="translate(676.105 203.262)" fill="#fff"></ellipse><circle id="Ellipse_13744" data-name="Ellipse 13744" cx="34" cy="34" r="34" transform="translate(743.105 203.262)" fill="#fff"></circle><ellipse id="Ellipse_13745" data-name="Ellipse 13745" cx="33.5" cy="34" rx="33.5" ry="34" transform="translate(811.105 203.262)" fill="#fff"></ellipse><circle id="Ellipse_13746" data-name="Ellipse 13746" cx="34" cy="34" r="34" transform="translate(878.105 203.262)" fill="#fff"></circle><ellipse id="Ellipse_13747" data-name="Ellipse 13747" cx="33.5" cy="34" rx="33.5" ry="34" transform="translate(946.105 203.262)" fill="#fff"></ellipse><circle id="Ellipse_13748" data-name="Ellipse 13748" cx="34" cy="34" r="34" transform="translate(1013.105 203.262)" fill="#fff"></circle><ellipse id="Ellipse_13749" data-name="Ellipse 13749" cx="33.5" cy="34" rx="33.5" ry="34" transform="translate(1081.105 203.262)" fill="#fff"></ellipse><circle id="Ellipse_13750" data-name="Ellipse 13750" cx="34" cy="34" r="34" transform="translate(1142.105 203.262)" fill="#fff"></circle><ellipse id="Ellipse_13751" data-name="Ellipse 13751" cx="33.5" cy="34" rx="33.5" ry="34" transform="translate(1210.105 203.262)" fill="#fff"></ellipse><ellipse id="Ellipse_13752" data-name="Ellipse 13752" cx="33.5" cy="34" rx="33.5" ry="34" transform="translate(475.105 271.262)" fill="#fff"></ellipse><ellipse id="Ellipse_13753" data-name="Ellipse 13753" cx="33.5" cy="34" rx="33.5" ry="34" transform="translate(542.105 271.262)" fill="#fff"></ellipse><ellipse id="Ellipse_13754" data-name="Ellipse 13754" cx="33.5" cy="34" rx="33.5" ry="34" transform="translate(609.105 271.262)" fill="#fff"></ellipse><ellipse id="Ellipse_13755" data-name="Ellipse 13755" cx="33.5" cy="34" rx="33.5" ry="34" transform="translate(676.105 271.262)" fill="#fff"></ellipse><circle id="Ellipse_13756" data-name="Ellipse 13756" cx="34" cy="34" r="34" transform="translate(743.105 271.262)" fill="#fff"></circle><ellipse id="Ellipse_13757" data-name="Ellipse 13757" cx="33.5" cy="34" rx="33.5" ry="34" transform="translate(811.105 271.262)" fill="#fff"></ellipse><circle id="Ellipse_13758" data-name="Ellipse 13758" cx="34" cy="34" r="34" transform="translate(878.105 271.262)" fill="#fff"></circle><ellipse id="Ellipse_13759" data-name="Ellipse 13759" cx="33.5" cy="34" rx="33.5" ry="34" transform="translate(946.105 271.262)" fill="#fff"></ellipse><circle id="Ellipse_13760" data-name="Ellipse 13760" cx="34" cy="34" r="34" transform="translate(1013.105 271.262)" fill="#fff"></circle><ellipse id="Ellipse_13761" data-name="Ellipse 13761" cx="33.5" cy="34" rx="33.5" ry="34" transform="translate(1081.105 271.262)" fill="#fff"></ellipse><circle id="Ellipse_13762" data-name="Ellipse 13762" cx="34" cy="34" r="34" transform="translate(1142.105 271.262)" fill="#fff"></circle><ellipse id="Ellipse_13763" data-name="Ellipse 13763" cx="33.5" cy="34" rx="33.5" ry="34" transform="translate(1210.105 271.262)" fill="#fff"></ellipse><circle id="Ellipse_13764" data-name="Ellipse 13764" cx="33.5" cy="33.5" r="33.5" transform="translate(475.105 339.262)" fill="#fff"></circle><circle id="Ellipse_13765" data-name="Ellipse 13765" cx="33.5" cy="33.5" r="33.5" transform="translate(542.105 339.262)" fill="#fff"></circle><circle id="Ellipse_13766" data-name="Ellipse 13766" cx="33.5" cy="33.5" r="33.5" transform="translate(609.105 339.262)" fill="#fff"></circle><circle id="Ellipse_13767" data-name="Ellipse 13767" cx="33.5" cy="33.5" r="33.5" transform="translate(676.105 339.262)" fill="#fff"></circle><ellipse id="Ellipse_13768" data-name="Ellipse 13768" cx="34" cy="33.5" rx="34" ry="33.5" transform="translate(743.105 339.262)" fill="#fff"></ellipse><circle id="Ellipse_13769" data-name="Ellipse 13769" cx="33.5" cy="33.5" r="33.5" transform="translate(811.105 339.262)" fill="#fff"></circle><ellipse id="Ellipse_13770" data-name="Ellipse 13770" cx="34" cy="33.5" rx="34" ry="33.5" transform="translate(878.105 339.262)" fill="#fff"></ellipse><circle id="Ellipse_13771" data-name="Ellipse 13771" cx="33.5" cy="33.5" r="33.5" transform="translate(946.105 339.262)" fill="#fff"></circle><ellipse id="Ellipse_13772" data-name="Ellipse 13772" cx="34" cy="33.5" rx="34" ry="33.5" transform="translate(1013.105 339.262)" fill="#fff"></ellipse><circle id="Ellipse_13773" data-name="Ellipse 13773" cx="33.5" cy="33.5" r="33.5" transform="translate(1081.105 339.262)" fill="#fff"></circle><ellipse id="Ellipse_13774" data-name="Ellipse 13774" cx="34" cy="33.5" rx="34" ry="33.5" transform="translate(1142.105 339.262)" fill="#fff"></ellipse><circle id="Ellipse_13775" data-name="Ellipse 13775" cx="33.5" cy="33.5" r="33.5" transform="translate(1210.105 339.262)" fill="#fff"></circle><ellipse id="Ellipse_13776" data-name="Ellipse 13776" cx="33.5" cy="34.5" rx="33.5" ry="34.5" transform="translate(475.105 406.262)" fill="#fff"></ellipse><ellipse id="Ellipse_13777" data-name="Ellipse 13777" cx="33.5" cy="34.5" rx="33.5" ry="34.5" transform="translate(542.105 406.262)" fill="#fff"></ellipse><circle id="Ellipse_13778" data-name="Ellipse 13778" cx="33.5" cy="33.5" r="33.5" transform="translate(542.105 475.262)" fill="#fff"></circle><ellipse id="Ellipse_13779" data-name="Ellipse 13779" cx="33.5" cy="34" rx="33.5" ry="34" transform="translate(542.105 542.262)" fill="#fff"></ellipse><ellipse id="Ellipse_13780" data-name="Ellipse 13780" cx="33.5" cy="34.5" rx="33.5" ry="34.5" transform="translate(609.105 406.262)" fill="#fff"></ellipse><circle id="Ellipse_13781" data-name="Ellipse 13781" cx="33.5" cy="33.5" r="33.5" transform="translate(609.105 475.262)" fill="#fff"></circle><ellipse id="Ellipse_13782" data-name="Ellipse 13782" cx="33.5" cy="34" rx="33.5" ry="34" transform="translate(609.105 542.262)" fill="#fff"></ellipse><ellipse id="Ellipse_13783" data-name="Ellipse 13783" cx="33.5" cy="34.5" rx="33.5" ry="34.5" transform="translate(676.105 406.262)" fill="#fff"></ellipse><circle id="Ellipse_13784" data-name="Ellipse 13784" cx="33.5" cy="33.5" r="33.5" transform="translate(676.105 475.262)" fill="#fff"></circle><ellipse id="Ellipse_13785" data-name="Ellipse 13785" cx="33.5" cy="34" rx="33.5" ry="34" transform="translate(676.105 542.262)" fill="#fff"></ellipse><ellipse id="Ellipse_13786" data-name="Ellipse 13786" cx="34" cy="34.5" rx="34" ry="34.5" transform="translate(743.105 406.262)" fill="#fff"></ellipse><ellipse id="Ellipse_13787" data-name="Ellipse 13787" cx="34" cy="33.5" rx="34" ry="33.5" transform="translate(743.105 475.262)" fill="#fff"></ellipse><circle id="Ellipse_13788" data-name="Ellipse 13788" cx="34" cy="34" r="34" transform="translate(743.105 542.262)" fill="#fff"></circle><ellipse id="Ellipse_13789" data-name="Ellipse 13789" cx="33.5" cy="34.5" rx="33.5" ry="34.5" transform="translate(811.105 406.262)" fill="#fff"></ellipse><circle id="Ellipse_13790" data-name="Ellipse 13790" cx="33.5" cy="33.5" r="33.5" transform="translate(811.105 475.262)" fill="#fff"></circle><ellipse id="Ellipse_13791" data-name="Ellipse 13791" cx="33.5" cy="34" rx="33.5" ry="34" transform="translate(811.105 542.262)" fill="#fff"></ellipse><ellipse id="Ellipse_13792" data-name="Ellipse 13792" cx="34" cy="34.5" rx="34" ry="34.5" transform="translate(878.105 406.262)" fill="#fff"></ellipse><ellipse id="Ellipse_13793" data-name="Ellipse 13793" cx="34" cy="33.5" rx="34" ry="33.5" transform="translate(878.105 475.262)" fill="#fff"></ellipse><circle id="Ellipse_13794" data-name="Ellipse 13794" cx="34" cy="34" r="34" transform="translate(878.105 542.262)" fill="#fff"></circle><ellipse id="Ellipse_13795" data-name="Ellipse 13795" cx="33.5" cy="34.5" rx="33.5" ry="34.5" transform="translate(946.105 406.262)" fill="#fff"></ellipse><circle id="Ellipse_13796" data-name="Ellipse 13796" cx="33.5" cy="33.5" r="33.5" transform="translate(946.105 475.262)" fill="#fff"></circle><ellipse id="Ellipse_13797" data-name="Ellipse 13797" cx="33.5" cy="34" rx="33.5" ry="34" transform="translate(946.105 542.262)" fill="#fff"></ellipse><ellipse id="Ellipse_13798" data-name="Ellipse 13798" cx="34" cy="34.5" rx="34" ry="34.5" transform="translate(1013.105 406.262)" fill="#fff"></ellipse><ellipse id="Ellipse_13799" data-name="Ellipse 13799" cx="34" cy="33.5" rx="34" ry="33.5" transform="translate(1013.105 475.262)" fill="#fff"></ellipse><circle id="Ellipse_13800" data-name="Ellipse 13800" cx="34" cy="34" r="34" transform="translate(1013.105 542.262)" fill="#fff"></circle><ellipse id="Ellipse_13801" data-name="Ellipse 13801" cx="33.5" cy="34.5" rx="33.5" ry="34.5" transform="translate(1081.105 406.262)" fill="#fff"></ellipse><circle id="Ellipse_13802" data-name="Ellipse 13802" cx="33.5" cy="33.5" r="33.5" transform="translate(1081.105 475.262)" fill="#fff"></circle><ellipse id="Ellipse_13803" data-name="Ellipse 13803" cx="33.5" cy="34" rx="33.5" ry="34" transform="translate(1081.105 542.262)" fill="#fff"></ellipse><ellipse id="Ellipse_13804" data-name="Ellipse 13804" cx="34" cy="34.5" rx="34" ry="34.5" transform="translate(1142.105 406.262)" fill="#fff"></ellipse><ellipse id="Ellipse_13805" data-name="Ellipse 13805" cx="34" cy="33.5" rx="34" ry="33.5" transform="translate(1142.105 475.262)" fill="#fff"></ellipse><circle id="Ellipse_13806" data-name="Ellipse 13806" cx="34" cy="34" r="34" transform="translate(1142.105 542.262)" fill="#fff"></circle><ellipse id="Ellipse_13807" data-name="Ellipse 13807" cx="33.5" cy="34.5" rx="33.5" ry="34.5" transform="translate(1210.105 406.262)" fill="#fff"></ellipse><circle id="Ellipse_13808" data-name="Ellipse 13808" cx="33.5" cy="33.5" r="33.5" transform="translate(1210.105 475.262)" fill="#fff"></circle><ellipse id="Ellipse_13809" data-name="Ellipse 13809" cx="33.5" cy="34" rx="33.5" ry="34" transform="translate(1210.105 542.262)" fill="#fff"></ellipse><circle id="Ellipse_13810" data-name="Ellipse 13810" cx="33.5" cy="33.5" r="33.5" transform="translate(475.105 475.262)" fill="#fff"></circle><circle id="Ellipse_13811" data-name="Ellipse 13811" cx="33.5" cy="33.5" r="33.5" transform="translate(475.105 542.262)" fill="#fff"></circle></g></g></g></g></svg>