<?xml version="1.0" encoding="UTF-8"?>
<svg xmlns="http://www.w3.org/2000/svg" xmlns:xlink="http://www.w3.org/1999/xlink" width="179.536" height="47.592" viewBox="0 0 179.536 47.592">
  <defs>
    <clipPath id="clip-path">
      <rect id="Rectangle_22973" data-name="Rectangle 22973" width="179.536" height="47.592" transform="translate(0 0)" fill="#fff"></rect>
    </clipPath>
    <clipPath id="clip-path-2">
      <rect id="Rectangle_22972" data-name="Rectangle 22972" width="238.087" height="89.897" fill="#fff"></rect>
    </clipPath>
    <clipPath id="clip-path-3">
      <rect id="Rectangle_22971" data-name="Rectangle 22971" width="38.955" height="42.795" fill="#fff"></rect>
    </clipPath>
  </defs>
  <g id="Group_78626" data-name="Group 78626" transform="translate(-5 -5)">
    <g id="Group_67255" data-name="Group 67255" transform="translate(5 5)" clip-path="url(#clip-path)">
      <g id="Group_67254" data-name="Group 67254" transform="translate(-56.742 -12.564)">
        <g id="Group_67253" data-name="Group 67253" clip-path="url(#clip-path-2)">
          <g id="Group_67252" data-name="Group 67252" transform="translate(58.087 15.204)" opacity="0.82">
            <g id="Group_67251" data-name="Group 67251" transform="translate(0 0)">
              <g id="Group_67250" data-name="Group 67250" clip-path="url(#clip-path-3)">
                <path id="Path_154256" data-name="Path 154256" d="M0,42.511s32.215,5.468,38.371-31.545S0,42.511,0,42.511" transform="translate(0 0)" fill="#fff"></path>
              </g>
            </g>
          </g>
          <path id="Path_154257" data-name="Path 154257" d="M0,47.172s22.311-3.12,19.155-28.894S0,47.172,0,47.172" transform="translate(58.088 10.551)" fill="#fff"></path>
          <path id="Path_154258" data-name="Path 154258" d="M83.582,50.02V29.933a1.043,1.043,0,0,1,1.042-1.043H86.9a1.043,1.043,0,0,1,1.042,1.043V50.02A1.042,1.042,0,0,1,86.9,51.062H84.624a1.042,1.042,0,0,1-1.042-1.042" transform="translate(20.122 -0.09)" fill="#fff"></path>
          <path id="Path_154259" data-name="Path 154259" d="M95.711,29.915a2.151,2.151,0,0,1-.18.782l-1.517,3.984a1.042,1.042,0,0,1-.974.672h-.658a1.042,1.042,0,0,1-.975-1.411l.366-.97a1.055,1.055,0,0,0-.3-1.158,2.819,2.819,0,0,1-.993-1.9,2.638,2.638,0,0,1,5.227,0" transform="translate(21.783 -0.393)" fill="#fff"></path>
          <path id="Path_154260" data-name="Path 154260" d="M122.094,29.957V50.045a1.042,1.042,0,0,1-1.042,1.042H118.78a1.042,1.042,0,0,1-1.043-1.042v-9.88a1.042,1.042,0,0,0-1.921-.561c-1.2,1.9-2.715,4.282-4.32,6.82a1.044,1.044,0,0,1-.882.486H109.6a1.041,1.041,0,0,1-.881-.486l-4.35-6.89a1.042,1.042,0,0,0-1.923.556v9.954a1.043,1.043,0,0,1-1.045,1.042H99.13a1.042,1.042,0,0,1-1.041-1.042V29.957a1.042,1.042,0,0,1,1.041-1.042h2.8a1.044,1.044,0,0,1,.882.486l6.411,10.163a1.042,1.042,0,0,0,1.763,0L117.4,29.4a1.044,1.044,0,0,1,.882-.486h2.769a1.042,1.042,0,0,1,1.042,1.042" transform="translate(23.614 -0.084)" fill="#fff"></path>
          <path id="Path_154261" data-name="Path 154261" d="M132.811,34.958c.239,2.614,9.494,2.494,12.468,5.768a6.1,6.1,0,0,1,1.592,4.086,5.349,5.349,0,0,1-.239,1.682c-.752,2.674-3.516,4.086-5.979,4.537a11.9,11.9,0,0,1-2.494.239,16.863,16.863,0,0,1-6.1-1.231,28.179,28.179,0,0,1-3.911-2.189,1.046,1.046,0,0,1-.259-1.433l1.249-1.851a1.049,1.049,0,0,1,1.532-.215,13.929,13.929,0,0,0,8.178,2.953c2.133,0,3.485-.571,3.695-2.433v-.03c0-3.787-7.51-2.644-11.746-5.619a5.561,5.561,0,0,1-2.434-4.506,4.6,4.6,0,0,1,.211-1.412c.691-2.463,3.3-3.9,5.588-4.326a17.822,17.822,0,0,1,9.292,1.241c.035.015.067.031.1.048a19.338,19.338,0,0,1,2.086,1.222,1.039,1.039,0,0,1,.252,1.419l-1.027,1.541a1.042,1.042,0,0,1-1.417.3,14.153,14.153,0,0,0-7.153-2.02c-2.194,0-3.485.481-3.485,1.953Z" transform="translate(30.746 -0.12)" fill="#fff"></path>
          <path id="Path_154262" data-name="Path 154262" d="M156.2,29.581l7.757,20.088a1.042,1.042,0,0,1-.973,1.418h-2.39a1.042,1.042,0,0,1-.973-.669l-1.68-4.371a1.042,1.042,0,0,0-.973-.669h-6.2a1.043,1.043,0,0,0-.974.669l-1.679,4.371a1.045,1.045,0,0,1-.974.669h-2.39a1.043,1.043,0,0,1-.973-1.418l7.757-20.088a1.042,1.042,0,0,1,.973-.666h2.716a1.041,1.041,0,0,1,.973.666m-.535,10.564-.823-2.132a1.043,1.043,0,0,0-1.945,0l-.824,2.132a1.043,1.043,0,0,0,.973,1.418h1.647a1.042,1.042,0,0,0,.973-1.418" transform="translate(34.597 -0.084)" fill="#fff"></path>
          <path id="Path_154263" data-name="Path 154263" d="M166.378,37.9h8.07a1.042,1.042,0,0,1,1.042,1.042v1.7a1.042,1.042,0,0,1-1.042,1.042h-8.07a1.042,1.042,0,0,0-1.042,1.042v7.289a1.042,1.042,0,0,1-1.044,1.042h-2.271a1.042,1.042,0,0,1-1.042-1.042V29.933a1.042,1.042,0,0,1,1.042-1.042H176.01a1.042,1.042,0,0,1,1.042,1.042v1.731a1.042,1.042,0,0,1-1.042,1.042h-9.632a1.042,1.042,0,0,0-1.042,1.042v3.113a1.042,1.042,0,0,0,1.042,1.042" transform="translate(38.755 -0.09)" fill="#fff"></path>
          <path id="Path_154264" data-name="Path 154264" d="M180.108,33.749V36.86A1.042,1.042,0,0,0,181.15,37.9h8.1a1.043,1.043,0,0,1,1.044,1.042v1.7a1.043,1.043,0,0,1-1.044,1.042h-8.1a1.042,1.042,0,0,0-1.042,1.042v3.5a1.043,1.043,0,0,0,1.042,1.043h9.662a1.043,1.043,0,0,1,1.043,1.042v1.731a1.043,1.043,0,0,1-1.043,1.042H177.555v-.03h-.76a1.043,1.043,0,0,1-1.042-1.043V29.933a1.042,1.042,0,0,1,1.042-1.042h14.018a1.043,1.043,0,0,1,1.043,1.042v1.73a1.043,1.043,0,0,1-1.043,1.043H181.15a1.042,1.042,0,0,0-1.042,1.042" transform="translate(42.311 -0.09)" fill="#fff"></path>
        </g>
      </g>
    </g>
  </g>
</svg>
