<?xml version="1.0" encoding="UTF-8"?>
<svg xmlns="http://www.w3.org/2000/svg" xmlns:xlink="http://www.w3.org/1999/xlink" width="179.721" height="63.605" viewBox="0 0 179.721 63.605">
  <defs>
    <clipPath id="clip-path">
      <rect id="Rectangle_3" data-name="Rectangle 3" width="179.721" height="63.605" transform="translate(0)" fill="#e23288"></rect>
    </clipPath>
    <clipPath id="clip-path-2">
      <rect id="Rectangle_2" data-name="Rectangle 2" width="216.505" height="81.748" fill="#e23288"></rect>
    </clipPath>
    <clipPath id="clip-path-3">
      <rect id="Rectangle_1" data-name="Rectangle 1" width="47.508" height="52.191" fill="#e23288"></rect>
    </clipPath>
  </defs>
  <g id="Group_78617" data-name="Group 78617" transform="translate(-21 0)">
    <g id="Group_6" data-name="Group 6" transform="translate(21 0)" clip-path="url(#clip-path)">
      <g id="Group_5" data-name="Group 5" transform="translate(-36.784 0)">
        <g id="Group_4" data-name="Group 4" clip-path="url(#clip-path-2)">
          <g id="Group_3" data-name="Group 3" transform="translate(38.869 6.151)" opacity="0.82">
            <g id="Group_2" data-name="Group 2" transform="translate(0 0)">
              <g id="Group_1" data-name="Group 1" clip-path="url(#clip-path-3)">
                <path id="Path_1" data-name="Path 1" d="M0,51.845s39.288,6.668,46.8-38.472S0,51.845,0,51.845" transform="translate(0 0)" fill="#e23288"></path>
              </g>
            </g>
          </g>
          <path id="Path_2" data-name="Path 2" d="M0,55.032s27.21-3.8,23.36-35.238S0,55.032,0,55.032" transform="translate(38.87 2.973)" fill="#e23288"></path>
          <path id="Path_3" data-name="Path 3" d="M83.582,48.1V29.839a.949.949,0,0,1,.948-.949H86.6a.949.949,0,0,1,.948.949V48.1a.948.948,0,0,1-.948.948H84.53a.948.948,0,0,1-.948-.948" transform="translate(10.721 -8.343)" fill="#e23288"></path>
          <path id="Path_4" data-name="Path 4" d="M95.237,29.708a1.957,1.957,0,0,1-.164.711l-1.38,3.623a.948.948,0,0,1-.886.612h-.6a.948.948,0,0,1-.887-1.283l.333-.882a.96.96,0,0,0-.27-1.053,2.563,2.563,0,0,1-.9-1.727,2.4,2.4,0,0,1,4.753,0" transform="translate(11.606 -8.504)" fill="#e23288"></path>
          <path id="Path_5" data-name="Path 5" d="M119.918,29.863V48.129a.948.948,0,0,1-.948.948H116.9a.948.948,0,0,1-.949-.948V39.145a.947.947,0,0,0-1.747-.51c-1.093,1.724-2.469,3.894-3.929,6.2a.95.95,0,0,1-.8.442h-.922a.946.946,0,0,1-.8-.442L103.8,38.572a.947.947,0,0,0-1.749.505v9.052a.948.948,0,0,1-.95.948H99.036a.947.947,0,0,1-.947-.948V29.863a.947.947,0,0,1,.947-.948h2.546a.949.949,0,0,1,.8.442l5.83,9.242a.947.947,0,0,0,1.6,0l5.832-9.242a.949.949,0,0,1,.8-.442h2.518a.948.948,0,0,1,.948.948" transform="translate(12.582 -8.339)" fill="#e23288"></path>
          <path id="Path_6" data-name="Path 6" d="M132.349,34.4c.218,2.377,8.633,2.268,11.338,5.245a5.545,5.545,0,0,1,1.448,3.715,4.865,4.865,0,0,1-.218,1.53c-.684,2.431-3.2,3.715-5.437,4.126a10.824,10.824,0,0,1-2.268.218,15.334,15.334,0,0,1-5.545-1.119,25.629,25.629,0,0,1-3.556-1.99.951.951,0,0,1-.236-1.3l1.136-1.683a.954.954,0,0,1,1.394-.2,12.667,12.667,0,0,0,7.436,2.685c1.939,0,3.169-.519,3.36-2.213v-.027c0-3.443-6.829-2.4-10.681-5.11a5.057,5.057,0,0,1-2.214-4.1,4.185,4.185,0,0,1,.192-1.284c.628-2.24,3-3.551,5.082-3.934a16.206,16.206,0,0,1,8.45,1.128c.032.014.061.028.091.044a17.582,17.582,0,0,1,1.9,1.111.945.945,0,0,1,.229,1.291l-.934,1.4a.948.948,0,0,1-1.288.276,12.87,12.87,0,0,0-6.5-1.837c-1.995,0-3.169.438-3.169,1.776Z" transform="translate(16.382 -8.358)" fill="#e23288"></path>
          <path id="Path_7" data-name="Path 7" d="M155.067,29.521l7.054,18.267a.948.948,0,0,1-.885,1.29h-2.173a.947.947,0,0,1-.885-.608l-1.528-3.975a.947.947,0,0,0-.885-.608H150.13a.948.948,0,0,0-.886.608l-1.527,3.975a.95.95,0,0,1-.886.608h-2.173a.949.949,0,0,1-.885-1.29l7.054-18.267a.948.948,0,0,1,.885-.606h2.47a.947.947,0,0,1,.885.606m-.486,9.606-.748-1.938a.948.948,0,0,0-1.769,0l-.749,1.938a.948.948,0,0,0,.885,1.29h1.5a.948.948,0,0,0,.885-1.29" transform="translate(18.434 -8.339)" fill="#e23288"></path>
          <path id="Path_8" data-name="Path 8" d="M165.889,37.087h7.338a.948.948,0,0,1,.948.948v1.547a.948.948,0,0,1-.948.948h-7.338a.948.948,0,0,0-.948.948v6.629a.948.948,0,0,1-.949.948h-2.065a.948.948,0,0,1-.948-.948V29.839a.948.948,0,0,1,.948-.948h12.72a.948.948,0,0,1,.948.948v1.574a.948.948,0,0,1-.948.948h-8.759a.948.948,0,0,0-.948.948v2.831a.948.948,0,0,0,.948.948" transform="translate(20.649 -8.343)" fill="#e23288"></path>
          <path id="Path_9" data-name="Path 9" d="M179.713,33.308v2.83a.948.948,0,0,0,.948.949h7.365a.949.949,0,0,1,.949.948v1.547a.949.949,0,0,1-.949.948h-7.365a.948.948,0,0,0-.948.948v3.185a.949.949,0,0,0,.948.949h8.786a.949.949,0,0,1,.949.948v1.574a.949.949,0,0,1-.949.948H177.391v-.027H176.7a.949.949,0,0,1-.948-.949V29.839a.948.948,0,0,1,.948-.948h12.747a.949.949,0,0,1,.949.948v1.573a.949.949,0,0,1-.949.949h-8.786a.948.948,0,0,0-.948.948" transform="translate(22.544 -8.343)" fill="#e23288"></path>
        </g>
      </g>
    </g>
    <text id="WOMEN_S_SAFETY_APP" data-name="WOMEN’S SAFETY APP" transform="translate(78 57.264)" fill="#1d1d1f" font-size="10" font-family="VisbyCF-Bold, Visby CF" font-weight="700" letter-spacing="0.094em">
      <tspan x="0" y="0">WOMEN’S SAFETY APP</tspan>
    </text>
  </g>
</svg>
