<svg xmlns="http://www.w3.org/2000/svg" xmlns:xlink="http://www.w3.org/1999/xlink" width="537" height="543" viewBox="0 0 537 543"><defs><clipPath id="clip-path"><rect id="abstract-13-light-background-wallpaper-colorful-gradient-blurry-soft-smooth-motion-bright-shine" width="537" height="543" rx="35" transform="translate(0)" fill="#fff"></rect></clipPath></defs><g id="Mask_Group_39415" data-name="Mask Group 39415" transform="translate(0)" opacity="0.026" clip-path="url(#clip-path)" style="mix-blend-mode: normal;isolation: isolate"><g id="Group_78249" data-name="Group 78249" transform="translate(0 0.293)"><circle id="Ellipse_9697" data-name="Ellipse 9697" cx="34" cy="34" r="34" transform="translate(0 -0.293)" fill="#fff"></circle><ellipse id="Ellipse_9698" data-name="Ellipse 9698" cx="34" cy="33.5" rx="34" ry="33.5" transform="translate(0 67.707)" fill="#fff"></ellipse><ellipse id="Ellipse_9699" data-name="Ellipse 9699" cx="34" cy="33.5" rx="34" ry="33.5" transform="translate(0 134.707)" fill="#fff"></ellipse><circle id="Ellipse_9700" data-name="Ellipse 9700" cx="34" cy="34" r="34" transform="translate(0 201.706)" fill="#fff"></circle><ellipse id="Ellipse_9701" data-name="Ellipse 9701" cx="34" cy="33.5" rx="34" ry="33.5" transform="translate(0 269.706)" fill="#fff"></ellipse><ellipse id="Ellipse_9702" data-name="Ellipse 9702" cx="34" cy="33" rx="34" ry="33" transform="translate(0 336.706)" fill="#fff"></ellipse><circle id="Ellipse_9703" data-name="Ellipse 9703" cx="34" cy="34" r="34" transform="translate(0 402.706)" fill="#fff"></circle><ellipse id="Ellipse_9704" data-name="Ellipse 9704" cx="34" cy="33" rx="34" ry="33" transform="translate(0 470.706)" fill="#fff"></ellipse><ellipse id="Ellipse_9768" data-name="Ellipse 9768" cx="34" cy="33" rx="34" ry="33" transform="translate(0 536.706)" fill="#fff"></ellipse><ellipse id="Ellipse_9705" data-name="Ellipse 9705" cx="33" cy="34" rx="33" ry="34" transform="translate(68 -0.293)" fill="#fff"></ellipse><ellipse id="Ellipse_9706" data-name="Ellipse 9706" cx="33" cy="33.5" rx="33" ry="33.5" transform="translate(68 67.707)" fill="#fff"></ellipse><ellipse id="Ellipse_9707" data-name="Ellipse 9707" cx="33" cy="33.5" rx="33" ry="33.5" transform="translate(68 134.707)" fill="#fff"></ellipse><ellipse id="Ellipse_9708" data-name="Ellipse 9708" cx="33" cy="34" rx="33" ry="34" transform="translate(68 201.706)" fill="#fff"></ellipse><ellipse id="Ellipse_9709" data-name="Ellipse 9709" cx="33" cy="33.5" rx="33" ry="33.5" transform="translate(68 269.706)" fill="#fff"></ellipse><circle id="Ellipse_9710" data-name="Ellipse 9710" cx="33" cy="33" r="33" transform="translate(68 336.706)" fill="#fff"></circle><ellipse id="Ellipse_9711" data-name="Ellipse 9711" cx="33" cy="34" rx="33" ry="34" transform="translate(68 402.706)" fill="#fff"></ellipse><circle id="Ellipse_9712" data-name="Ellipse 9712" cx="33" cy="33" r="33" transform="translate(68 470.706)" fill="#fff"></circle><circle id="Ellipse_9767" data-name="Ellipse 9767" cx="33" cy="33" r="33" transform="translate(68 536.706)" fill="#fff"></circle><ellipse id="Ellipse_9713" data-name="Ellipse 9713" cx="33.5" cy="34" rx="33.5" ry="34" transform="translate(134 -0.293)" fill="#fff"></ellipse><circle id="Ellipse_9714" data-name="Ellipse 9714" cx="33.5" cy="33.5" r="33.5" transform="translate(134 67.707)" fill="#fff"></circle><circle id="Ellipse_9715" data-name="Ellipse 9715" cx="33.5" cy="33.5" r="33.5" transform="translate(134 134.707)" fill="#fff"></circle><ellipse id="Ellipse_9716" data-name="Ellipse 9716" cx="33.5" cy="34" rx="33.5" ry="34" transform="translate(134 201.706)" fill="#fff"></ellipse><circle id="Ellipse_9717" data-name="Ellipse 9717" cx="33.5" cy="33.5" r="33.5" transform="translate(134 269.706)" fill="#fff"></circle><ellipse id="Ellipse_9718" data-name="Ellipse 9718" cx="33.5" cy="33" rx="33.5" ry="33" transform="translate(134 336.706)" fill="#fff"></ellipse><ellipse id="Ellipse_9719" data-name="Ellipse 9719" cx="33.5" cy="34" rx="33.5" ry="34" transform="translate(134 402.706)" fill="#fff"></ellipse><ellipse id="Ellipse_9720" data-name="Ellipse 9720" cx="33.5" cy="33" rx="33.5" ry="33" transform="translate(134 470.706)" fill="#fff"></ellipse><ellipse id="Ellipse_9766" data-name="Ellipse 9766" cx="33.5" cy="33" rx="33.5" ry="33" transform="translate(134 536.706)" fill="#fff"></ellipse><ellipse id="Ellipse_9721" data-name="Ellipse 9721" cx="33.5" cy="34" rx="33.5" ry="34" transform="translate(201 -0.293)" fill="#fff"></ellipse><circle id="Ellipse_9722" data-name="Ellipse 9722" cx="33.5" cy="33.5" r="33.5" transform="translate(201 67.707)" fill="#fff"></circle><circle id="Ellipse_9723" data-name="Ellipse 9723" cx="33.5" cy="33.5" r="33.5" transform="translate(201 134.707)" fill="#fff"></circle><ellipse id="Ellipse_9724" data-name="Ellipse 9724" cx="33.5" cy="34" rx="33.5" ry="34" transform="translate(201 201.706)" fill="#fff"></ellipse><circle id="Ellipse_9725" data-name="Ellipse 9725" cx="33.5" cy="33.5" r="33.5" transform="translate(201 269.706)" fill="#fff"></circle><ellipse id="Ellipse_9726" data-name="Ellipse 9726" cx="33.5" cy="33" rx="33.5" ry="33" transform="translate(201 336.706)" fill="#fff"></ellipse><ellipse id="Ellipse_9727" data-name="Ellipse 9727" cx="33.5" cy="34" rx="33.5" ry="34" transform="translate(201 402.706)" fill="#fff"></ellipse><ellipse id="Ellipse_9728" data-name="Ellipse 9728" cx="33.5" cy="33" rx="33.5" ry="33" transform="translate(201 470.706)" fill="#fff"></ellipse><ellipse id="Ellipse_9765" data-name="Ellipse 9765" cx="33.5" cy="33" rx="33.5" ry="33" transform="translate(201 536.706)" fill="#fff"></ellipse><circle id="Ellipse_9729" data-name="Ellipse 9729" cx="34" cy="34" r="34" transform="translate(268 -0.293)" fill="#fff"></circle><ellipse id="Ellipse_9730" data-name="Ellipse 9730" cx="34" cy="33.5" rx="34" ry="33.5" transform="translate(268 67.707)" fill="#fff"></ellipse><ellipse id="Ellipse_9731" data-name="Ellipse 9731" cx="34" cy="33.5" rx="34" ry="33.5" transform="translate(268 134.707)" fill="#fff"></ellipse><circle id="Ellipse_9732" data-name="Ellipse 9732" cx="34" cy="34" r="34" transform="translate(268 201.706)" fill="#fff"></circle><ellipse id="Ellipse_9733" data-name="Ellipse 9733" cx="34" cy="33.5" rx="34" ry="33.5" transform="translate(268 269.706)" fill="#fff"></ellipse><ellipse id="Ellipse_9734" data-name="Ellipse 9734" cx="34" cy="33" rx="34" ry="33" transform="translate(268 336.706)" fill="#fff"></ellipse><circle id="Ellipse_9735" data-name="Ellipse 9735" cx="34" cy="34" r="34" transform="translate(268 402.706)" fill="#fff"></circle><ellipse id="Ellipse_9736" data-name="Ellipse 9736" cx="34" cy="33" rx="34" ry="33" transform="translate(268 470.706)" fill="#fff"></ellipse><ellipse id="Ellipse_9762" data-name="Ellipse 9762" cx="34" cy="33" rx="34" ry="33" transform="translate(268 536.706)" fill="#fff"></ellipse><ellipse id="Ellipse_9737" data-name="Ellipse 9737" cx="33.5" cy="34" rx="33.5" ry="34" transform="translate(336 -0.293)" fill="#fff"></ellipse><circle id="Ellipse_9738" data-name="Ellipse 9738" cx="33.5" cy="33.5" r="33.5" transform="translate(336 67.707)" fill="#fff"></circle><circle id="Ellipse_9739" data-name="Ellipse 9739" cx="33.5" cy="33.5" r="33.5" transform="translate(336 134.707)" fill="#fff"></circle><ellipse id="Ellipse_9740" data-name="Ellipse 9740" cx="33.5" cy="34" rx="33.5" ry="34" transform="translate(336 201.706)" fill="#fff"></ellipse><circle id="Ellipse_9741" data-name="Ellipse 9741" cx="33.5" cy="33.5" r="33.5" transform="translate(336 269.706)" fill="#fff"></circle><ellipse id="Ellipse_9742" data-name="Ellipse 9742" cx="33.5" cy="33" rx="33.5" ry="33" transform="translate(336 336.706)" fill="#fff"></ellipse><ellipse id="Ellipse_9743" data-name="Ellipse 9743" cx="33.5" cy="34" rx="33.5" ry="34" transform="translate(336 402.706)" fill="#fff"></ellipse><ellipse id="Ellipse_9744" data-name="Ellipse 9744" cx="33.5" cy="33" rx="33.5" ry="33" transform="translate(336 470.706)" fill="#fff"></ellipse><ellipse id="Ellipse_9763" data-name="Ellipse 9763" cx="33.5" cy="33" rx="33.5" ry="33" transform="translate(336 536.706)" fill="#fff"></ellipse><ellipse id="Ellipse_9745" data-name="Ellipse 9745" cx="33.5" cy="34" rx="33.5" ry="34" transform="translate(403 -0.293)" fill="#fff"></ellipse><circle id="Ellipse_9746" data-name="Ellipse 9746" cx="33.5" cy="33.5" r="33.5" transform="translate(403 67.707)" fill="#fff"></circle><circle id="Ellipse_9747" data-name="Ellipse 9747" cx="33.5" cy="33.5" r="33.5" transform="translate(403 134.707)" fill="#fff"></circle><ellipse id="Ellipse_9748" data-name="Ellipse 9748" cx="33.5" cy="34" rx="33.5" ry="34" transform="translate(403 201.706)" fill="#fff"></ellipse><circle id="Ellipse_9749" data-name="Ellipse 9749" cx="33.5" cy="33.5" r="33.5" transform="translate(403 269.706)" fill="#fff"></circle><ellipse id="Ellipse_9750" data-name="Ellipse 9750" cx="33.5" cy="33" rx="33.5" ry="33" transform="translate(403 336.706)" fill="#fff"></ellipse><ellipse id="Ellipse_9751" data-name="Ellipse 9751" cx="33.5" cy="34" rx="33.5" ry="34" transform="translate(403 402.706)" fill="#fff"></ellipse><ellipse id="Ellipse_9752" data-name="Ellipse 9752" cx="33.5" cy="33" rx="33.5" ry="33" transform="translate(403 470.706)" fill="#fff"></ellipse><ellipse id="Ellipse_9764" data-name="Ellipse 9764" cx="33.5" cy="33" rx="33.5" ry="33" transform="translate(403 536.706)" fill="#fff"></ellipse><ellipse id="Ellipse_9753" data-name="Ellipse 9753" cx="33.5" cy="34" rx="33.5" ry="34" transform="translate(470 -0.293)" fill="#fff"></ellipse><circle id="Ellipse_9754" data-name="Ellipse 9754" cx="33.5" cy="33.5" r="33.5" transform="translate(470 67.707)" fill="#fff"></circle><circle id="Ellipse_9755" data-name="Ellipse 9755" cx="33.5" cy="33.5" r="33.5" transform="translate(470 134.707)" fill="#fff"></circle><ellipse id="Ellipse_9756" data-name="Ellipse 9756" cx="33.5" cy="34" rx="33.5" ry="34" transform="translate(470 201.706)" fill="#fff"></ellipse><circle id="Ellipse_9757" data-name="Ellipse 9757" cx="33.5" cy="33.5" r="33.5" transform="translate(470 269.706)" fill="#fff"></circle><ellipse id="Ellipse_9758" data-name="Ellipse 9758" cx="33.5" cy="33" rx="33.5" ry="33" transform="translate(470 336.706)" fill="#fff"></ellipse><ellipse id="Ellipse_9759" data-name="Ellipse 9759" cx="33.5" cy="34" rx="33.5" ry="34" transform="translate(470 402.706)" fill="#fff"></ellipse><ellipse id="Ellipse_9760" data-name="Ellipse 9760" cx="33.5" cy="33" rx="33.5" ry="33" transform="translate(470 470.706)" fill="#fff"></ellipse><ellipse id="Ellipse_9761" data-name="Ellipse 9761" cx="33.5" cy="33" rx="33.5" ry="33" transform="translate(470 536.706)" fill="#fff"></ellipse></g></g></svg>