<?xml version="1.0" encoding="UTF-8"?>
<svg xmlns="http://www.w3.org/2000/svg" id="noun-mail-1707176" width="18.686" height="13.347" viewBox="0 0 18.686 13.347">
  <path id="Path_140995" data-name="Path 140995" d="M116.8,112a2.036,2.036,0,0,0-2,2.051v9.239a2.042,2.042,0,0,0,2,2.058h14.682a2.042,2.042,0,0,0,2-2.058v-9.239a2.036,2.036,0,0,0-2-2.051Zm.1,1.335H131.4l-6.854,6.507a.515.515,0,0,1-.779,0Zm-.765,1.112,4.546,4.31-4.546,4.532Zm16.017,0v8.843l-4.533-4.54Zm-5.492,5.221,4.331,4.345H117.3l4.345-4.338,1.2,1.133a1.914,1.914,0,0,0,2.614,0Z" transform="translate(-114.802 -112)" fill="#fff"></path>
</svg>
