<svg id="Group_463" data-name="Group 463" xmlns="http://www.w3.org/2000/svg" xmlns:xlink="http://www.w3.org/1999/xlink" width="418.162" height="590.84" viewBox="0 0 418.162 590.84">
  <defs>
    <clipPath id="clip-path">
      <rect id="Rectangle_266" data-name="Rectangle 266" width="418.162" height="590.84" fill="none"/>
    </clipPath>
    <clipPath id="clip-path-2">
      <rect id="Rectangle_265" data-name="Rectangle 265" width="418.162" height="590.842" fill="none"/>
    </clipPath>
    <clipPath id="clip-path-3">
      <rect id="Rectangle_264" data-name="Rectangle 264" width="40.814" height="34.473" fill="none"/>
    </clipPath>
  </defs>
  <g id="Group_462" data-name="Group 462" clip-path="url(#clip-path)">
    <g id="Group_461" data-name="Group 461" transform="translate(0 -0.002)">
      <g id="Group_460" data-name="Group 460" clip-path="url(#clip-path-2)">
        <path id="Path_5386" data-name="Path 5386" d="M607.218,130.322c.938-3.689,2.036-7.353,5.907-8.94,3.352-1.374,7.338.054,9.542,2.806,6.387,7.976-6.483,22.642-14.318,29.3-2.213,1.881-5.363,3.378-6.5,6.125q.352-.607.706-1.213c-.34.389-.678.78-1.021,1.168-1.459,1.657-.085,4.57,2.255,3.875,3.015-.9,3.151-.6,8.251-4.772a67.688,67.688,0,0,0,6.716-6.315c4.242-4.571,8.213-9.742,10.532-15.572,5.849-14.7-7.1-25.343-17.784-21.5-5.67,2.042-11.3,8.676-9.394,15.032.732,2.439,4.442,2.593,5.1,0" transform="translate(-360.277 -68.642)" fill="#fc008b"/>
        <path id="Path_5387" data-name="Path 5387" d="M602.374,271.243c4.092,0,4.1-6.36,0-6.36s-4.1,6.36,0,6.36" transform="translate(-359.295 -158.802)" fill="#fc008b"/>
        <path id="Path_5388" data-name="Path 5388" d="M496.315,27.283c-2.4-6.472-.644-14.729,5.291-18.748,5.773-3.91,14.06-2.68,18.867,2.236,6.224,6.365,5.168,17.794,2.643,25.55a35.7,35.7,0,0,1-6.427,11.754c-3.132,3.752-6.932,6.855-10.523,10.145-7.427,6.8-15.881,17.647-10.811,28.175,1.29,2.678,5.037.688,4.536-1.912-3.08-15.992,15.528-23.28,24.172-36.282a42.534,42.534,0,0,0,5.988-14c2.2-9.655,1.708-22.076-6.413-28.963C516.9-.479,506.456-1.959,498.858,3c-8.425,5.5-12.053,17.251-7.3,26.285,1.348,2.56,5.791.792,4.753-2" transform="translate(-293.435 0.004)" fill="#fc008b"/>
        <path id="Path_5389" data-name="Path 5389" d="M520.706,247.633a5.68,5.68,0,1,1-5.68-5.68,5.68,5.68,0,0,1,5.68,5.68" transform="translate(-305.365 -145.055)" fill="#fc008b"/>
        <path id="Path_5390" data-name="Path 5390" d="M305.888,329.661c-7.476-12.026-20.652-21.039-35.273-21.067-26.363-.051-42.028,12.522-50.694,26.722l-.842,1.382c-19.987,32.9-30.944,56.179-66.118,70.592-82.524,33.813-63.766,124.724-12.45,157.9,81.421,52.645,133.1.719,161.165-61.765,43.487-96.8,9.509-165.248,4.211-173.769" transform="translate(-57.865 -185.007)" fill="#2d2861"/>
        <path id="Path_5391" data-name="Path 5391" d="M340.761,1100.759s-19.641,33.281-27.314,63.163c-5.3,20.648-7.974,82.887-7.974,82.887H472.779s-18.671-124.47-53.749-140.4-78.269-5.647-78.269-5.647" transform="translate(-183.139 -657.969)" fill="#fc008b"/>
        <path id="Path_5392" data-name="Path 5392" d="M458.7,676.053c-24.292-2.28-90.089,3.675-119.934,8.5-4.263.689,20.688,148.741,13.865,174.767l-13.893,28.449s83.664,17.969,125.719-4.762l-23.507-35.865c4.19-19.183,36.383-169.34,17.75-171.089" transform="translate(-202.801 -405.006)" fill="#fcc13f"/>
        <path id="Path_5393" data-name="Path 5393" d="M440.72,574.179s-3.628,88.356,17.361,90.17,21.486-52.033,21.754-58.643l1.46-35.992Z" transform="translate(-264.078 -341.555)" fill="#f7a491"/>
        <g id="Group_459" data-name="Group 459" transform="translate(176.402 228.159)" opacity="0.5" style="mix-blend-mode: multiply;isolation: isolate">
          <g id="Group_458" data-name="Group 458">
            <g id="Group_457" data-name="Group 457" clip-path="url(#clip-path-3)">
              <path id="Path_5394" data-name="Path 5394" d="M440.5,592.966c13.4,15.677,32.831,13.242,39.729,3.008l1.066-26.259-40.575,4.465s-.32,7.788-.22,18.786" transform="translate(-440.48 -569.714)" fill="#f47458"/>
            </g>
          </g>
        </g>
        <path id="Path_5395" data-name="Path 5395" d="M433.5,868.739c10.368-3.35,48.511-179.965-4.4-192.375,0,0,1.221,3.889-.608,36.428-2.132,37.937-13.331,121.526-13.331,121.526s-47.73-11.892-85.325-7.672l-31.566,18.37-4.814,20.521s11.424,11.424,13.811,11.424-3.925-10.06-3.925-10.06,5.885,5.883,7.335,4.432-2.652-9.377-2.652-9.377l22.771-12.106s92.336,22.239,102.7,18.889" transform="translate(-175.932 -405.494)" fill="#f7a491"/>
        <path id="Path_5396" data-name="Path 5396" d="M619.627,676.266s-1.557.356-1.947,36.467c-.209,19.423-3.264,50.747-6.311,76.728a225.909,225.909,0,0,1,39.673,1.589c8.716-54.231,3.876-113.608-31.416-114.784" transform="translate(-366.53 -405.435)" fill="#ffa42f"/>
        <path id="Path_5397" data-name="Path 5397" d="M272.973,735.65c-.447,36.843,4.092,92.91,27.62,124.683,6.147,8.3,17.9-15.491,17.9-15.491s-9.1-148.356-18.939-146.816c-9.016,1.411-26.217,7.3-26.586,37.623" transform="translate(-163.636 -418.474)" fill="#f48c7f"/>
        <path id="Path_5398" data-name="Path 5398" d="M311.175,811.333c-3.33-43.661-9.784-114.372-16.593-113.306-9.016,1.411-29.542,7.3-29.91,37.623-.3,24.349,1.616,58.362,9.718,86.942,7.338-4.211,18.217-9.385,26.854-9.974a78.545,78.545,0,0,0,9.931-1.284" transform="translate(-158.66 -418.474)" fill="#ffa42f"/>
        <path id="Path_5399" data-name="Path 5399" d="M437.929,602.917a56.089,56.089,0,0,0-1.876,7.587c-.767,4.348.938,8.61-2.387,12.873s8.854,29.76,8.854,29.76,2.57-9.385,1.462-17.484.3-28.091,1.961-29.753-8.014-2.984-8.014-2.984" transform="translate(-259.648 -361.461)" fill="#f48c7f"/>
        <path id="Path_5400" data-name="Path 5400" d="M357.95,557.3l-8.973,9.719L342.6,575.8s1.535,15.942.682,18.756-.427,4.774.6,8.44,7.672,21.74,8.1,28.645c0,0-12.233,37.894-15.047,44.544s-15,52.8-17.519,65.09c-1.681,8.212,5.443,35.668,13.323,39.073,7.682,3.319,16.794,4.432,24.272-39.073,1.891-11,14.578-96.931,14.578-100.511s3.565-7.506,3.837-14.971c.32-8.808-8.44-18.788-8.44-18.788l5.754-9.335,5.115-.639s5.563,5.563,7.161,3.964-2.941-6.778-2.941-6.778,1.79,2.131,3.282.64-6.862-11-6.862-11l-12.66-5.882-2.557.384-10.93,10.23-.579-12.021,4.6-8.568S364.9,559,357.95,557.3" transform="translate(-191.349 -334.11)" fill="#f79c8d"/>
        <path id="Path_5401" data-name="Path 5401" d="M445.108,643.163c-.4-.172-.8-.356-1.194-.543s-.783-.382-1.175-.574-.774-.4-1.161-.6-.771-.4-1.151-.613l.248.07c-.782.044-1.563.082-2.345.107s-1.563.041-2.344.051l.394-.139q-2.47,2.033-5.046,3.935c-.865.625-1.73,1.251-2.616,1.851s-1.777,1.193-2.708,1.737c.732-.791,1.5-1.533,2.28-2.27s1.574-1.446,2.371-2.156q2.41-2.107,4.929-4.079l.181-.141.214,0q1.172.014,2.344.051c.781.024,1.563.063,2.345.106l.157.009.09.061q.538.367,1.066.751c.351.256.709.5,1.056.768s.7.518,1.041.791.688.539,1.023.821" transform="translate(-255.403 -383.575)" fill="#f47458"/>
        <path id="Path_5402" data-name="Path 5402" d="M442.683,630.8c-.39-.448-.765-.906-1.138-1.366l-1.1-1.392-1.072-1.409-1.047-1.426.278.208c-.713-.187-1.42-.4-2.13-.6s-1.416-.41-2.122-.62c-1.41-.431-2.816-.872-4.215-1.338l.537-.084-2.128,1.415-2.154,1.378c-.728.443-1.45.9-2.19,1.326s-1.479.857-2.236,1.261q.953-.864,1.941-1.68c.653-.552,1.324-1.078,1.987-1.615l2.024-1.564,2.049-1.526.233-.173.3.089c1.415.415,2.822.855,4.225,1.306.7.23,1.4.457,2.1.7s1.4.472,2.09.726l.2.071.082.137.914,1.516.888,1.531.863,1.549c.28.521.56,1.042.823,1.575" transform="translate(-252.979 -372.662)" fill="#f47458"/>
        <path id="Path_5403" data-name="Path 5403" d="M413.609,364.783s-5.527,12.437-5.527,38.348,6.219,40.767,18.31,49.4,26.035,4.79,32.821,0c12.252-8.649,24.183-40.767,20.728-63.568s-13.819-67.714-66.332-24.184" transform="translate(-244.654 -207.732)" fill="#f7a491"/>
        <path id="Path_5404" data-name="Path 5404" d="M425.569,325.727c-1.209,0-17.1,6.219-24.7,22.456s0,38.349,0,38.349,5.777-14.51,10.662-15.72,23.54,4.837,30.969-2.591,16.583-22.8,16.583-22.8-1.814,19.606-7.428,25.22,16.925,8.81,22.368,1.9,8.034,21.593,8.034,21.593,2.764-36.621-14.683-55.449-41.8-12.955-41.8-12.955" transform="translate(-238.304 -194.76)" fill="#2d2861"/>
        <path id="Path_5405" data-name="Path 5405" d="M416.16,1469.345H2a2,2,0,1,1,0-4H416.16a2,2,0,1,1,0,4" transform="translate(0 -878.503)" fill="#e23288"/>
      </g>
    </g>
  </g>
</svg>
