<svg xmlns="http://www.w3.org/2000/svg" xmlns:xlink="http://www.w3.org/1999/xlink" width="174.676" height="73.669" viewBox="0 0 174.676 73.669">
  <defs>
    <clipPath id="clip-path">
      <rect id="Rectangle_3" data-name="Rectangle 3" width="174.676" height="73.669" fill="#8a6ff8"/>
    </clipPath>
    <clipPath id="clip-path-2">
      <rect id="Rectangle_2" data-name="Rectangle 2" width="195.108" height="73.669" fill="#8a6ff8"/>
    </clipPath>
    <clipPath id="clip-path-3">
      <rect id="Rectangle_1" data-name="Rectangle 1" width="50.645" height="55.638" fill="#8a6ff8"/>
    </clipPath>
  </defs>
  <g id="Group_46012" data-name="Group 46012" transform="translate(-18)">
    <g id="Group_6" data-name="Group 6" transform="translate(18)" clip-path="url(#clip-path)">
      <g id="Group_5" data-name="Group 5" transform="translate(-20.432 0)">
        <g id="Group_4" data-name="Group 4" clip-path="url(#clip-path-2)">
          <g id="Group_3" data-name="Group 3" transform="translate(23.887 5.543)" opacity="0.82">
            <g id="Group_2" data-name="Group 2" transform="translate(0)">
              <g id="Group_1" data-name="Group 1" clip-path="url(#clip-path-3)">
                <path id="Path_1" data-name="Path 1" d="M0,55.268s41.883,7.108,49.886-41.012S0,55.268,0,55.268" transform="translate(0 0)" fill="#8a6ff8"/>
              </g>
            </g>
          </g>
          <path id="Path_2" data-name="Path 2" d="M0,57.915S29.007,53.859,24.9,20.35,0,57.915,0,57.915" transform="translate(23.888 2.906)" fill="#8a6ff8"/>
          <path id="Path_3" data-name="Path 3" d="M83.582,46.205V29.745a.855.855,0,0,1,.854-.855H86.3a.855.855,0,0,1,.854.855v16.46a.854.854,0,0,1-.854.854H84.436a.854.854,0,0,1-.854-.854" transform="translate(1.401 -10.373)" fill="#8a6ff8"/>
          <path id="Path_4" data-name="Path 4" d="M94.768,29.5a1.764,1.764,0,0,1-.147.641l-1.244,3.265a.854.854,0,0,1-.8.551H92.04a.854.854,0,0,1-.8-1.156l.3-.8a.865.865,0,0,0-.243-.949,2.31,2.31,0,0,1-.813-1.557,2.161,2.161,0,0,1,4.284,0" transform="translate(1.517 -10.394)" fill="#8a6ff8"/>
          <path id="Path_5" data-name="Path 5" d="M117.76,29.769V46.23a.854.854,0,0,1-.854.854h-1.862a.854.854,0,0,1-.855-.854v-8.1a.854.854,0,0,0-1.574-.46c-.985,1.554-2.225,3.509-3.54,5.589a.856.856,0,0,1-.723.4h-.831a.853.853,0,0,1-.722-.4l-3.565-5.646a.854.854,0,0,0-1.576.456V46.23a.854.854,0,0,1-.856.854H98.942a.854.854,0,0,1-.853-.854V29.769a.854.854,0,0,1,.853-.854h2.295a.856.856,0,0,1,.723.4l5.254,8.328a.854.854,0,0,0,1.445,0l5.256-8.328a.856.856,0,0,1,.723-.4h2.269a.854.854,0,0,1,.854.854" transform="translate(1.644 -10.373)" fill="#8a6ff8"/>
          <path id="Path_6" data-name="Path 6" d="M131.891,33.841c.2,2.142,7.78,2.044,10.217,4.727a5,5,0,0,1,1.3,3.348,4.384,4.384,0,0,1-.2,1.379c-.616,2.191-2.882,3.348-4.9,3.718a9.753,9.753,0,0,1-2.044.2,13.819,13.819,0,0,1-5-1.009,23.1,23.1,0,0,1-3.2-1.794.857.857,0,0,1-.212-1.174l1.024-1.517a.859.859,0,0,1,1.256-.176,11.415,11.415,0,0,0,6.7,2.42c1.748,0,2.856-.468,3.028-1.994v-.024c0-3.1-6.154-2.167-9.626-4.6a4.557,4.557,0,0,1-1.995-3.693,3.772,3.772,0,0,1,.173-1.157c.566-2.018,2.708-3.2,4.579-3.545a14.6,14.6,0,0,1,7.615,1.017c.028.012.055.025.082.04a15.844,15.844,0,0,1,1.709,1,.851.851,0,0,1,.206,1.163l-.842,1.263a.854.854,0,0,1-1.161.249,11.6,11.6,0,0,0-5.862-1.655c-1.8,0-2.856.395-2.856,1.6Z" transform="translate(2.141 -10.375)" fill="#8a6ff8"/>
          <path id="Path_7" data-name="Path 7" d="M153.945,29.461,160.3,45.922a.854.854,0,0,1-.8,1.162h-1.958a.854.854,0,0,1-.8-.548l-1.377-3.582a.854.854,0,0,0-.8-.548H149.5a.855.855,0,0,0-.8.548l-1.376,3.582a.856.856,0,0,1-.8.548h-1.958a.855.855,0,0,1-.8-1.162l6.357-16.461a.854.854,0,0,1,.8-.546h2.226a.853.853,0,0,1,.8.546m-.438,8.657-.674-1.747a.854.854,0,0,0-1.594,0l-.675,1.747a.855.855,0,0,0,.8,1.162h1.349a.854.854,0,0,0,.8-1.162" transform="translate(2.409 -10.373)" fill="#8a6ff8"/>
          <path id="Path_8" data-name="Path 8" d="M165.4,36.277h6.613a.854.854,0,0,1,.854.854v1.394a.854.854,0,0,1-.854.854H165.4a.854.854,0,0,0-.854.854v5.973a.854.854,0,0,1-.855.854h-1.861a.854.854,0,0,1-.854-.854V29.745a.854.854,0,0,1,.854-.854H173.3a.854.854,0,0,1,.854.854v1.418a.854.854,0,0,1-.854.854H165.4a.854.854,0,0,0-.854.854v2.551a.854.854,0,0,0,.854.854" transform="translate(2.699 -10.373)" fill="#8a6ff8"/>
          <path id="Path_9" data-name="Path 9" d="M179.322,32.872v2.55a.854.854,0,0,0,.854.855h6.637a.855.855,0,0,1,.855.854v1.394a.855.855,0,0,1-.855.854h-6.637a.854.854,0,0,0-.854.854V43.1a.855.855,0,0,0,.854.855h7.917a.855.855,0,0,1,.855.854v1.418a.855.855,0,0,1-.855.854H177.229v-.024h-.623a.855.855,0,0,1-.854-.855V29.745a.854.854,0,0,1,.854-.854h11.487a.855.855,0,0,1,.855.854v1.417a.855.855,0,0,1-.855.855h-7.917a.854.854,0,0,0-.854.854" transform="translate(2.946 -10.373)" fill="#8a6ff8"/>
        </g>
      </g>
    </g>
    <text id="Organisation" transform="translate(80.155 56.271)" fill="#1d1d1f" font-size="14" font-family="VisbyCF-DemiBold, Visby CF" font-weight="300" letter-spacing="0.174em"><tspan x="0" y="0">Organisation</tspan></text>
  </g>
</svg>
