<svg id="Group_46036" data-name="Group 46036" xmlns="http://www.w3.org/2000/svg" xmlns:xlink="http://www.w3.org/1999/xlink" width="144.611" height="60.988" viewBox="0 0 144.611 60.988">
  <defs>
    <clipPath id="clip-path">
      <rect id="Rectangle_3" data-name="Rectangle 3" width="144.611" height="60.988" fill="#e23288"/>
    </clipPath>
    <clipPath id="clip-path-2">
      <rect id="Rectangle_2" data-name="Rectangle 2" width="161.526" height="60.988" fill="#e23288"/>
    </clipPath>
    <clipPath id="clip-path-3">
      <rect id="Rectangle_1" data-name="Rectangle 1" width="41.928" height="46.061" fill="#e23288"/>
    </clipPath>
  </defs>
  <g id="Group_6" data-name="Group 6" transform="translate(0)" clip-path="url(#clip-path)">
    <g id="Group_5" data-name="Group 5" transform="translate(-16.915 0)">
      <g id="Group_4" data-name="Group 4" clip-path="url(#clip-path-2)">
        <g id="Group_3" data-name="Group 3" transform="translate(19.775 4.589)" opacity="0.82">
          <g id="Group_2" data-name="Group 2" transform="translate(0)">
            <g id="Group_1" data-name="Group 1" clip-path="url(#clip-path-3)">
              <path id="Path_1" data-name="Path 1" d="M0,45.755S34.674,51.64,41.3,11.8,0,45.755,0,45.755" transform="translate(0 0)" fill="#e23288"/>
            </g>
          </g>
        </g>
        <path id="Path_2" data-name="Path 2" d="M0,49.9s24.014-3.358,20.617-31.1S0,49.9,0,49.9" transform="translate(19.776 0.448)" fill="#e23288"/>
        <path id="Path_3" data-name="Path 3" d="M83.582,43.225V29.6a.708.708,0,0,1,.707-.708H85.83a.708.708,0,0,1,.707.708V43.225a.707.707,0,0,1-.707.707H84.289a.707.707,0,0,1-.707-.707" transform="translate(-13.226 -13.561)" fill="#e23288"/>
        <path id="Path_4" data-name="Path 4" d="M94.03,29.181a1.46,1.46,0,0,1-.122.53l-1.029,2.7a.707.707,0,0,1-.661.456h-.446a.707.707,0,0,1-.662-.957l.248-.658a.716.716,0,0,0-.2-.785,1.912,1.912,0,0,1-.673-1.289,1.789,1.789,0,0,1,3.546,0" transform="translate(-14.318 -13.362)" fill="#e23288"/>
        <path id="Path_5" data-name="Path 5" d="M114.374,29.622V43.25a.707.707,0,0,1-.707.707h-1.541a.707.707,0,0,1-.708-.707v-6.7a.707.707,0,0,0-1.3-.38c-.816,1.286-1.842,2.9-2.931,4.627a.708.708,0,0,1-.6.33H105.9a.706.706,0,0,1-.6-.33l-2.951-4.674a.707.707,0,0,0-1.3.377V43.25a.707.707,0,0,1-.709.707H98.8a.707.707,0,0,1-.706-.707V29.622a.707.707,0,0,1,.706-.707h1.9a.708.708,0,0,1,.6.33l4.349,6.895a.707.707,0,0,0,1.2,0l4.351-6.895a.708.708,0,0,1,.6-.33h1.879a.707.707,0,0,1,.707.707" transform="translate(-15.522 -13.565)" fill="#e23288"/>
        <path id="Path_6" data-name="Path 6" d="M131.172,32.968c.162,1.774,6.441,1.692,8.459,3.913a4.137,4.137,0,0,1,1.08,2.772,3.629,3.629,0,0,1-.162,1.141c-.51,1.814-2.386,2.772-4.056,3.078a8.075,8.075,0,0,1-1.692.162,11.44,11.44,0,0,1-4.137-.835,19.12,19.12,0,0,1-2.653-1.485.709.709,0,0,1-.176-.972l.848-1.256a.712.712,0,0,1,1.04-.146,9.45,9.45,0,0,0,5.548,2c1.447,0,2.364-.387,2.507-1.651v-.02c0-2.569-5.1-1.794-7.969-3.812a3.773,3.773,0,0,1-1.652-3.057,3.123,3.123,0,0,1,.143-.958c.469-1.671,2.242-2.649,3.791-2.935a12.091,12.091,0,0,1,6.3.842c.024.01.045.021.068.033a13.118,13.118,0,0,1,1.415.829.7.7,0,0,1,.171.963l-.7,1.045a.707.707,0,0,1-.961.206,9.6,9.6,0,0,0-4.853-1.37c-1.488,0-2.365.327-2.365,1.325Z" transform="translate(-20.209 -13.541)" fill="#e23288"/>
        <path id="Path_7" data-name="Path 7" d="M152.183,29.367l5.263,13.628a.707.707,0,0,1-.66.962h-1.621a.707.707,0,0,1-.66-.454l-1.14-2.965a.707.707,0,0,0-.66-.454H148.5a.708.708,0,0,0-.661.454L146.7,43.5a.709.709,0,0,1-.661.454h-1.621a.708.708,0,0,1-.66-.962l5.263-13.628a.707.707,0,0,1,.66-.452h1.843a.706.706,0,0,1,.66.452m-.363,7.167-.558-1.446a.707.707,0,0,0-1.32,0l-.559,1.446a.708.708,0,0,0,.66.962h1.117a.707.707,0,0,0,.66-.962" transform="translate(-22.741 -13.565)" fill="#e23288"/>
        <path id="Path_8" data-name="Path 8" d="M164.642,35.005h5.475a.707.707,0,0,1,.707.707v1.154a.707.707,0,0,1-.707.707h-5.475a.707.707,0,0,0-.707.707v4.945a.707.707,0,0,1-.708.707h-1.54a.707.707,0,0,1-.707-.707V29.6a.707.707,0,0,1,.707-.707h9.49a.707.707,0,0,1,.707.707v1.174a.707.707,0,0,1-.707.707h-6.535a.707.707,0,0,0-.707.707V34.3a.707.707,0,0,0,.707.707" transform="translate(-25.474 -13.561)" fill="#e23288"/>
        <path id="Path_9" data-name="Path 9" d="M178.707,32.186V34.3a.707.707,0,0,0,.707.708h5.5a.708.708,0,0,1,.708.707v1.154a.708.708,0,0,1-.708.707h-5.5a.707.707,0,0,0-.707.707v2.376a.708.708,0,0,0,.707.708h6.555a.708.708,0,0,1,.708.707v1.174a.708.708,0,0,1-.708.707h-8.994v-.02h-.516a.708.708,0,0,1-.707-.708V29.6a.707.707,0,0,1,.707-.707h9.51a.708.708,0,0,1,.708.707v1.173a.708.708,0,0,1-.708.708h-6.555a.707.707,0,0,0-.707.707" transform="translate(-27.811 -13.561)" fill="#e23288"/>
      </g>
    </g>
  </g>
  <text id="Personal_app" data-name="Personal app" transform="translate(51.457 46.339)" fill="#1d1d1f" font-size="11" font-family="VisbyCF-DemiBold, Visby CF" font-weight="300" letter-spacing="0.161em"><tspan x="0" y="0">Personal app</tspan></text>
</svg>
