<svg id="Group_8" data-name="Group 8" xmlns="http://www.w3.org/2000/svg" xmlns:xlink="http://www.w3.org/1999/xlink" width="175.993" height="66.452" viewBox="0 0 175.993 66.452">
  <defs>
    <clipPath id="clip-path">
      <rect id="Rectangle_3" data-name="Rectangle 3" width="175.993" height="66.451" fill="none"/>
    </clipPath>
    <clipPath id="clip-path-3">
      <rect id="Rectangle_1" data-name="Rectangle 1" width="60.489" height="66.452" fill="none"/>
    </clipPath>
  </defs>
  <g id="Group_6" data-name="Group 6" clip-path="url(#clip-path)">
    <g id="Group_5" data-name="Group 5" transform="translate(0 0)">
      <g id="Group_4" data-name="Group 4" clip-path="url(#clip-path)">
        <g id="Group_3" data-name="Group 3" transform="translate(0 0)" opacity="0.82">
          <g id="Group_2" data-name="Group 2" transform="translate(0 0)">
            <g id="Group_1" data-name="Group 1" clip-path="url(#clip-path-3)">
              <path id="Path_1" data-name="Path 1" d="M0,66.01S50.023,74.5,59.582,17.027,0,66.01,0,66.01" transform="translate(0 0)" fill="#e23288"/>
            </g>
          </g>
        </g>
        <path id="Path_2" data-name="Path 2" d="M0,66.961S34.644,62.117,29.743,22.1,0,66.961,0,66.961" transform="translate(0 -0.942)" fill="#e23288"/>
        <path id="Path_3" data-name="Path 3" d="M83.582,44.509V29.661a.771.771,0,0,1,.77-.771h1.679a.771.771,0,0,1,.77.771V44.509a.77.77,0,0,1-.77.77H84.352a.77.77,0,0,1-.77-.77" transform="translate(-6.925 1.294)" fill="#e33387"/>
        <path id="Path_4" data-name="Path 4" d="M94.348,29.32a1.591,1.591,0,0,1-.133.578l-1.122,2.945a.77.77,0,0,1-.72.5h-.486a.77.77,0,0,1-.721-1.043l.271-.717a.78.78,0,0,0-.219-.856,2.084,2.084,0,0,1-.734-1.4,1.95,1.95,0,0,1,3.864,0" transform="translate(-7.496 1.398)" fill="#e33387"/>
        <path id="Path_5" data-name="Path 5" d="M115.833,29.685V44.534a.77.77,0,0,1-.77.77h-1.679a.771.771,0,0,1-.771-.77v-7.3a.77.77,0,0,0-1.42-.415c-.889,1.4-2.007,3.165-3.194,5.042a.772.772,0,0,1-.652.36H106.6a.769.769,0,0,1-.651-.36l-3.216-5.093a.77.77,0,0,0-1.422.411v7.358a.771.771,0,0,1-.772.77H98.859a.77.77,0,0,1-.77-.77V29.685a.77.77,0,0,1,.77-.77h2.07a.772.772,0,0,1,.652.36l4.739,7.512a.77.77,0,0,0,1.3,0l4.741-7.512a.772.772,0,0,1,.652-.36h2.047a.77.77,0,0,1,.77.77" transform="translate(-8.127 1.292)" fill="#e33387"/>
        <path id="Path_6" data-name="Path 6" d="M131.482,33.344c.177,1.932,7.018,1.843,9.216,4.264a4.508,4.508,0,0,1,1.177,3.02,3.954,3.954,0,0,1-.177,1.244c-.556,1.976-2.6,3.02-4.42,3.354a8.8,8.8,0,0,1-1.844.177,12.465,12.465,0,0,1-4.508-.91,20.831,20.831,0,0,1-2.891-1.618.773.773,0,0,1-.192-1.059l.924-1.368a.775.775,0,0,1,1.133-.159,10.3,10.3,0,0,0,6.045,2.183c1.577,0,2.576-.422,2.731-1.8v-.022c0-2.8-5.552-1.954-8.683-4.154a4.111,4.111,0,0,1-1.8-3.331,3.4,3.4,0,0,1,.156-1.044c.511-1.821,2.442-2.886,4.131-3.2a13.174,13.174,0,0,1,6.869.917c.026.011.05.023.074.036a14.291,14.291,0,0,1,1.542.9.768.768,0,0,1,.186,1.049l-.759,1.139a.771.771,0,0,1-1.047.225,10.461,10.461,0,0,0-5.287-1.493c-1.622,0-2.576.356-2.576,1.444Z" transform="translate(-10.581 1.304)" fill="#e33387"/>
        <path id="Path_7" data-name="Path 7" d="M152.942,29.408l5.734,14.849a.77.77,0,0,1-.719,1.048h-1.766a.77.77,0,0,1-.719-.494l-1.242-3.231a.77.77,0,0,0-.719-.494h-4.582a.771.771,0,0,0-.72.494l-1.241,3.231a.772.772,0,0,1-.72.494h-1.766a.771.771,0,0,1-.719-1.048L149.5,29.408a.77.77,0,0,1,.719-.493h2.008a.77.77,0,0,1,.719.493m-.4,7.809-.608-1.576a.771.771,0,0,0-1.438,0l-.609,1.576a.771.771,0,0,0,.719,1.048h1.217a.771.771,0,0,0,.719-1.048" transform="translate(-11.906 1.292)" fill="#e33387"/>
        <path id="Path_8" data-name="Path 8" d="M164.97,35.553h5.965a.77.77,0,0,1,.77.77v1.257a.77.77,0,0,1-.77.77H164.97a.77.77,0,0,0-.77.77V44.51a.77.77,0,0,1-.771.77H161.75a.77.77,0,0,1-.77-.77V29.661a.77.77,0,0,1,.77-.77h10.34a.77.77,0,0,1,.77.77v1.279a.77.77,0,0,1-.77.77h-7.12a.77.77,0,0,0-.77.77v2.3a.77.77,0,0,0,.77.77" transform="translate(-13.337 1.294)" fill="#e33387"/>
        <path id="Path_9" data-name="Path 9" d="M178.972,32.482v2.3a.771.771,0,0,0,.77.771h5.987a.771.771,0,0,1,.771.77v1.257a.771.771,0,0,1-.771.77h-5.987a.77.77,0,0,0-.77.77v2.589a.771.771,0,0,0,.77.771h7.142a.771.771,0,0,1,.771.77v1.279a.771.771,0,0,1-.771.77h-9.8v-.022h-.562a.771.771,0,0,1-.77-.771V29.661a.77.77,0,0,1,.77-.77h10.362a.771.771,0,0,1,.771.77V30.94a.771.771,0,0,1-.771.771h-7.142a.77.77,0,0,0-.77.77" transform="translate(-14.561 1.294)" fill="#e33387"/>
      </g>
    </g>
  </g>
</svg>
